<?xml version="1.0" encoding="UTF-8"?>
<svg width="900px" height="1200px" viewBox="0 0 900 1200" version="1.1" xmlns="http://www.w3.org/2000/svg" xmlns:xlink="http://www.w3.org/1999/xlink">
    <title>After Shock</title>
    <defs>
        <linearGradient x1="64.9391821%" y1="52.059706%" x2="38.1559011%" y2="99.3451819%" id="linearGradient-1">
            <stop stop-color="#190C03" offset="0%"></stop>
            <stop stop-color="#6E390F" offset="100%"></stop>
        </linearGradient>
    </defs>
    <g id="After-Shock" stroke="none" stroke-width="1" fill="none" fill-rule="evenodd">
        <rect id="Rectangle" fill="#000000" x="0" y="0" width="900" height="1200"></rect>
        <rect id="Rectangle" fill="url(#linearGradient-1)" x="42" y="41" width="816" height="1110"></rect>
        <text id="TRAP" font-family="AvenirNextCondensed-DemiBold, Avenir Next Condensed" font-size="23" font-style="condensed" font-weight="500" letter-spacing="0.598" fill="#FFFFFF">
            <tspan x="570" y="106">TRAP</tspan>
        </text>
        <rect id="Rectangle" fill="#FF8429" x="637" y="72" width="163" height="50" rx="5"></rect>
        <circle id="Oval" fill="#FFFFFF" cx="664.5" cy="97.5" r="8.5"></circle>
        <text id="POWER-UP" font-family="AvenirNextCondensed-DemiBold, Avenir Next Condensed" font-size="23" font-style="condensed" font-weight="500" letter-spacing="0.598" fill="#FFFFFF">
            <tspan x="682" y="106">POWER UP</tspan>
        </text>
        <rect id="Rectangle" stroke="#000000" stroke-width="10" fill-opacity="0.4" fill="#000000" x="106" y="652" width="688" height="433" rx="15"></rect>
        <text id="Destroy-(discard)-on" font-family="AvenirNextCondensed-Regular, Avenir Next Condensed" font-size="32" font-style="condensed" font-weight="normal" letter-spacing="0.832" fill="#FFFFFF">
            <tspan x="148" y="832">Destroy (discard) one build card of your choosing </tspan>
            <tspan x="148" y="876">at the beginning of the build phase. Traps must be </tspan>
            <tspan x="148" y="920">activated before build phase begins.</tspan>
        </text>
        <text id="AFTER-SHOCK" font-family="AvenirNextCondensed-Regular, Avenir Next Condensed" font-size="80" font-style="condensed" font-weight="normal" letter-spacing="-4" fill="#FFFFFF">
            <tspan x="148" y="775">AFTER SHOCK</tspan>
        </text>
        <g id="Group" transform="translate(230.000000, 153.000000)" fill="#FFFFFF" fill-rule="nonzero">
            <path d="M309.754931,0.00288163987 C306.477214,-0.0918620346 303.596373,2.15909447 302.897291,5.36112707 C302.198208,8.56315966 303.878966,11.808988 306.898216,13.0875957 C313.987874,16.2082776 320.467057,15.9833326 325.322098,15.9980992 C330.17709,15.9980992 333.292306,16.1309989 337.053358,18.3612528 C340.81436,20.5924911 342.409101,23.2696818 344.747138,27.5224723 C347.085126,31.7752628 349.991285,37.567721 356.127655,42.2940282 C362.264122,47.0198431 368.608662,48.3513013 373.319111,49.5267253 C378.029512,50.7021494 381.026041,51.5610752 384.143523,54.6271206 C387.260955,57.6931659 388.168542,60.6740571 389.420272,65.3624632 C390.672101,70.0508694 392.106491,76.3700042 396.933018,82.4262928 C401.759594,88.4825815 407.601707,91.2926719 411.893797,93.5608268 C416.185937,95.8284895 418.888703,97.3804627 421.181481,101.102639 C423.474211,104.825307 423.642589,107.936145 423.735372,112.787476 C423.82845,117.6393 423.705823,124.118406 426.943617,131.153231 C427.935817,133.405033 430.065599,134.947274 432.515564,135.188049 C434.96553,135.428824 437.355066,134.330728 438.767083,132.315204 C440.1791,130.299681 440.394235,127.679849 439.329921,125.461185 C437.45038,121.375258 437.464859,117.678185 437.366314,112.527583 C437.267819,107.377474 436.918652,100.660132 432.791739,93.9600182 C428.664974,87.259412 422.821826,83.9221528 418.265374,81.5146993 C413.708971,79.1067536 410.400113,77.4538751 407.59693,73.9364629 C404.793699,70.4190508 403.922112,66.8258366 402.59326,61.8484966 C401.264407,56.8716489 399.317053,50.4333966 393.705812,44.9151056 C388.094572,39.3963224 381.622136,37.5534465 376.621666,36.305666 C371.621147,35.0578855 368.012321,34.2447362 364.448408,31.5001112 C360.884397,28.7554862 359.177962,25.4753247 356.695974,20.9601803 C354.213985,16.4455282 350.781761,10.6609456 344.012214,6.64442123 C337.242617,2.6283891 330.517096,2.38769297 325.363171,2.3719419 C320.209196,2.3719419 316.510935,2.43100843 312.39333,0.61766582 C311.56387,0.238386219 310.666691,0.0293309438 309.754931,0.00288163987 L309.754931,0.00288163987 Z M298.213128,26.1964286 C294.9354,26.1016592 292.054536,28.3526081 291.35544,31.5546486 C290.656344,34.7566891 292.337102,38.0025325 295.356364,39.2811427 C301.789155,42.1128908 307.672292,41.9051735 311.940694,41.9179712 C316.209047,41.9179712 318.747128,42.0262599 321.890958,43.8927624 C325.034787,45.7577882 326.33478,47.93882 328.390283,51.6777316 C330.445835,55.4166433 333.081624,60.6775026 338.649477,64.965733 C344.21733,69.2534712 349.978727,70.4594129 354.119971,71.4925851 C358.261265,72.5262494 360.702082,73.2266801 363.307929,75.7896755 C365.913825,78.3526708 366.655003,80.7807976 367.755494,84.9026573 C368.855984,89.0250092 370.154697,94.7638152 374.534054,100.258972 C378.913411,105.754128 384.218822,108.302849 387.992284,110.296837 C391.765844,112.290825 393.968204,113.554849 395.884681,116.666671 C397.801207,119.778 397.939346,122.313431 398.02095,126.57902 C398.102701,130.844116 397.991401,136.72665 400.925632,143.109774 C401.925264,145.349995 404.052494,146.880296 406.495286,147.116509 C408.938078,147.352722 411.319369,146.258386 412.730141,144.251245 C414.140912,142.244105 414.3634,139.633977 413.312675,137.417237 C411.733003,133.983502 411.738421,130.882017 411.651154,126.318142 C411.563985,121.753776 411.245352,115.612825 407.494988,109.523558 C403.744475,103.433798 398.402472,100.383504 394.364649,98.2497252 C390.326825,96.1164389 387.553979,94.725422 385.197966,91.7691419 C382.841954,88.8128619 382.105306,85.8004686 380.927693,81.3896752 C379.750081,76.9793739 377.969873,71.0929015 372.870218,66.0771683 C367.770613,61.0619273 361.853889,59.3775466 357.422526,58.272018 C352.991213,57.1659971 349.965578,56.4788564 346.970182,54.171816 C343.974736,51.8647756 342.538671,49.1162129 340.339168,45.1154396 C338.139714,41.1146664 335.00145,35.8252582 328.849075,32.1754386 C322.6967,28.5251267 316.548314,28.3055961 311.980979,28.2923061 C307.413643,28.2923061 304.312216,28.3415283 300.851478,26.8107206 C300.021997,26.431617 299.124837,26.2227296 298.213128,26.1964286 L298.213128,26.1964286 Z M286.036767,53.8282457 C282.759199,53.7338877 279.878717,55.984959 279.179842,59.1868726 C278.480966,62.3887861 280.161699,65.6343886 283.180791,66.9129598 C288.920667,69.4395308 294.174073,69.2505179 297.823578,69.261839 C301.473132,69.261839 303.402758,69.3455165 305.895483,70.8256255 C308.388207,72.3047499 309.377496,73.9620584 311.135001,77.1590346 C312.892456,80.3560108 315.243052,85.0557381 320.211166,88.8817728 C325.17923,92.7078076 330.325572,93.7813419 333.866437,94.6648788 C337.407252,95.5484157 339.26271,96.0824756 341.328949,98.1143644 C343.395139,100.146745 343.959075,101.992575 344.900052,105.516878 C345.841029,109.041181 346.997268,114.16668 350.90493,119.070186 C354.812543,123.973201 359.552787,126.245786 362.779205,127.95084 C366.005622,129.655402 367.67916,130.618186 369.198699,133.085691 C370.718288,135.552703 370.823925,137.479749 370.893709,141.126615 C370.96364,144.773481 370.859235,150.026957 373.478822,155.721956 C374.476815,157.964663 376.60454,159.497559 379.048844,159.734815 C381.493148,159.972071 383.87622,158.877015 385.287322,156.868145 C386.698423,154.859276 386.919443,152.247099 385.865914,150.029911 C384.602561,147.283809 384.600148,144.812367 384.524651,140.866722 C384.449302,136.920585 384.161695,131.387528 380.808267,125.942578 C377.454692,120.497135 372.640724,117.749065 369.149993,115.904712 C365.659312,114.059868 363.452323,112.944495 361.568055,110.580357 C359.683786,108.215726 359.089563,105.817133 358.071513,102.003896 C357.053463,98.1911509 355.450399,92.8869761 350.890451,88.4023495 C346.330503,83.9172306 340.998349,82.4006973 337.167465,81.4448039 C333.336531,80.4884183 330.926739,79.9331929 328.531082,78.0883481 C326.135425,76.2435033 324.984505,74.0555805 323.083098,70.5967426 C321.181642,67.138397 318.354821,62.3727121 312.8536,59.1087939 C307.35233,55.8453679 301.812351,55.647495 297.863912,55.6356817 C293.915424,55.6356817 291.442201,55.6849038 288.674428,54.4425377 C287.845403,54.0636262 286.948765,53.8547433 286.037555,53.8282457 L286.037555,53.8282457 L286.036767,53.8282457 Z M219.997049,72.2072901 C137.504444,72.2072901 70.6311091,139.045996 70.6311091,221.495347 C70.6311091,303.945339 137.504444,370.783552 219.997049,370.783552 C302.489705,370.783552 369.363778,303.945339 369.363778,221.495347 C369.363778,139.045996 302.489705,72.2072901 219.997049,72.2072901 L219.997049,72.2072901 Z M196.510941,86.5401415 C199.074435,86.5904835 199.877813,87.5291492 195.102701,90.6946232 C184.930872,98.4298782 173.837421,104.97445 164.315367,113.525316 C156.425186,123.934316 146.916429,132.940485 138.25626,142.715997 C129.476862,150.516717 140.0671,164.537144 149.816383,163.72301 C168.641635,161.458301 187.603745,166.406107 205.11615,172.879307 C216.811113,177.337354 226.87834,187.89402 226.795186,200.992517 C226.779894,212.097862 223.188649,224.778955 212.487357,230.113647 C201.804287,235.752532 190.215009,242.33156 186.167336,254.577529 C181.156327,267.574136 180.589141,281.591116 181.282352,295.340329 C178.900287,303.079029 187.108608,319.870661 175.197595,320.551895 L174.728263,320.305784 L174.242188,320.064596 C164.363679,312.826484 155.949551,303.208484 150.616807,292.195036 C145.799047,277.809874 144.96474,262.503766 142.289307,247.731225 C137.021126,236.589308 120.534552,234.378743 118.803149,220.956365 C115.776382,207.631103 126.308754,196.958272 128.990048,184.919528 C125.914378,172.755267 110.198285,174.035535 100.237039,173.053061 C87.2540006,173.427149 96.3976842,161.118668 99.4024377,155.225797 C118.117965,121.531784 151.358971,95.909706 189.123088,87.6010135 C191.444726,87.0615391 194.517293,86.5191115 196.51104,86.5401415 L196.510941,86.5401415 Z M266.134714,92.675321 L266.134714,92.675321 C266.862054,92.675321 267.640267,92.7245431 268.481763,92.8672873 C291.819193,102.591116 313.301754,117.654066 328.543985,138.077797 C348.193988,163.429646 358.612303,195.702124 356.376504,227.803653 C355.877919,255.164257 345.811283,282.367841 328.787466,303.751403 C328.090364,305.256123 326.818393,303.023408 326.510447,302.726107 C318.273365,292.467726 323.401189,279.200398 326.54492,268.131822 C329.997089,246.026664 331.878403,220.296297 316.809919,201.862763 C307.751975,195.994995 295.063241,199.639893 287.117361,191.194363 C276.580163,181.448385 267.5857,164.790638 275.904189,150.935597 C280.887421,140.364164 295.913504,134.178914 294.679552,121.310285 C287.93517,106.701162 270.659351,130.354848 262.170515,116.323593 C256.856091,109.574749 255.224611,92.8559662 266.134221,92.675321 L266.134714,92.675321 Z M59.9679352,283.220368 C57.6857584,283.325496 55.6079834,284.566188 54.4338049,286.524937 C53.2596263,288.483687 53.1451596,290.900065 54.1289239,292.960932 C55.3923259,295.707526 55.3946898,298.178968 55.4701867,302.124613 C55.5455357,306.070257 55.8321577,311.603315 59.1858808,317.048757 C62.5394562,322.493707 67.3533753,325.241778 70.8440565,327.086622 C74.3347868,328.930975 76.5417759,330.046348 78.4260444,332.410978 C80.3103129,334.775116 80.9037976,337.174202 81.9218473,340.986947 C82.939897,344.800184 84.5436995,350.104359 89.1036479,354.588985 C93.6635964,359.073612 98.9949618,360.590637 102.825846,361.546531 C106.65678,362.502424 109.066621,363.05765 111.462278,364.902987 C113.857935,366.747831 115.009594,368.935262 116.911001,372.3941 C118.812457,375.852938 121.639229,380.61813 127.140499,383.882049 C132.641769,387.145967 138.181699,387.34384 142.130187,387.355653 C146.078675,387.355653 148.551159,387.306431 151.318883,388.547813 C153.556081,389.57949 156.176156,389.324379 158.172066,387.880532 C160.167976,386.436686 161.229107,384.028803 160.947608,381.582368 C160.666108,379.135934 159.085785,377.031674 156.814047,376.078375 C151.074171,373.551804 145.820814,373.740325 142.17126,373.729496 C138.521755,373.729496 136.59208,373.645818 134.099355,372.165217 C131.60668,370.686585 130.616554,369.028784 128.859098,365.831808 C127.101643,362.635324 124.751835,357.935105 119.783721,354.10907 C114.815607,350.283035 109.669266,349.209993 106.128401,348.326456 C102.587586,347.442919 100.732127,346.908367 98.6658882,344.876478 C96.5997478,342.844589 96.0357624,340.998268 95.0948348,337.473965 C94.1538086,333.949661 92.996831,328.824163 89.0891691,323.921148 C85.1815564,319.017642 80.4420014,316.745057 77.2156822,315.040495 C73.9892646,313.335441 72.3157272,312.372656 70.7961876,309.905644 C69.2765495,307.43814 69.1701744,305.511586 69.1003903,301.86472 C69.0304585,298.217361 69.1348637,292.964378 66.515277,287.268887 C65.3770773,284.698932 62.7769086,283.09113 59.9679352,283.220368 L59.9679352,283.220368 Z M32.5219623,295.834027 C30.2399215,295.939043 28.1621953,297.179495 26.9878853,299.138002 C25.8135753,301.096508 25.6987943,303.512706 26.6821631,305.573606 C28.2618835,309.007833 28.2556782,312.108826 28.3429453,316.673192 C28.4301138,321.237067 28.7492393,327.378017 32.4998993,333.467777 C36.2504116,339.557045 41.5924145,342.607339 45.6302382,344.741117 C49.668062,346.874896 52.4409078,348.265421 54.7969205,351.221701 C57.1528841,354.177981 57.889532,357.190374 59.0671937,361.601167 C60.2448061,366.011961 62.0242261,371.898433 67.1238808,376.913674 C72.2235354,381.929408 78.1409984,383.613296 82.5723117,384.719317 C87.0033788,385.824845 90.0287178,386.512478 93.0239173,388.819027 C96.0193629,391.126067 97.4562155,393.87463 99.6556697,397.875403 C101.855173,401.876176 104.992649,407.165584 111.145024,410.815896 C117.297399,414.465716 123.445784,414.685246 128.01312,414.699029 C132.580456,414.699029 135.682621,414.649807 139.14336,416.180122 C141.378624,417.19908 143.989538,416.937152 145.977596,415.494508 C147.965654,414.051864 149.023311,411.651675 148.746082,409.211858 C148.468853,406.772042 146.899624,404.670027 144.638523,403.7097 C138.205682,400.878444 132.322545,401.085669 128.054193,401.072871 C123.78584,401.072871 121.247758,400.964583 118.103929,399.09808 C114.9601,397.233054 113.659319,395.052023 111.603816,391.313111 C109.548264,387.574199 106.913213,382.31334 101.34536,378.025602 C95.7775564,373.737371 90.0161596,372.531922 85.8748664,371.498258 C81.7335731,370.465085 79.2920662,369.764163 76.6861703,367.201659 C74.0802744,364.638664 73.3398836,362.210045 72.2393932,358.088185 C71.1388043,353.966326 69.8401901,348.22752 65.460784,342.732363 C61.081427,337.237206 55.7752765,334.688485 52.0018148,332.694498 C48.2283037,330.70051 46.0258947,329.436486 44.1094182,326.324664 C42.1929417,323.212842 42.0554912,320.677411 41.9739369,316.412315 C41.8921856,312.146727 42.0034855,306.264192 39.0685161,299.881561 C37.9301166,297.312269 35.330417,295.704954 32.5219623,295.834027 L32.5219623,295.834027 Z M6.50392771,307.790078 C4.22175695,307.89504 2.14390242,309.135567 0.969577944,311.094213 C-0.204746528,313.052859 -0.319408093,315.469212 0.664177738,317.530149 C2.54371845,321.615585 2.53002757,325.31315 2.62852309,330.463259 C2.7270186,335.613861 3.07618521,342.330711 7.20309814,349.031317 C11.3299126,355.731923 17.1722727,359.06869 21.7287245,361.476635 C26.2851277,363.884089 29.5947248,365.536968 32.3979565,369.05438 C35.2011389,372.571792 36.0727257,376.165006 37.4016272,381.142346 C38.7304795,386.119686 40.6777851,392.557446 46.2890748,398.076229 C51.9003151,403.595012 58.3719138,405.437396 63.3724328,406.685177 C68.3729517,407.932957 71.9817289,408.746106 75.54574,411.490731 C79.1097018,414.235849 80.8168753,417.51601 83.2988639,422.030662 C85.7808524,426.545314 89.2130764,432.330389 95.9826734,436.346421 C102.752221,440.362453 109.476953,440.603642 114.630977,440.618901 C119.784903,440.618901 123.483951,440.559834 127.601507,442.373177 C129.838706,443.404854 132.45878,443.149743 134.45469,441.705896 C136.450601,440.26205 137.511732,437.854167 137.230232,435.407732 C136.948732,432.961298 135.368409,430.857038 133.096671,429.903739 C126.006963,426.783057 119.527042,427.00751 114.672001,426.992743 C109.817009,426.992743 106.702531,426.859844 102.941529,424.62959 C99.1804781,422.398351 97.5849984,419.721161 95.2469611,415.46837 C92.9089237,411.21558 90.0036015,405.423122 83.8671338,400.697307 C77.7307645,395.971492 71.3854371,394.640034 66.6749875,393.464609 C61.9645871,392.289185 58.9688459,391.429767 55.8513643,388.363722 C52.7338827,385.297677 51.825557,382.317278 50.5738267,377.628379 C49.321998,372.939973 47.8883957,366.621331 43.0618199,360.565042 C38.2352933,354.508261 32.3931794,351.697678 28.1010403,349.429524 C23.8089011,347.161861 21.1053957,345.610872 18.8126663,341.888204 C16.5198876,338.165535 16.3522975,335.05519 16.2594655,330.203367 C16.1668797,325.351543 16.2890141,318.872436 13.0512202,311.837612 C11.9127219,309.26806 9.31264633,307.660694 6.50392771,307.790078 L6.50392771,307.790078 Z M256.626449,324.583186 C267.996377,325.065562 280.596367,324.044696 290.212731,331.325138 C293.455843,333.257599 296.892549,336.160227 291.655148,338.083334 C278.221739,346.136072 263.589245,352.339535 248.246401,355.632986 C233.8828,358.661131 219.140976,357.988757 204.559995,357.700315 C196.012406,356.731132 187.485452,355.039368 179.370505,352.313939 C179.746265,347.704781 188.034121,342.479854 193.468562,341.471292 C204.090319,340.429753 214.328337,337.213088 224.482634,334.104711 C234.922617,330.131994 245.262085,325.102479 256.626449,324.583186 L256.626449,324.583186 Z" id="Shape"></path>
        </g>
    </g>
</svg>