<?xml version="1.0" encoding="UTF-8"?>
<svg width="900px" height="1200px" viewBox="0 0 900 1200" version="1.1" xmlns="http://www.w3.org/2000/svg" xmlns:xlink="http://www.w3.org/1999/xlink">
    <title>Auto E.M.P.</title>
    <defs>
        <linearGradient x1="64.9391821%" y1="52.059706%" x2="38.1559011%" y2="99.3451819%" id="linearGradient-1">
            <stop stop-color="#161903" offset="0%"></stop>
            <stop stop-color="#4B5605" offset="100%"></stop>
        </linearGradient>
    </defs>
    <g id="Auto-E.M.P." stroke="none" stroke-width="1" fill="none" fill-rule="evenodd">
        <rect id="Rectangle" fill="#000000" x="0" y="0" width="900" height="1200"></rect>
        <rect id="Rectangle" fill="url(#linearGradient-1)" x="42" y="41" width="816" height="1110"></rect>
        <rect id="Rectangle" fill="#A0B51B" x="675" y="72" width="125" height="50" rx="5"></rect>
        <circle id="Oval" fill="#FFFFFF" cx="703.5" cy="96.5" r="8.5"></circle>
        <text id="EVENT" font-family="AvenirNextCondensed-DemiBold, Avenir Next Condensed" font-size="23" font-style="condensed" font-weight="500" letter-spacing="0.598" fill="#FFFFFF">
            <tspan x="721" y="105">EVENT</tspan>
        </text>
        <rect id="Rectangle" stroke="#000000" stroke-width="10" fill-opacity="0.4" fill="#000000" x="106" y="652" width="688" height="433" rx="15"></rect>
        <text id="An-electromagnetic-p" font-family="AvenirNextCondensed-Regular, Avenir Next Condensed" font-size="32" font-style="condensed" font-weight="normal" letter-spacing="0.832" fill="#FFFFFF">
            <tspan x="148" y="832">An electromagnetic pulse explodes above the </tspan>
            <tspan x="148" y="876">battlefield. All lizards are stunned this round and </tspan>
            <tspan x="148" y="920">cannot attack (skip the battle phase and move to </tspan>
            <tspan x="148" y="964">the next round).</tspan>
        </text>
        <text id="AUTO-E.M.P." font-family="AvenirNextCondensed-Regular, Avenir Next Condensed" font-size="80" font-style="condensed" font-weight="normal" letter-spacing="-4" fill="#FFFFFF">
            <tspan x="148" y="775">AUTO E.M.P.</tspan>
        </text>
        <path d="M443.928571,126.217393 C443.626637,128.375751 441.494976,130 438.964286,130 C436.433595,130 434.301935,128.375751 434,126.217393 C434,112.718678 435.857143,99.2813216 436.071429,85.782607 C436.373363,83.6242486 438.505024,82 441.035714,82 C443.566405,82 445.698065,83.6242486 446,85.782607 C446,99.2813216 444,112.718678 443.928571,126.217393 Z M445.753943,290.131231 C445.753943,266.535191 446.813834,243.064662 446.981185,219.468622 C447.148537,195.872582 446.144429,172.402053 446.144429,148.868769 C445.908626,146.661246 444.243858,145 442.267458,145 C440.291058,145 438.626289,146.661246 438.390486,148.868769 C438.390486,172.464809 439.115675,195.935338 439.227243,219.468622 C439.33881,243.001907 438,266.597947 438,290.131231 C438.235803,292.338754 439.900571,294 441.876971,294 C443.853371,294 445.51814,292.338754 445.753943,290.131231 Z M444.538472,572.128544 C444.538472,560.322327 446.796716,548.704508 446.984903,536.898291 C447.17309,525.092075 445.542136,513.474256 445.416678,501.793637 C445.416678,478.306802 442.844789,454.882766 442.78206,431.395932 C442.78206,428.968126 440.816129,427 438.39103,427 C435.965931,427 434,428.968126 434,431.395932 C434,454.882766 436.446431,478.306802 436.697347,501.793637 C436.697347,513.474256 438.140114,525.217673 438.265572,536.898291 C438.39103,548.57891 436.007328,560.322327 435.819141,572.128544 C436.084302,574.3376 437.956339,576 440.178807,576 C442.401274,576 444.273311,574.3376 444.538472,572.128544 L444.538472,572.128544 Z M444.065217,635.123549 C444.065217,622.54754 446.73913,610.726092 447,598.401603 C447,595.970665 444.956083,594 442.434783,594 C439.913483,594 437.869565,595.970665 437.869565,598.401603 C437.869565,610.977612 435.130435,622.79906 435,635.123549 C435.27568,637.335455 437.221978,639 439.532609,639 C441.843239,639 443.789538,637.335455 444.065217,635.123549 L444.065217,635.123549 Z M704.126739,363.411458 C705.896735,363.712057 707.609481,364.329688 709.196291,365.239583 C711.314749,366.236628 713.572583,366.831917 715.873261,367 C721.37558,367 721.37558,357.859375 715.873261,357.588542 C714.099803,357.343843 712.381897,356.747295 710.803709,355.828125 C708.698377,354.778208 706.435524,354.158649 704.126739,354 C698.62442,354 698.62442,363.140625 704.126739,363.411458 L704.126739,363.411458 Z M655.867218,367 C663.01847,367 669.98153,364.519553 677.132782,364.318436 C679.339419,364.035056 681,362.034391 681,359.659218 C681,357.284045 679.339419,355.28338 677.132782,355 C669.98153,355 663.01847,357.480447 655.867218,357.681564 C653.660581,357.964944 652,359.965609 652,362.340782 C652,364.715955 653.660581,366.71662 655.867218,367 L655.867218,367 Z M534.892905,362.848387 C551.646448,361.769685 568.461044,362.409536 585.09472,364.75873 C601.673141,367.02064 618.424929,367.572256 635.107095,366.405578 C637.32839,366.127123 639,364.161232 639,361.827341 C639,359.49345 637.32839,357.527559 635.107095,357.249104 C618.250775,358.371317 601.329407,357.753493 584.589545,355.404635 C568.123513,353.07683 551.47851,352.436995 534.892905,353.494291 C532.67161,353.772746 531,355.738637 531,358.072528 C531,360.406419 532.67161,362.37231 534.892905,362.650765 L534.892905,362.848387 Z M291.862322,367 C305.019,367 318.113028,364.724138 331.269707,364.586207 C344.426385,364.448276 357.457762,365.137931 370.61444,365.206897 C373.036518,365.206897 375,363.045513 375,360.37931 C375,357.713108 373.036518,355.551724 370.61444,355.551724 C357.457762,355.551724 344.363734,355 331.269707,355 C318.175679,355 305.019,357.206897 291.862322,357.413793 C289.658478,357.705316 288,359.763471 288,362.206897 C288,364.650322 289.658478,366.708477 291.862322,367 L291.862322,367 Z M202.316668,367 C213.848337,367 225.195006,364.112299 236.726676,363.919786 C248.258345,363.727273 259.728348,364.433155 271.198351,364.433155 C273.367575,364.161898 275,362.246823 275,359.973262 C275,357.699701 273.367575,355.784626 271.198351,355.513369 C259.666681,355.513369 248.196679,355 236.726676,355 C225.256673,355 213.848337,357.823529 202.316668,358.016043 C199.932638,358.016043 198,360.02717 198,362.508021 C198,364.988873 199.932638,367 202.316668,367 L202.316668,367 Z M165.895275,363.618193 C170.813563,363.618193 175.185374,366.798064 180.103663,366.996806 C185.021951,367.195548 185.568427,358.053419 180.103663,357.78843 C174.638898,357.52344 170.874282,354.409817 165.895275,354.012333 C160.916267,353.614849 160.49123,362.95572 165.895275,363.220709 L165.895275,363.618193 Z M619.217199,545.53484 C623.213665,549.841865 627.092588,554.273732 630.971512,558.580758 C634.850435,562.887783 640.433734,556.396035 636.848668,552.338692 C633.263603,548.281349 629.03205,543.537379 625.094355,539.292774 C623.471423,537.569075 620.840131,537.569075 619.217199,539.292774 C617.594267,541.016473 617.594267,543.811141 619.217199,545.53484 Z M488.272325,413.673479 C499.401763,422.984335 509.781116,433.149172 519.315056,444.07463 C527.014059,454.380112 535.448537,464.120271 544.553049,473.219536 C554.522056,483.081066 564.743443,492.063225 575.3434,501.422257 C585.943357,510.781289 593.956419,521.270942 603.483762,530.692787 C607.39565,534.712774 613.642054,528.557169 609.79326,524.411557 C600.329012,514.801276 592.126665,503.997561 582.031468,495.015403 C571.936271,486.033244 561.210124,476.674212 551.178022,466.812682 C546.193518,461.85051 541.01973,457.013963 536.350701,451.800543 C531.681673,446.587122 528.842398,441.624951 524.93051,436.662779 C515.510858,426.175694 505.370177,416.353291 494.581823,407.266625 C490.543745,403.30945 484.297341,409.527868 488.272325,413.547854 L488.272325,413.673479 Z M287.279732,215.541333 C302.580795,230.65111 317.56572,246.074369 332.740329,261.246842 C347.914937,276.419316 364.037958,290.714043 379.402248,305.761124 C383.448811,309.648287 389.708336,303.504062 385.725002,299.491507 C370.297484,284.507122 354.111235,270.149699 338.999854,255.039921 C323.888474,239.930144 308.840321,224.444189 293.539258,209.271716 C289.555923,205.321857 283.359625,211.466082 287.216504,215.541333 L287.279732,215.541333 Z M235.216777,159.607987 C247.169463,171.783768 256.845446,186.09345 269.367307,197.767137 C273.478019,201.658366 279.738949,195.444952 275.691479,191.490961 C263.043135,179.754512 253.556877,165.507592 241.540949,153.331811 C237.556721,149.252297 231.359032,155.465711 235.216777,159.607987 Z M261.282227,532.27791 C252.586914,540.77108 243.763729,548.615917 235.32416,557.173921 C233.558613,558.964245 233.558613,561.866933 235.32416,563.657257 C237.089708,565.447581 239.952226,565.447581 241.717773,563.657257 C250.157341,555.164087 259.172335,547.254416 267.67584,538.826079 C269.441387,537.035755 269.441387,534.133067 267.67584,532.342743 C265.910292,530.552419 263.047774,530.552419 261.282227,532.342743 L261.282227,532.27791 Z M379.446326,411.266946 C371.784876,418.931987 365.504998,428.230563 358.157542,436.39823 C349.616909,445.822461 339.694703,454.052957 330.651679,462.974563 C321.608656,471.896169 313.821608,481.823026 304.652988,490.80746 C296.551946,498.53533 286.441344,503.750071 278.340302,511.54077 C274.258382,515.436119 280.412661,521.593283 284.620179,517.823591 C292.156032,510.598346 301.199055,505.257949 309.174499,498.975127 C318.308191,490.339435 326.946352,481.193796 335.047594,471.582028 C343.90222,462.346281 353.573231,453.864472 362.679053,444.880038 C371.784876,435.895604 377.436765,426.031575 385.726203,417.549767 C389.682526,413.528761 383.528246,407.308769 379.446326,411.266946 L379.446326,411.266946 Z M519.33483,279.302172 C511.138887,287.161478 502.430699,294.517789 494.298787,302.502844 C490.264847,306.463934 496.539865,312.625631 500.701867,308.790289 C508.833779,300.805234 517.541967,293.511798 525.673879,285.589617 C527.44204,283.853387 527.44204,281.038402 525.673879,279.302172 C523.905717,277.565943 521.038961,277.565942 519.270799,279.302172 L519.33483,279.302172 Z M609.673386,184.281233 C595.425404,197.744083 581.902409,211.986782 569.163986,226.946574 C556.298388,241.829937 542.651272,255.988169 528.282939,269.358708 C527.17647,270.489484 526.744345,272.137625 527.149341,273.682294 C527.554337,275.226962 528.734925,276.433486 530.24639,276.847378 C531.757855,277.261271 533.370568,276.819653 534.477037,275.688877 C548.79861,262.308628 562.384467,248.128458 575.172261,233.213441 C587.931904,218.253058 601.475546,204.010391 615.743602,190.5481 C619.645884,186.560094 613.575668,180.356528 609.549504,184.217931 L609.673386,184.281233 Z M639.047265,157.354518 C636.109749,160.598771 633.748217,164.34214 630.8683,167.586393 C627.988383,170.830646 632.884242,177.755878 636.628135,173.825341 C640.372027,169.894803 641.927182,166.775329 644.807099,163.531076 C646.397634,161.808238 646.397634,159.014966 644.807099,157.292128 C643.216565,155.569291 640.637799,155.569291 639.047265,157.292128 L639.047265,157.354518 Z M334.680266,398.292133 C326.260345,401.23132 317.397271,402.730905 308.97735,405.670091 C303.722812,407.529577 306.001889,415.627336 311.319734,413.707867 C319.739655,410.76868 328.602729,409.269095 337.02265,406.329909 C342.277188,404.470423 339.998111,396.372664 334.680266,398.292133 L334.680266,398.292133 Z M373.624444,382.317286 C367.227244,384.589417 361.34182,387.560666 355.008592,389.891057 C349.698917,391.81363 352.001909,399.62044 357.375556,397.697867 C362.749204,395.775295 369.65818,392.396228 375.991408,390.124096 C381.301083,388.201524 378.998091,380.336453 373.624444,382.317286 L373.624444,382.317286 Z M566.771423,307.310626 C556.442428,311.431315 545.988987,315.361817 535.659991,319.482505 C525.330996,323.603193 514.379772,325.822025 503.926331,330.196294 C498.761833,332.161545 501.001856,340.719897 506.228577,338.691251 C516.682018,334.633958 527.508796,332.351731 537.962237,327.977462 C548.415678,323.603193 558.806897,319.926271 569.073669,315.805583 C574.238167,313.776937 571.998144,305.28198 566.771423,307.310626 L566.771423,307.310626 Z M461.081016,478.733183 C462.743902,488.645576 461.912459,498.426678 463.644632,508.667295 C464.614649,514.509699 473.899095,512.01519 472.929078,506.238431 C471.196905,496.326039 472.028348,486.544936 470.365463,476.304319 C469.326159,470.527561 460.041712,472.956425 461.081016,478.733183 Z M451.109721,441.358213 C452.481497,448.168238 456.477539,454.057989 457.908957,460.929365 C458.982521,466.328304 466.974605,463.996944 465.901042,458.659357 C464.469624,451.787981 460.533224,445.89823 459.101806,439.088205 C457.9686,433.689267 449.976515,435.959275 451.109721,441.358213 L451.109721,441.358213 Z M407.079783,217.440156 C409.068528,228.501725 412.021513,239.25082 414.010258,250.249895 C415.999003,261.248969 420.036757,271.810581 421.844707,282.87215 C422.808947,288.371687 430.884457,285.996887 429.920217,280.559844 C427.871207,269.498275 423.893717,258.999159 422.085767,247.937589 C420.277817,236.87602 417.144038,226.189419 415.155293,215.12785 C414.191053,209.628313 406.115543,212.003113 407.079783,217.440156 L407.079783,217.440156 Z M506.090014,379.697569 C516.98854,381.969293 527.637957,385.223385 538.598761,387.556507 C549.559564,389.889629 560.644922,390.687803 571.605726,392.898129 C577.02385,394.003292 579.32811,385.775967 573.909986,384.670803 C562.949182,382.460477 551.801547,381.539508 540.903021,379.329182 C530.004495,377.118855 519.2928,373.557774 508.394274,371.101856 C502.97615,369.996693 500.67189,378.224018 506.090014,379.390579 L506.090014,379.697569 Z M304.093349,336.040224 C315.128324,338.474424 325.290477,343.217994 336.263108,345.652194 C347.235739,348.086394 358.582437,347.649487 369.555069,349.896441 C375.041384,351.019918 377.348131,342.656255 371.861815,341.532778 C360.826839,339.285824 349.60483,339.535486 338.569854,337.288532 C327.534879,335.041577 317.435071,329.798684 306.400095,327.114822 C300.976124,325.92893 298.669378,334.292593 304.093349,335.478485 L304.093349,336.040224 Z M498.943029,498.624876 C493.751443,485.255804 488.306609,472.014666 483.431583,458.453694 C481.025726,452.057009 478.683181,444.956688 476.1507,438.240169 C474.124715,432.93092 469.819497,429.28481 467.09708,424.231428 C464.374663,419.178047 457.030468,423.59176 459.499637,428.709108 C461.968806,433.826456 466.527272,437.664467 468.616569,443.101649 C470.705866,448.538832 472.858474,454.935517 474.947771,460.820467 C479.759485,474.125572 485.267632,487.622578 490.20597,500.99165 C492.231954,506.300898 500.715766,503.998092 498.689781,498.624876 L498.943029,498.624876 Z M395.706689,240.746729 C390.438891,226.367878 386.188737,211.613927 381.280107,196.985009 C379.544128,191.733602 371.462848,193.984205 373.258688,199.298128 C378.167318,213.802013 382.417472,228.555964 387.68527,243.059848 C389.600833,248.248738 397.622252,245.998135 395.706689,240.746729 Z M420.647229,294.644376 C416.962195,285.451886 410.267715,278.059325 406.582681,268.931118 C404.494495,263.724183 396.203168,266.038376 398.352771,271.309594 C402.037805,280.566367 408.732285,287.958929 412.417319,297.022852 C414.505505,302.29407 422.796832,299.979877 420.647229,294.644376 Z M554.01957,429.848068 C544.528089,423.666525 535.529672,417.484982 525.791659,410.932546 C517.780267,404.869368 509.167896,399.649364 500.0907,395.355058 C495.036794,393.191518 492.818007,401.536601 497.810279,403.638326 C506.928947,408.171067 515.579001,413.595942 523.634504,419.833968 C532.324756,425.644619 540.953375,431.517085 549.70526,437.26592 C554.327735,440.356691 558.642045,432.877024 554.01957,429.848068 L554.01957,429.848068 Z M587.12961,453.068524 C583.120002,450.38195 580.300746,446.29103 576.228487,443.604455 C572.156229,440.917881 567.269518,447.878551 571.842978,450.931476 C576.416438,453.984401 578.671842,457.70897 582.744101,460.395545 C586.816359,463.082119 591.76572,456.121449 587.12961,453.068524 Z M333.967106,289.726468 C321.389388,281.607956 309.943665,271.727285 296.611284,264.552785 C291.643085,261.909549 287.177995,269.461654 292.209082,272.10489 C305.541464,279.090587 316.924298,288.971258 329.564905,297.278573 C334.344438,300.362349 338.683751,292.74731 333.967106,289.726468 Z M383.609357,317.679214 L357.541477,300.725177 C352.737813,297.625371 348.254394,305.279993 353.058058,308.316537 L379.446182,325.270574 C384.313894,328.37038 388.733264,320.779019 383.929601,317.679214 L383.609357,317.679214 Z M577.948829,328.047747 C563.01846,331.808505 548.276289,335.987126 533.157723,338.852466 C527.63725,339.926968 529.958358,347.926041 535.478831,346.911233 C550.597397,343.986199 565.339568,339.807579 580.269936,336.04682 C582.328547,335.245863 583.432831,333.106841 582.84088,331.066843 C582.24893,329.026845 580.147674,327.730069 577.948829,328.047747 Z M619.298199,323.06603 C613.402,324.026154 607.315601,323.404897 601.356002,324.365021 C595.396403,325.325144 598.122602,332.780221 603.701801,331.933053 C609.281,331.085885 615.684399,331.594186 621.643998,330.69054 C627.603597,329.786895 624.877398,322.218863 619.298199,323.06603 Z M268.756332,389.119228 C265.574182,389.717507 262.27195,389.989452 259.089799,390.587731 C258.019562,390.842525 257.106332,391.474593 256.553674,392.343045 C256.001016,393.211496 255.85487,394.244141 256.147811,395.210798 C256.789111,397.218647 259.077573,398.399805 261.311301,397.87586 C264.493451,397.277581 267.795683,397.005636 270.977834,396.461746 C273.177854,395.877859 274.45549,393.804589 273.849523,391.801743 C273.243556,389.798897 270.977557,388.605426 268.756332,389.119228 L268.756332,389.119228 Z M360.42776,371.099703 C348.457499,373.443253 336.679275,376.507896 324.709015,378.851447 C312.738755,381.194997 300.256398,380.834451 288.222125,382.817455 C282.589062,383.778912 284.957509,391.831111 290.590573,390.929745 C302.688857,388.88665 314.979178,389.006832 327.077462,386.903646 C339.175747,384.800459 350.825947,381.495452 362.796207,379.151902 C368.429271,378.070263 365.996811,370.018064 360.42776,371.099703 L360.42776,371.099703 Z M549.601086,190.815 C538.704162,208.478153 525.895497,224.7682 515.189747,242.556181 C503.273227,262.154168 490.528287,280.878359 477.783346,299.664964 C474.533386,304.283597 482.244075,308.652575 485.43031,304.033942 C498.175251,285.996304 510.474119,268.083495 521.753391,249.29689 C533.032664,230.510285 546.223677,213.596099 557.566674,195.246392 C558.558213,193.205203 557.796344,190.760284 555.810065,189.609242 C553.823786,188.458199 551.269049,188.981155 549.91971,190.815 L549.601086,190.815 Z M573.149296,148.016155 C568.836257,155.132629 567.158964,163.435181 562.666214,170.551655 C559.790855,175.358396 566.979254,179.665735 569.854613,174.983845 C574.107749,167.804946 575.844945,159.564819 580.337694,152.448345 C583.213054,147.641604 575.964752,143.334265 573.149296,148.016155 Z M304.641718,555.834365 C301.939118,560.123798 302.202786,565.42251 299.500186,569.585783 C298.391545,571.676547 299.183678,574.231934 301.304362,575.405971 C303.425046,576.580007 306.134806,575.963312 307.476152,574.001376 C310.112835,569.775023 309.915083,564.476311 312.551766,560.313038 C313.577417,558.25007 312.789338,555.779065 310.734723,554.615742 C308.680109,553.452418 306.037479,553.980954 304.641718,555.834365 L304.641718,555.834365 Z M394.274884,417.230677 C389.032968,426.410728 383.123767,435.190404 376.595337,443.498307 C369.674518,452.969808 363.382864,463.009599 356.90246,472.796817 C350.422057,482.584035 346.332482,492.371253 340.984576,502.221614 C334.692922,513.334842 327.709186,524.06921 320.72545,534.551005 C317.64254,539.286755 325.192524,543.706789 328.275435,538.971039 C334.567089,529.120677 340.858743,518.9546 347.150397,508.851665 C353.44205,498.74873 356.776627,488.898369 362.879531,479.553155 C368.982436,470.20794 375.840338,459.663002 382.572408,449.938928 C389.454572,440.920157 395.758921,431.471725 401.44737,421.650711 C404.089864,416.599243 396.53988,412.17921 393.897385,417.230677 L394.274884,417.230677 Z M481.453155,113.432641 C478.717123,128.144285 478.908009,143.168944 474.708519,157.69278 C472.926917,163.953055 469.872743,169.712507 468.345655,175.910179 C466.285394,183.683964 464.943731,191.625104 464.337051,199.636618 C462.543111,213.984984 459.908744,228.219489 456.4471,242.269087 C453.011154,257.669362 453.138411,273.132239 450.084236,288.532514 C449.066178,294.041556 457.592416,296.357857 458.610474,290.848816 C461.346505,276.011966 461.219248,261.175115 464.337051,246.338265 C467.882613,232.325269 470.665026,218.135976 472.672403,203.831002 C473.409099,195.92136 474.620153,188.061454 476.299235,180.292371 C478.091504,173.928902 480.215264,167.660346 482.662099,161.511548 C487.879647,146.674697 487.116104,130.710998 489.915764,115.435928 C490.933822,109.98949 482.407584,107.610586 481.389526,113.18223 L481.453155,113.432641 Z M481.50363,113.394892 C478.783757,128.280964 478.910263,143.229846 475.178343,157.927486 C473.660275,164.208529 471.383171,170.489572 469.80185,176.456563 C467.904264,184.370677 466.639207,192.410412 464.741621,200.324526 C461.536986,214.235975 459.213163,228.333121 457.783805,242.533134 C456.139231,258.424173 450.130209,272.996192 447.094071,288.573179 C446.018772,294.037686 454.494656,296.361672 455.569955,290.834354 C458.479587,276.073904 463.85608,262.129988 466.006678,246.867054 C468.157275,231.60412 469.548838,218.099877 472.90124,203.7791 C476.253642,189.458322 479.226527,175.702838 483.211457,161.758922 C487.512652,146.495988 487.133135,130.919002 489.916261,115.467636 C490.928307,110.003129 482.452423,107.616333 481.440377,113.14365 L481.50363,113.394892 Z M399.214291,561.111183 C396.695295,576.377775 393.465813,591.458943 390.107151,606.601918 C388.944537,612.041028 397.59955,614.327926 398.826754,608.888817 C402.120826,593.745841 405.285719,578.664673 407.933894,563.398082 C408.838149,557.958972 400.183136,555.672074 399.214291,561.111183 Z M420.160112,449.574086 C416.63287,465.482193 410.476229,479.812114 409.321858,496.414622 C407.910961,514.216551 405.217431,531.892225 402.074979,549.504771 C401.113004,554.996855 409.706648,557.395697 410.732755,551.840485 C413.977311,535.136746 416.353277,518.280826 417.851372,501.33856 C418.231984,493.032465 419.456595,484.784759 421.506877,476.718871 C423.815618,468.259799 426.95807,460.179491 428.88202,451.467908 C430.100522,445.975824 421.506877,443.64011 420.288375,449.132194 L420.160112,449.574086 Z M336.725867,215.424915 C344.678562,228.916431 353.335562,241.996971 362.662391,254.61444 C373.679119,268.191913 383.940414,282.571691 393.698086,297.074901 C396.78277,301.703585 404.40005,297.074901 401.252414,292.754796 C392.061315,279.115607 382.366595,265.229555 372.105301,252.516103 C362.042268,239.194266 352.752524,225.327401 344.280195,210.981379 C341.195511,206.352695 333.641184,210.6728 336.725867,215.363199 L336.725867,215.424915 Z M308.754606,170.312184 C314.254104,178.195349 320.866595,185.209503 326.366093,193.092668 C329.574133,197.686008 337.496028,193.092668 334.222518,188.685544 C328.72302,180.864452 322.110529,173.788226 316.676501,165.967133 C313.402991,161.373793 305.546566,165.656772 308.754606,170.312184 Z M551.699879,538.38708 C559.880815,551.314476 569.320357,563.247458 576.87199,576.858514 C579.577992,581.768439 587.129625,577.355722 584.423623,572.445797 C577.123711,559.021193 567.621239,546.96391 559.251512,534.036514 C556.230859,529.313042 548.679225,533.663608 551.699879,538.38708 L551.699879,538.38708 Z M479.722668,428.365695 C489.938739,443.696779 500.468186,458.714984 510.308205,474.296371 C515.447578,482.639819 520.524276,490.837255 525.538298,498.888682 C530.364295,506.835815 536.443797,513.531431 541.708521,521.10311 C544.842285,525.671147 552.425994,521.10311 549.229554,516.7228 C544.466233,509.902032 538.888133,503.832174 534.438188,496.761103 C529.298815,488.563666 524.472819,480.241078 519.27077,472.106217 C508.803998,455.899071 497.961175,440.004804 487.243702,423.92281 C484.172613,419.292196 476.65158,423.92281 479.722668,428.365695 L479.722668,428.365695 Z M381.057541,515.755948 C385.803139,505.592859 390.105815,495.3043 394.471765,485.015742 C398.837716,474.727183 401.874899,463.874008 406.557222,453.648184 C408.898384,448.56664 401.305427,444.175182 398.964265,449.256726 C394.851413,458.290583 391.81423,467.638115 388.397399,476.922912 C383.968174,488.591643 378.716379,500.009434 373.464583,511.36449 C371.060147,516.383299 378.653104,520.837492 381.057541,515.755948 L381.057541,515.755948 Z M366.127228,548.775475 C367.930175,544.922185 369.670952,541.068894 371.411728,537.098838 C372.189128,535.847339 372.196495,534.301435 371.431056,533.043452 C370.665617,531.78547 369.24366,531.006525 367.700821,531 C366.157983,530.993556 364.728657,531.760516 363.951258,533.012014 C362.210481,536.806922 360.469705,540.660212 358.666758,544.688652 C358.033284,545.65283 357.841066,546.816311 358.133666,547.915413 C358.426266,549.014514 359.17891,549.95617 360.221022,550.526971 C361.250144,551.03737 362.454087,551.13941 363.563893,550.810295 C364.673698,550.48118 365.59689,549.748335 366.127228,548.775475 Z M511.532362,209.680555 C515.885015,198.91655 518.329656,187.46415 522.622683,176.700145 C524.709571,171.568468 517.554526,167.125187 515.467638,172.319445 C511.114985,183.08345 508.670344,194.53585 504.377317,205.299855 C502.290429,210.431532 509.445474,214.874813 511.532362,209.680555 Z M481.157246,274.54432 C484.450412,267.12913 487.614434,259.713941 490.520169,252.234828 C494.07268,245.320397 496.886055,238.057588 498.914515,230.564576 C499.947665,225.003184 491.295032,222.574071 490.261882,228.199387 C488.501356,234.822885 486.056241,241.249212 482.965258,247.3766 C479.801236,254.983562 476.50807,262.654447 473.408619,270.197485 C471.148603,275.375332 478.89723,279.91394 481.157246,274.672168 L481.157246,274.54432 Z M563.766903,278.421082 L519.858595,304.966644 C517.980702,306.308145 517.445185,308.848044 518.623875,310.822785 C519.802565,312.797527 522.306209,313.55497 524.396426,312.569191 L568.240821,285.960275 C570.034572,284.602644 570.527392,282.133261 569.390233,280.200882 C568.253074,278.268503 565.842028,277.478237 563.766903,278.357728 L563.766903,278.421082 Z M611.409048,251.559016 C603.207699,256.043642 593.996953,258.521988 586.174129,263.360663 C584.821793,264.098519 583.993037,265.455141 584,266.919502 C584.007051,268.383863 584.848757,269.733492 586.208099,270.459996 C587.567442,271.186501 589.237904,271.179507 590.590239,270.441651 C598.728501,265.898017 607.939246,263.419671 615.825158,258.640004 C617.915687,257.499377 618.621816,254.989583 617.402341,253.034222 C616.182865,251.078861 613.499577,250.418389 611.409048,251.559016 L611.409048,251.559016 Z M276.714782,457.803006 C273.883241,459.728333 271.641604,462.33684 268.869053,464.013737 C267.034309,465.277559 266.457594,467.830705 267.555519,469.828821 C268.653443,471.826938 271.043164,472.573289 272.998384,471.528722 C275.829925,469.603396 278.071562,466.994888 280.844113,465.317991 C281.859197,464.736535 282.596416,463.733861 282.87669,462.553533 C283.156963,461.373205 282.954642,460.123234 282.318874,459.107259 C281.147252,457.09309 278.676315,456.408487 276.714782,457.554577 L276.714782,457.803006 Z M344.572277,416.600261 C329.191053,426.231271 313.440679,435.1653 298.12098,444.79631 C296.082224,446.021094 295.393584,448.716063 296.582858,450.815691 C297.772132,452.91532 300.388967,453.624523 302.427723,452.399739 C317.808947,442.768729 333.559321,433.8347 348.87902,424.20369 C350.917776,422.978906 351.606416,420.283937 350.417142,418.184309 C349.227868,416.08468 346.611033,415.375477 344.572277,416.600261 L344.572277,416.600261 Z M290.064768,300.875123 C304.337784,306.61263 318.293622,313.115138 332.24946,319.553895 C337.387746,321.912648 341.891675,314.262639 336.689954,311.903886 C322.036324,305.146378 307.382694,298.32512 292.285015,292.332613 C287.019858,290.228861 284.736175,298.707621 289.937897,300.875123 L290.064768,300.875123 Z M253.468844,286.107246 C257.135631,287.712572 259.683738,290.804311 263.350524,292.469093 C265.417083,293.566267 268.020319,292.910883 269.254673,290.98268 C269.944155,290.015351 270.168764,288.812281 269.87194,287.676421 C269.575116,286.540561 268.785144,285.580148 267.70095,285.037029 C264.096312,283.372246 261.486056,280.280507 257.881419,278.615725 C255.735559,277.388305 252.956165,278.053051 251.666526,280.102138 C251.033272,281.084041 250.841121,282.268912 251.133619,283.38822 C251.426118,284.507527 252.178499,285.466495 253.220249,286.047789 L253.468844,286.107246 Z M604.323669,433.79604 C611.217538,436.918317 616.466999,442.428217 623.297622,445.550494 C628.420589,447.876897 632.847845,440.530363 627.724878,438.20396 C620.831008,435.081683 615.581548,429.510561 608.750924,426.449506 C603.627957,424.123103 599.137455,431.469637 604.260422,433.79604 L604.323669,433.79604 Z M530.537016,401.005755 C539.786899,405.188354 547.934147,411.272134 557.000258,415.834969 C566.066368,420.397803 576.173856,423.883302 585.852542,427.685665 C590.998172,429.713591 593.203443,421.348394 588.11907,419.193722 C578.317869,415.327987 568.455411,411.779115 559.021755,407.089535 C550.690735,402.906936 543.339834,397.203393 534.518754,393.40103 C529.556896,391.182986 525.207613,398.78771 530.230728,401.005755 L530.537016,401.005755 Z" id="Shape" fill="#FFFFFF" fill-rule="nonzero"></path>
        <path d="M443.689453,313.178627 C443.298465,312.320062 442.417239,311.84977 441.536013,312.043154 C440.609672,312.243311 439.963039,313.09435 439.963039,314.112438 L439.961535,348.79664 L415.075164,347.281172 C414.421011,347.250321 413.778889,347.557327 413.387901,348.124687 C412.948792,348.763532 412.87661,349.60479 413.20143,350.324148 L439.314901,407.822389 C439.647241,408.553035 440.335981,409 441.07585,409 C441.205177,409 441.336007,408.986456 441.466838,408.957862 C442.393178,408.757706 443.039812,407.906666 443.039812,406.887826 L443.042819,372.202871 L467.920167,373.70931 C468.584847,373.748438 469.21945,373.435412 469.611941,372.865794 C470.052555,372.226197 470.123233,371.383435 469.796909,370.665581 L469.796909,370.666334 L443.689453,313.178627 Z" id="Path" fill="#FFFFFF" fill-rule="nonzero"></path>
    </g>
</svg>