<?xml version="1.0" encoding="UTF-8"?>
<svg width="900px" height="1200px" viewBox="0 0 900 1200" version="1.1" xmlns="http://www.w3.org/2000/svg" xmlns:xlink="http://www.w3.org/1999/xlink">
    <title>Black Out</title>
    <defs>
        <linearGradient x1="64.9391821%" y1="52.059706%" x2="38.1559011%" y2="99.3451819%" id="linearGradient-1">
            <stop stop-color="#161903" offset="0%"></stop>
            <stop stop-color="#4B5605" offset="100%"></stop>
        </linearGradient>
    </defs>
    <g id="Black-Out" stroke="none" stroke-width="1" fill="none" fill-rule="evenodd">
        <rect id="Rectangle" fill="#000000" x="0" y="0" width="900" height="1200"></rect>
        <rect id="Rectangle" fill="url(#linearGradient-1)" x="42" y="41" width="816" height="1110"></rect>
        <rect id="Rectangle" fill="#A0B51B" x="675" y="72" width="125" height="50" rx="5"></rect>
        <circle id="Oval" fill="#FFFFFF" cx="703.5" cy="96.5" r="8.5"></circle>
        <text id="EVENT" font-family="AvenirNextCondensed-DemiBold, Avenir Next Condensed" font-size="23" font-style="condensed" font-weight="500" letter-spacing="0.598" fill="#FFFFFF">
            <tspan x="721" y="105">EVENT</tspan>
        </text>
        <rect id="Rectangle" stroke="#000000" stroke-width="10" fill-opacity="0.4" fill="#000000" x="106" y="652" width="688" height="433" rx="15"></rect>
        <text id="Let-there-be-dark.-A" font-family="AvenirNextCondensed-Regular, Avenir Next Condensed" font-size="32" font-style="condensed" font-weight="normal" letter-spacing="0.832" fill="#FFFFFF">
            <tspan x="148" y="832">Let there be dark. All powerups are deactivated this </tspan>
            <tspan x="148" y="876">round (including traps).</tspan>
        </text>
        <text id="BLACK-OUT" font-family="AvenirNextCondensed-Regular, Avenir Next Condensed" font-size="80" font-style="condensed" font-weight="normal" letter-spacing="-4" fill="#FFFFFF">
            <tspan x="148" y="775">BLACK OUT</tspan>
        </text>
        <path d="M661.20703,281.308375 C664.963542,281.308375 668,278.277156 668,274.527125 C668,270.777094 664.963542,267.745875 661.20703,267.745875 L487.395301,267.745875 L486.695625,260.923938 L552.410819,260.923938 L552.410819,260.9375 C552.410819,264.687531 555.447277,267.71875 559.203789,267.71875 C562.960302,267.71875 565.996759,264.687531 565.996759,260.9375 L565.996759,254.142687 C565.996759,254.129125 565.989966,254.115563 565.989966,254.102 C565.983173,253.267906 565.799763,252.467719 565.507665,251.701437 C565.161224,250.813094 564.67213,249.999344 564.006419,249.341563 C563.999626,249.334781 563.992833,249.328 563.98604,249.321219 C563.361087,248.704125 562.620653,248.215875 561.798704,247.876812 C561.778325,247.870031 561.771532,247.856469 561.757946,247.849688 L482.083198,215.570938 L477.660975,172.082781 C477.620217,171.69625 477.436807,171.377531 477.341705,171.018125 C477.233018,170.631594 477.171881,170.251844 477.002057,169.899219 C476.764303,169.390625 476.431447,168.970188 476.085006,168.54975 C475.894802,168.312406 475.738564,168.068281 475.521189,167.851281 C475.13399,167.491875 474.685654,167.240969 474.223732,166.983281 C473.904462,166.800187 473.619157,166.59675 473.265923,166.467906 C472.858345,166.3255 472.416802,166.278031 471.975259,166.210219 C471.608438,166.155969 471.282376,166 470.895176,166 L443.736881,166 C443.342889,166 443.016827,166.155969 442.643213,166.217 C442.222049,166.291594 441.807678,166.3255 441.413686,166.461125 C441.006107,166.610312 440.659666,166.847656 440.292846,167.071438 C439.89206,167.302 439.511654,167.512219 439.172005,167.817375 C438.886701,168.075063 438.689705,168.387 438.451951,168.692156 C438.159853,169.071906 437.867755,169.431312 437.657173,169.872094 C437.480556,170.251844 437.39904,170.658719 437.290353,171.079156 C437.195251,171.425 437.018634,171.723375 436.977876,172.089562 L432.555652,215.577719 L352.860526,247.856469 C352.84694,247.86325 352.840147,247.876812 352.819768,247.883594 C351.04001,248.615969 349.708588,250.101063 349.063256,251.938781 C348.825502,252.63725 348.635299,253.349281 348.628506,254.095219 C348.628506,254.115563 348.621713,254.129125 348.621713,254.142687 L348.621713,260.9375 C348.621713,264.687531 351.65817,267.71875 355.414683,267.71875 C359.171195,267.71875 362.207653,264.687531 362.207653,260.9375 L362.207653,260.923937 L427.936433,260.923937 L427.236757,267.745875 L240.042877,267.745875 C236.286364,267.745875 233.249907,270.777094 233.249907,274.527125 C233.249907,278.277156 236.286364,281.308375 240.042877,281.308375 L425.857784,281.308375 L424.988284,289.859531 L305.826,329.163656 C305.737692,329.190781 305.683348,329.265375 305.595039,329.299281 C305.119531,329.475594 304.718746,329.753625 304.304375,330.031656 C303.978312,330.241875 303.625078,330.418187 303.346566,330.675875 C303.020504,330.981031 302.796336,331.360781 302.538203,331.720187 C302.286863,332.066031 302.008351,332.377969 301.831734,332.7645 C301.668702,333.130687 301.614359,333.524 301.505671,333.924094 C301.383398,334.392 301.240745,334.839562 301.220366,335.327812 C301.220366,335.429531 301.166023,335.504125 301.166023,335.599062 L301.166023,342.3125 C301.166023,346.062531 304.20248,349.09375 307.958993,349.09375 C311.688334,349.09375 314.697619,346.096437 314.738377,342.380313 L419.642216,342.380313 L418.962919,349.09375 L307.958993,349.09375 L238.79297,349.09375 C235.036458,349.09375 232,352.124969 232,355.875 C232,359.625031 235.036458,362.65625 238.79297,362.65625 L417.577153,362.65625 L416.58538,372.387344 L351.90951,411.243906 C351.685342,411.386313 351.549483,411.603313 351.338901,411.759281 C350.958494,412.050875 350.612053,412.34925 350.299576,412.715438 C350.021064,413.047719 349.803689,413.393563 349.593107,413.75975 C349.382525,414.1395 349.192322,414.505688 349.056463,414.926125 C348.907017,415.366906 348.839088,415.814469 348.777951,416.282375 C348.750779,416.546844 348.628506,416.777406 348.628506,417.048656 L348.628506,423.6875 C348.628506,427.437531 351.664963,430.46875 355.421476,430.46875 C359.123645,430.46875 362.098965,427.505344 362.187274,423.829906 L411.354792,423.829906 L410.675495,430.46875 L355.414683,430.46875 L240.042877,430.46875 C236.286364,430.46875 233.249907,433.499969 233.249907,437.25 C233.249907,441.000031 236.286364,444.03125 240.042877,444.03125 L409.296522,444.03125 L396.865387,566.09375 L375.902281,566.09375 C372.145768,566.09375 369.109311,569.124969 369.109311,572.875 L369.109311,586.4375 L348.743986,586.4375 C344.987474,586.4375 341.951016,589.468719 341.951016,593.21875 C341.951016,596.968781 344.987474,600 348.743986,600 L375.902281,600 L538.933566,600 L565.894865,600 C569.651377,600 572.687835,596.968781 572.687835,593.21875 C572.687835,589.468719 569.651377,586.4375 565.894865,586.4375 L545.726536,586.4375 L545.726536,572.875 C545.726536,569.124969 542.690079,566.09375 538.933566,566.09375 L517.773464,566.09375 L505.342328,444.03125 L661.20703,444.03125 C664.963542,444.03125 668,441.000031 668,437.25 C668,433.499969 664.963542,430.46875 661.20703,430.46875 L559.203789,430.46875 L503.956562,430.46875 L503.277265,423.829906 L552.431198,423.829906 C552.526299,427.505344 555.50162,430.46875 559.203789,430.46875 C562.960302,430.46875 565.996759,427.437531 565.996759,423.6875 L565.996759,417.048656 C565.996759,416.770625 565.867693,416.540062 565.840521,416.275594 C565.786177,415.814469 565.718248,415.366906 565.568802,414.926125 C565.42615,414.498906 565.235947,414.132719 565.018572,413.746188 C564.814783,413.38 564.597407,413.040938 564.318896,412.715438 C564.006419,412.34925 563.653185,412.050875 563.279571,411.759281 C563.068989,411.603313 562.93313,411.37275 562.702169,411.237125 L498.053471,372.455156 L497.061698,362.757969 L661.200237,362.757969 C664.956749,362.757969 667.993207,359.72675 667.993207,355.976719 C667.993207,352.226688 664.956749,349.195469 661.200237,349.195469 L495.689518,349.195469 L494.989842,342.373531 L600.02954,342.373531 C600.070298,346.089656 603.079584,349.086969 606.808924,349.086969 C610.565437,349.086969 613.601895,346.05575 613.601895,342.305719 L613.601895,335.592281 C613.601895,335.497344 613.547551,335.42275 613.547551,335.321031 C613.527172,334.832781 613.391312,334.385219 613.262246,333.917313 C613.153559,333.524 613.106008,333.123906 612.936183,332.757719 C612.759566,332.364406 612.481054,332.052469 612.229715,331.713406 C611.964789,331.347219 611.740621,330.97425 611.414558,330.669094 C611.136046,330.411406 610.782812,330.241875 610.456749,330.024875 C610.035585,329.746844 609.641593,329.462031 609.166085,329.2925 C609.077776,329.258594 609.023433,329.184 608.935124,329.156875 L489.636981,289.85275 L488.767481,281.301594 L661.20703,281.301594 L661.20703,281.308375 Z M493,458 L440,458 L490.043692,429 L493,458 Z M450.379626,179 L464.015757,179 L465,189.755271 L448,205 L450.379626,179 Z M468,213 L458,213 L467.244629,206 L468,213 Z M457,227 L444,239 L445.127823,227 L457,227 Z M470.642913,235 L472,248 L455,248 L470.642913,235 Z M442.736314,261 L461,261 L441,278 L442.736314,261 Z M434.066859,342 L464,342 L432,362 L434.066859,342 Z M427,405 L429.2323,385 L466,385.074953 L427,405 Z M485.672767,388 L488,410 L445,410 L485.672767,388 Z M424.898553,423 L471,423 L422,451 L424.898553,423 Z M420.524517,473 L476,473 L417,507 L420.524517,473 Z M497,512 L433,512 L493.389196,475 L497,512 Z M413.642613,525 L478,525 L410,562 L413.642613,525 Z M484,370 L446,369.919951 L481.690074,348 L484,370 Z M447,328 L476.803922,308 L479,328 L447,328 Z M434,321 L436.062043,302 L462,302 L434,321 Z M450,288 L473.920813,268 L476,288 L450,288 Z M523,247 L484.646667,247 L483,231 L523,247 Z M391,247 L431,231 L429.353608,247 L391,247 Z M350,330 L423,306 L420.551788,330 L350,330 Z M379,409 L416,389 L413.738211,409 L379,409 Z M532,587 L382,587 L382,580 L532,580 L532,587 Z M431,567 L500.289733,529 L504,567 L431,567 Z M535,409 L500.258554,409 L498,389 L535,409 Z M564,330 L493.445493,330 L491,306 L564,330 Z" id="Shape" fill="#FFFFFF" fill-rule="nonzero"></path>
    </g>
</svg>