<?xml version="1.0" encoding="UTF-8"?>
<svg width="900px" height="1200px" viewBox="0 0 900 1200" version="1.1" xmlns="http://www.w3.org/2000/svg" xmlns:xlink="http://www.w3.org/1999/xlink">
    <title>Booster II</title>
    <defs>
        <linearGradient x1="65.0390187%" y1="51.8834459%" x2="37.7850012%" y2="100%" id="linearGradient-1">
            <stop stop-color="#091A0A" offset="0%"></stop>
            <stop stop-color="#1A4E1C" offset="100%"></stop>
        </linearGradient>
        <rect id="path-2" x="148" y="695" width="172" height="172" rx="8"></rect>
        <filter x="-7.6%" y="-7.6%" width="115.1%" height="115.1%" filterUnits="objectBoundingBox" id="filter-3">
            <feMorphology radius="12" operator="erode" in="SourceAlpha" result="shadowSpreadInner1"></feMorphology>
            <feGaussianBlur stdDeviation="7" in="shadowSpreadInner1" result="shadowBlurInner1"></feGaussianBlur>
            <feOffset dx="0" dy="0" in="shadowBlurInner1" result="shadowOffsetInner1"></feOffset>
            <feComposite in="shadowOffsetInner1" in2="SourceAlpha" operator="arithmetic" k2="-1" k3="1" result="shadowInnerInner1"></feComposite>
            <feColorMatrix values="0 0 0 0 0   0 0 0 0 0   0 0 0 0 0  0 0 0 0.3 0" type="matrix" in="shadowInnerInner1"></feColorMatrix>
        </filter>
    </defs>
    <g id="Booster-II" stroke="none" stroke-width="1" fill="none" fill-rule="evenodd">
        <rect id="Rectangle" fill="#000000" x="0" y="0" width="900" height="1200"></rect>
        <rect id="Rectangle" fill="url(#linearGradient-1)" x="42" y="41" width="816" height="1110"></rect>
        <rect id="Rectangle" fill="#2988FF" x="652" y="72" width="148" height="50" rx="5"></rect>
        <circle id="Oval" fill="#FFFFFF" cx="677.5" cy="97.5" r="8.5"></circle>
        <text id="UPGRADE" font-family="AvenirNextCondensed-DemiBold, Avenir Next Condensed" font-size="23" font-style="condensed" font-weight="500" letter-spacing="0.598" fill="#FFFFFF">
            <tspan x="695" y="106">UPGRADE</tspan>
        </text>
        <rect id="Rectangle" stroke="#000000" stroke-width="10" fill-opacity="0.4" fill="#000000" x="106" y="652" width="688" height="433" rx="15"></rect>
        <text id="Speed-Slot" font-family="AvenirNextCondensed-Italic, Avenir Next Condensed" font-size="44" font-style="italic" font-weight="normal" letter-spacing="1.144" fill="#FFFFFF">
            <tspan x="355" y="840">Speed Slot</tspan>
        </text>
        <text id="Equip-to-an-empty-up" font-family="AvenirNextCondensed-Regular, Avenir Next Condensed" font-size="32" font-style="condensed" font-weight="normal" letter-spacing="0.832" fill="#FFFFFF">
            <tspan x="148" y="921">Equip to an empty upgrade slot to add +2 to lizard </tspan>
            <tspan x="148" y="965">speed. </tspan>
        </text>
        <text id="BOOSTER-II" font-family="AvenirNextCondensed-Regular, Avenir Next Condensed" font-size="80" font-style="condensed" font-weight="normal" letter-spacing="-4" fill="#FFFFFF">
            <tspan x="351" y="781">BOOSTER II</tspan>
        </text>
        <text id="II" font-family="AvenirNextCondensed-Heavy, Avenir Next Condensed" font-size="55" font-style="condensed" font-weight="600" letter-spacing="1.43" fill="#FFFFFF">
            <tspan x="107" y="114">II</tspan>
        </text>
        <g id="Rectangle">
            <use fill="#2D7C30" fill-rule="evenodd" xlink:href="#path-2"></use>
            <use fill="black" fill-opacity="1" filter="url(#filter-3)" xlink:href="#path-2"></use>
            <rect stroke="#38BB3D" stroke-width="3" stroke-linejoin="square" x="149.5" y="696.5" width="169" height="169" rx="8"></rect>
        </g>
        <path d="M280.184763,828.49187 L275.751116,824.100187 C274.919807,823.276747 275.19691,821.629866 276.582425,821.355386 L300.136172,815.042342 C301.521686,814.767861 302.630098,815.865782 302.352995,817.238183 L295.979628,840.568998 C295.702525,841.941399 294.039908,842.215879 293.208599,841.392438 L288.774953,837.000756 L282.124483,843.58828 C281.570277,844.13724 280.461865,844.13724 279.630557,843.58828 L273.811396,837.824196 C273.25719,837.275236 273.25719,836.177315 273.811396,835.353875 L280.461865,828.76635 L280.184763,828.49187 Z" id="Path" fill="#FFFFFF" transform="translate(287.895741, 829.500000) rotate(-45.000000) translate(-287.895741, -829.500000) "></path>
        <text id="S" font-family="AvenirNextCondensed-Regular, Avenir Next Condensed" font-size="72" font-style="condensed" font-weight="normal" letter-spacing="1.872" fill="#FFFFFF">
            <tspan x="217.94" y="804">S</tspan>
        </text>
        <g id="Group-2" transform="translate(663.000000, 728.000000)">
            <rect id="Rectangle" x="0" y="0" width="69" height="68"></rect>
            <path d="M34.5345086,0.302892496 L49,8.50070783 L48.9989432,8.50249006 L63.4613135,16.6985074 L64,17.0037998 L64,17.6043693 L64,34 L64,50.3956307 L64,50.9962002 L63.4613135,51.3014926 L48.9989432,59.4975099 L49,59.4992922 L34.5345086,67.6971075 L34,68 L33.4654914,67.6971075 L19,59.4992922 L19.0010568,59.4975099 L4.53868647,51.3014926 L4,50.9962002 L4,50.3956307 L4,34 L4,17.6043693 L4,17.0037998 L4.53868647,16.6985074 L19.0010568,8.50249006 L19,8.50070783 L33.4654914,0.302892496 L34,0 L34.5345086,0.302892496 Z M33.999974,3.63492545 L23.3857873,9.65013366 L23.3868409,9.65194099 L7.20692923,18.8212576 L7.20692923,49.1787288 L23.3868409,58.3480454 L23.3857873,58.3498277 L34.000026,64.3650614 L44.6142127,58.3498532 L44.6131591,58.3480459 L60.7930708,49.1787292 L60.7930708,18.821258 L44.6131591,9.6519414 L44.6142127,9.65015917 L33.999974,3.63492545 Z" id="Shape" fill="#38BB3D" fill-rule="nonzero"></path>
        </g>
        <g id="Group-2" transform="translate(631.000000, 783.000000)">
            <rect id="Rectangle" x="0" y="0" width="69" height="68"></rect>
            <path d="M34.5345086,0.302892496 L49,8.50070783 L48.9989432,8.50249006 L63.4613135,16.6985074 L64,17.0037998 L64,17.6043693 L64,34 L64,50.3956307 L64,50.9962002 L63.4613135,51.3014926 L48.9989432,59.4975099 L49,59.4992922 L34.5345086,67.6971075 L34,68 L33.4654914,67.6971075 L19,59.4992922 L19.0010568,59.4975099 L4.53868647,51.3014926 L4,50.9962002 L4,50.3956307 L4,34 L4,17.6043693 L4,17.0037998 L4.53868647,16.6985074 L19.0010568,8.50249006 L19,8.50070783 L33.4654914,0.302892496 L34,0 L34.5345086,0.302892496 Z M33.999974,3.63492545 L23.3857873,9.65013366 L23.3868409,9.65194099 L7.20692923,18.8212576 L7.20692923,49.1787288 L23.3868409,58.3480454 L23.3857873,58.3498277 L34.000026,64.3650614 L44.6142127,58.3498532 L44.6131591,58.3480459 L60.7930708,49.1787292 L60.7930708,18.821258 L44.6131591,9.6519414 L44.6142127,9.65015917 L33.999974,3.63492545 Z" id="Shape" fill="#38BB3D" fill-rule="nonzero"></path>
        </g>
        <g id="noun_speed_3012394" transform="translate(677.000000, 745.000000)" fill="#FFFFFF" fill-rule="nonzero">
            <g id="Group">
                <g>
                    <path d="M19.21875,20.7825 L12.9833333,30.515 C12.3427083,31.535 12.6416667,32.895 13.6666667,33.575 C14.0510417,33.83 14.4354167,33.915 14.8625,33.915 C15.5885417,33.915 16.3145833,33.575 16.7416667,32.895 L22.8489583,23.3325 L21.1833333,22.5675 C20.371875,22.185 19.6885417,21.5475 19.21875,20.7825 Z" id="Path"></path>
                    <ellipse id="Oval" cx="34.1666667" cy="3.9525" rx="3.88645833" ry="3.8675"></ellipse>
                    <path d="M40.7010417,14.9175 C40.4447917,13.94 39.4197917,13.345 38.4375,13.6425 L35.7041667,14.4075 L34.3802083,11.4325 C33.9958333,10.54 33.3552083,9.775 32.5010417,9.265 L29.2979167,7.1825 C28.3583333,6.5875 27.2479167,6.29 26.1375,6.375 L21.4395833,6.7575 C20.9270833,6.8 20.5,7.0125 20.1583333,7.395 L16.9552083,11.135 C16.271875,11.9 16.4,13.09 17.16875,13.7275 C17.9375,14.4075 19.1333333,14.28 19.7739583,13.515 L22.4645833,10.37 L25.2833333,10.1575 L21.2260417,17.3825 C20.9270833,17.935 20.8416667,18.5725 21.0552083,19.125 C21.2260417,19.72 21.653125,20.1875 22.2083333,20.4425 L28.44375,23.375 L24.984375,28.05 C24.2583333,29.0275 24.471875,30.43 25.4541667,31.1525 C25.8385417,31.45 26.3083333,31.5775 26.778125,31.5775 C27.4614583,31.5775 28.1447917,31.28 28.571875,30.685 L33.6541667,23.8 C34.0385417,23.2475 34.1666667,22.5675 33.9958333,21.93 C33.825,21.2925 33.3979167,20.74 32.8,20.485 L28.44375,18.445 L31.4760417,14.025 L32.9708333,17.3825 C33.2697917,18.0625 33.953125,18.4875 34.6791667,18.4875 C34.85,18.4875 35.0208333,18.445 35.1916667,18.4025 L39.4625,17.2125 C40.4020833,16.915 41,15.895 40.7010417,14.9175 Z" id="Path"></path>
                    <path d="M8.92604167,19.55 L15.4177083,19.55 C16.3145833,19.55 17.040625,18.8275 17.040625,17.935 C17.040625,17.0425 16.3145833,16.32 15.4177083,16.32 L8.92604167,16.32 C8.02916667,16.32 7.303125,17.0425 7.303125,17.935 C7.303125,18.8275 8.02916667,19.55 8.92604167,19.55 Z" id="Path"></path>
                    <path d="M13.5385417,23.97 C13.5385417,23.0775 12.8125,22.355 11.915625,22.355 L5.38125,22.355 C4.484375,22.355 3.75833333,23.0775 3.75833333,23.97 C3.75833333,24.8625 4.484375,25.585 5.38125,25.585 L11.8729167,25.585 C12.8125,25.585 13.5385417,24.8625 13.5385417,23.97 Z" id="Path"></path>
                    <path d="M8.37083333,28.39 L1.83645833,28.39 C0.939583333,28.39 0.213541667,29.1125 0.213541667,30.005 C0.213541667,30.8975 0.939583333,31.62 1.83645833,31.62 L8.328125,31.62 C9.225,31.62 9.95104167,30.8975 9.95104167,30.005 C9.99375,29.1125 9.26770833,28.39 8.37083333,28.39 Z" id="Path"></path>
                </g>
            </g>
        </g>
        <g id="Group" transform="translate(308.000000, 120.000000)" fill="#FFFFFF" fill-rule="nonzero">
            <path d="M141,0 C97.98,24.9637647 69,71.1896471 69,124.246588 L69,304 L213,304 L213,124.246588 C213,71.1896471 184.02,24.9637647 141,0 Z M141,160.941176 C126.096,160.941176 114,148.924235 114,134.117647 C114,119.311059 126.096,107.294118 141,107.294118 C155.904,107.294118 168,119.311059 168,134.117647 C168,148.924235 155.904,160.941176 141,160.941176 Z" id="Shape"></path>
            <polygon id="Path" points="178.166667 320 106.833333 320 89 355 196 355"></polygon>
            <polygon id="Path" points="0 304 54 304 54 197 0 268.333333"></polygon>
            <polygon id="Path" points="232 197 232 304 286 304 286 268.333333"></polygon>
            <path d="M161.021384,411.390596 C147.135621,423.884522 143.771544,428.935258 143.682074,429.059311 C143.592604,428.935258 140.228527,423.884522 126.342764,411.390596 C107.33931,394.288981 107.894025,376 107.894025,376 C96.9070935,385.729313 90,398.382735 90,411.390596 C90,421.084465 90,437.991139 107.894025,455.978848 C126.772221,474.941261 140.604302,482.278119 143.682074,500 C150.857578,496.863227 161.611887,489.225096 158.748843,472.3007 C155.420554,452.647134 157.657308,447.70273 167.212717,447.70273 C169.950502,447.70273 177.662827,450.839503 173.493519,461.454909 C171.489389,466.541089 174.03034,472.052594 176.678656,474.834929 C180.597447,450.892668 227.569262,420.251536 179.488018,376 C179.470124,376 180.024838,394.288981 161.021384,411.390596 Z" id="Path"></path>
        </g>
        <g id="noun_speed_3012394" transform="translate(645.000000, 800.000000)" fill="#FFFFFF" fill-rule="nonzero">
            <g id="Group">
                <g>
                    <path d="M19.21875,20.7825 L12.9833333,30.515 C12.3427083,31.535 12.6416667,32.895 13.6666667,33.575 C14.0510417,33.83 14.4354167,33.915 14.8625,33.915 C15.5885417,33.915 16.3145833,33.575 16.7416667,32.895 L22.8489583,23.3325 L21.1833333,22.5675 C20.371875,22.185 19.6885417,21.5475 19.21875,20.7825 Z" id="Path"></path>
                    <ellipse id="Oval" cx="34.1666667" cy="3.9525" rx="3.88645833" ry="3.8675"></ellipse>
                    <path d="M40.7010417,14.9175 C40.4447917,13.94 39.4197917,13.345 38.4375,13.6425 L35.7041667,14.4075 L34.3802083,11.4325 C33.9958333,10.54 33.3552083,9.775 32.5010417,9.265 L29.2979167,7.1825 C28.3583333,6.5875 27.2479167,6.29 26.1375,6.375 L21.4395833,6.7575 C20.9270833,6.8 20.5,7.0125 20.1583333,7.395 L16.9552083,11.135 C16.271875,11.9 16.4,13.09 17.16875,13.7275 C17.9375,14.4075 19.1333333,14.28 19.7739583,13.515 L22.4645833,10.37 L25.2833333,10.1575 L21.2260417,17.3825 C20.9270833,17.935 20.8416667,18.5725 21.0552083,19.125 C21.2260417,19.72 21.653125,20.1875 22.2083333,20.4425 L28.44375,23.375 L24.984375,28.05 C24.2583333,29.0275 24.471875,30.43 25.4541667,31.1525 C25.8385417,31.45 26.3083333,31.5775 26.778125,31.5775 C27.4614583,31.5775 28.1447917,31.28 28.571875,30.685 L33.6541667,23.8 C34.0385417,23.2475 34.1666667,22.5675 33.9958333,21.93 C33.825,21.2925 33.3979167,20.74 32.8,20.485 L28.44375,18.445 L31.4760417,14.025 L32.9708333,17.3825 C33.2697917,18.0625 33.953125,18.4875 34.6791667,18.4875 C34.85,18.4875 35.0208333,18.445 35.1916667,18.4025 L39.4625,17.2125 C40.4020833,16.915 41,15.895 40.7010417,14.9175 Z" id="Path"></path>
                    <path d="M8.92604167,19.55 L15.4177083,19.55 C16.3145833,19.55 17.040625,18.8275 17.040625,17.935 C17.040625,17.0425 16.3145833,16.32 15.4177083,16.32 L8.92604167,16.32 C8.02916667,16.32 7.303125,17.0425 7.303125,17.935 C7.303125,18.8275 8.02916667,19.55 8.92604167,19.55 Z" id="Path"></path>
                    <path d="M13.5385417,23.97 C13.5385417,23.0775 12.8125,22.355 11.915625,22.355 L5.38125,22.355 C4.484375,22.355 3.75833333,23.0775 3.75833333,23.97 C3.75833333,24.8625 4.484375,25.585 5.38125,25.585 L11.8729167,25.585 C12.8125,25.585 13.5385417,24.8625 13.5385417,23.97 Z" id="Path"></path>
                    <path d="M8.37083333,28.39 L1.83645833,28.39 C0.939583333,28.39 0.213541667,29.1125 0.213541667,30.005 C0.213541667,30.8975 0.939583333,31.62 1.83645833,31.62 L8.328125,31.62 C9.225,31.62 9.95104167,30.8975 9.95104167,30.005 C9.99375,29.1125 9.26770833,28.39 8.37083333,28.39 Z" id="Path"></path>
                </g>
            </g>
        </g>
    </g>
</svg>