<?xml version="1.0" encoding="UTF-8"?>
<svg width="900px" height="1200px" viewBox="0 0 900 1200" version="1.1" xmlns="http://www.w3.org/2000/svg" xmlns:xlink="http://www.w3.org/1999/xlink">
    <title>Energy I</title>
    <defs>
        <linearGradient x1="65.0390187%" y1="51.8834459%" x2="37.8260031%" y2="99.9276118%" id="linearGradient-1">
            <stop stop-color="#220620" offset="0%"></stop>
            <stop stop-color="#560F52" offset="100%"></stop>
        </linearGradient>
    </defs>
    <g id="Energy-I" stroke="none" stroke-width="1" fill="none" fill-rule="evenodd">
        <rect id="Rectangle" fill="#000000" x="0" y="0" width="900" height="1200"></rect>
        <rect id="Rectangle" fill="url(#linearGradient-1)" x="42" y="41" width="816" height="1110"></rect>
        <text id="DISCARD" font-family="AvenirNextCondensed-DemiBold, Avenir Next Condensed" font-size="23" font-style="condensed" font-weight="500" letter-spacing="0.598" fill="#FFFFFF">
            <tspan x="566.672" y="106">DISCARD</tspan>
        </text>
        <rect id="Rectangle" fill="#F434FF" x="669" y="72" width="131" height="50" rx="5"></rect>
        <circle id="Oval" fill="#FFFFFF" cx="698.5" cy="97.5" r="8.5"></circle>
        <text id="AMMO" font-family="AvenirNextCondensed-DemiBold, Avenir Next Condensed" font-size="23" font-style="condensed" font-weight="500" letter-spacing="0.598" fill="#FFFFFF">
            <tspan x="716" y="106">AMMO</tspan>
        </text>
        <rect id="Rectangle" stroke="#000000" stroke-width="10" fill-opacity="0.4" fill="#000000" x="106" y="652" width="688" height="433" rx="15"></rect>
        <text id="Allows-one-lizard-to" font-family="AvenirNextCondensed-Regular, Avenir Next Condensed" font-size="32" font-style="condensed" font-weight="normal" letter-spacing="0.832" fill="#FFFFFF">
            <tspan x="147" y="839">Allows one lizard to attack using all its waves. </tspan>
            <tspan x="147" y="883">Discard after use.</tspan>
        </text>
        <text id="ENERGY-I" font-family="AvenirNextCondensed-Regular, Avenir Next Condensed" font-size="80" font-style="condensed" font-weight="normal" letter-spacing="-4" fill="#FFFFFF">
            <tspan x="148" y="775">ENERGY I</tspan>
        </text>
        <text id="I" font-family="AvenirNextCondensed-Heavy, Avenir Next Condensed" font-size="55" font-style="condensed" font-weight="600" letter-spacing="1.43" fill="#FFFFFF">
            <tspan x="107" y="114">I</tspan>
        </text>
        <path d="M569.257459,203.593352 L489.640776,203.593352 C490.034996,202.001803 490.287297,200.362981 490.287297,198.661127 L490.287297,193.728901 C490.287297,182.840187 481.440999,174 470.544756,174 L438.455244,174 C427.543232,174 418.712703,182.840187 418.712703,193.728901 L418.712703,198.645369 C418.712703,200.347223 418.949235,202.001803 419.359224,203.577594 L339.742541,203.577594 C328.846298,203.577594 320,212.417781 320,223.306495 L320,556.255341 C320,567.159813 328.846298,576 339.742541,576 L569.257459,576 C580.153702,576 589,567.159813 589,556.255341 L589,223.322253 C589,212.433538 580.169471,203.593352 569.257459,203.593352 Z M551,539 L357,539 L357,241 L551,241 L551,539 Z M387.996324,478 L526.003676,478 C534.25403,478 541,470.825038 541,462.008209 C541,453.19138 534.25403,446 526.003676,446 L387.996324,446 C379.730135,446 373,453.19138 373,462.008209 C373,470.825038 379.730135,478 387.996324,478 Z M387.996324,523 L526.003676,523 C534.25403,523 541,515.825038 541,507.008209 C541,498.19138 534.25403,491 526.003676,491 L387.996324,491 C379.730135,491 373,498.19138 373,507.008209 C373,515.825038 379.730135,523 387.996324,523 Z" id="Shape" fill="#FFFFFF" fill-rule="nonzero"></path>
    </g>
</svg>