<?xml version="1.0" encoding="UTF-8"?>
<svg width="900px" height="1200px" viewBox="0 0 900 1200" version="1.1" xmlns="http://www.w3.org/2000/svg" xmlns:xlink="http://www.w3.org/1999/xlink">
    <title>Fatality</title>
    <defs>
        <linearGradient x1="64.9391821%" y1="52.059706%" x2="38.1559011%" y2="99.3451819%" id="linearGradient-1">
            <stop stop-color="#190C03" offset="0%"></stop>
            <stop stop-color="#6E390F" offset="100%"></stop>
        </linearGradient>
    </defs>
    <g id="Fatality" stroke="none" stroke-width="1" fill="none" fill-rule="evenodd">
        <rect id="Rectangle" fill="#000000" x="0" y="0" width="900" height="1200"></rect>
        <rect id="Rectangle" fill="url(#linearGradient-1)" x="42" y="41" width="816" height="1110"></rect>
        <text id="DISCARD" font-family="AvenirNextCondensed-DemiBold, Avenir Next Condensed" font-size="23" font-style="condensed" font-weight="500" letter-spacing="0.598" fill="#FFFFFF">
            <tspan x="534.672" y="106">DISCARD</tspan>
        </text>
        <rect id="Rectangle" fill="#FF8429" x="637" y="72" width="163" height="50" rx="5"></rect>
        <circle id="Oval" fill="#FFFFFF" cx="664.5" cy="97.5" r="8.5"></circle>
        <text id="POWER-UP" font-family="AvenirNextCondensed-DemiBold, Avenir Next Condensed" font-size="23" font-style="condensed" font-weight="500" letter-spacing="0.598" fill="#FFFFFF">
            <tspan x="682" y="106">POWER UP</tspan>
        </text>
        <rect id="Rectangle" stroke="#000000" stroke-width="10" fill-opacity="0.4" fill="#000000" x="106" y="652" width="688" height="433" rx="15"></rect>
        <text id="Two-lizards-combine" font-family="AvenirNextCondensed-Regular, Avenir Next Condensed" font-size="32" font-style="condensed" font-weight="normal" letter-spacing="0.832" fill="#FFFFFF">
            <tspan x="148" y="832">Two lizards combine to attack at the same time. </tspan>
            <tspan x="148" y="876">Add the highest level attack slot for both lizards to </tspan>
            <tspan x="148" y="920">roll that many dice (six maximum). Combine total </tspan>
            <tspan x="148" y="964">value rolled for all attack dice regardless of how </tspan>
            <tspan x="148" y="1008">many defense dice are rolled. Must have ammo for </tspan>
            <tspan x="148" y="1052">each lizard used in attack. Discard after use.</tspan>
        </text>
        <text id="FATALITY" font-family="AvenirNextCondensed-Regular, Avenir Next Condensed" font-size="80" font-style="condensed" font-weight="normal" letter-spacing="-4" fill="#FFFFFF">
            <tspan x="148" y="775">FATALITY</tspan>
        </text>
        <g id="Group" transform="translate(292.000000, 209.000000)" fill="#FFFFFF" fill-rule="nonzero">
            <path d="M115.229071,284.028574 C113.461096,284.157099 111.881799,284.644738 110.281538,285.177739 L105.945459,286.701139 C105.917507,287.271941 105.914013,287.846523 105.788228,288.405985 C105.438826,290.246917 104.6946,291.913962 104.097122,293.248354 C103.890975,293.694412 103.698804,294.129129 103.534585,294.556285 C103.300486,295.127088 103.136267,295.614727 103,296.038103 C106.577877,296.858395 110.20467,297.519921 113.827969,298 C113.911825,297.73161 113.974717,297.48968 114.103996,297.172148 C114.495326,296.102366 115.239553,294.628108 116.336675,292.772056 L116.846802,291.879941 C117.556088,290.658953 118.289832,289.403944 118.740561,288.02797 C118.950202,287.355104 119.037553,286.825883 118.985142,286.512131 C118.929238,286.141677 118.761525,285.646477 118.188506,284.845086 C117.639945,284.092837 116.238843,283.92273 115.229071,284.028574 Z" id="Path"></path>
            <path d="M87.0359505,282.007286 C86.7160041,282.014363 86.4615889,282.035595 86.1686259,282.04975 C86.1917546,283.302456 85.9720323,284.633014 85.4593471,286.055579 C85.0738695,287.173814 84.5380556,288.306203 83.9945322,289.431515 C83.6206189,290.213572 83.2775439,290.942548 83,291.632598 C87.2826562,292.340341 91.2877685,293.122398 94.7763408,293.978768 C94.807179,293.985845 94.8380172,293.992923 94.8650007,294 C95.1194159,293.214405 95.4470718,292.368651 95.8903711,291.455662 C96.0908194,291.013322 96.3606538,290.496669 96.6459072,289.958784 C97.1971402,288.914863 97.7175349,287.92756 97.9488215,286.901332 C98.1723985,286.087427 97.6442942,284.965654 96.7384218,284.102207 C94.2520913,281.954205 89.7188746,281.975437 87.0359505,282.007286 Z" id="Path"></path>
            <path d="M71.4722004,278.02975 L70.3112304,278.052507 C68.9155963,278.113193 67.4129224,278.226979 65.9061316,278.344557 C65.2762436,278.397657 64.6381218,278.420414 64,278.458343 C64.4693283,281.17782 64.5228482,283.753168 64.5187313,285.839238 L64.436393,288.49803 C68.5574247,288.941794 72.649638,289.450036 76.6306947,290 C77.095906,288.494237 77.7340278,287.098466 78.3474481,285.824067 C78.8044257,284.860682 79.2778709,283.908675 79.6154579,282.914947 C80.0106817,281.815019 80.1012539,280.946456 79.8871743,280.438213 C79.6566271,279.884456 79.030856,279.30415 78.0016273,278.659364 C76.2848738,277.919758 73.9505831,277.972857 71.4722004,278.02975 Z" id="Path"></path>
            <path d="M123.174706,295.745696 C122.649372,296.603632 122.27726,297.253698 122,297.767704 C125.053506,297.968015 128.070531,298.043604 131,297.975574 L130.974463,295.881756 C130.86137,293.28905 130.740981,290.329737 129.748683,287.793722 C129.387515,286.901771 128.840292,286.319735 128.490069,286.183674 C128.034049,285.972025 127.523308,285.979584 127.027158,286.028717 C126.987029,287.385541 126.662343,288.621423 126.374139,289.513374 C125.615322,291.713017 124.546413,293.470464 123.692744,294.887759 L123.174706,295.745696 Z" id="Path"></path>
            <path d="M46.7306197,283.841318 C46.4534881,284.911216 46.1835547,285.951803 46,286.959413 C49.5019359,287.263528 53.1982238,287.607948 56.9520975,288 L56.998886,286.208286 C57.0060842,283.405297 57.0132824,279.917134 55.8183773,276.934607 C55.454867,276.069894 54.7278464,275.322431 54.0620107,275.175869 C52.9822771,274.908394 51.8269622,274.948699 50.5420792,275.278462 C49.4875394,275.523953 48.5193783,275.842724 47.5980057,276.253096 L47.5908075,276.253096 C47.8031551,277.689399 47.7815604,279.231959 47.4504421,280.833143 C47.2488918,281.833425 46.9897558,282.844699 46.7306197,283.841318 Z" id="Path"></path>
            <path d="M26.965479,255.474406 C28.6254513,257.2519 30.8374698,258.11852 33.7242115,258.11852 C33.7625481,258.11852 33.8008846,258.11852 33.8392212,258.11852 C37.2818428,258.089018 38.1559159,257.502666 39.4631921,257.093326 C40.3871027,254.371769 42.158251,251.554331 42.392104,251.170805 L45.5203659,246.011648 C45.5203659,246.011648 47.7400517,249.655141 48.0007402,251.133928 C48.2269258,252.402513 49.1240009,253.966117 49.4306933,259.490362 C50.9296521,260.674128 53.8508967,261.518622 57.7688914,261.857895 C62.974994,262.304112 65.7428924,261.625567 67.2035147,260.847453 C68.6219668,257.100702 69.2468524,254.493465 69.5382102,254.047248 L73,248.655762 C50.4006078,243.408099 30.7952997,241.239704 23.0014804,241 C22.9631439,245.340478 23.6532017,251.926793 26.965479,255.474406 Z" id="Path"></path>
            <path d="M22.2642128,284.965929 C25.5623002,285.133823 31.6262746,285.461978 39.0965007,286 C39.3528891,284.385934 39.7646644,282.863446 40.1453624,281.436352 C40.3900968,280.520569 40.6387158,279.604787 40.8368342,278.677557 C41.0116445,277.849538 41.135954,276.662836 40.720294,275.735607 C40.3551347,274.903771 39.6209315,274.083383 38.3933749,273.11418 C35.5031782,270.756041 30.9581109,270.359202 27.1239387,271.980899 C26.8869736,272.072478 26.6500086,272.156424 26.4208129,272.263266 C25.6244549,273.137075 23.6316177,275.55245 22.6177181,278.757688 C22.0272478,280.608332 21.76309,282.729894 22.2642128,284.965929 Z" id="Path"></path>
            <path d="M305.164865,92.5628318 C274.808491,31.864297 235.174773,16.997653 235.174773,16.997653 C235.174773,16.997653 183.765821,-10.8725808 124.311466,2.7507674 C64.8571117,16.3816736 59.2831478,65.9245569 52.4696856,73.9814163 C52.4696856,73.9814163 51.3775666,88.5684133 36.5149226,99.7202858 C21.6484997,110.868379 22.1246484,125.697233 19.6456516,140.250219 C17.1666548,154.806984 -6.00591897,181.188286 1.48397687,203.091455 C7.25066761,219.957198 20.5752754,204.667304 23.0504933,218.600532 C24.2068546,225.111774 22.5403339,228.928579 20.6508546,232.318355 C31.1790331,231.985802 69.8793476,236.702012 106.077992,249.947459 C143.236491,263.544354 150.015943,256.247077 155.518106,244.441434 C161.250786,232.121846 173.305664,230.406174 183.119619,229.287585 C186.664283,228.890789 193.628903,227.662609 203.760291,227.243138 C206.103245,227.148663 208.858106,227.360288 211.733894,227.643714 C214.621018,227.881792 217.700869,228.093417 220.754268,228.448644 C232.990535,229.710835 245.083203,231.604121 245.083203,231.604121 C245.083203,231.604121 232.82804,231.562552 220.656015,232.163416 C217.610174,232.26167 214.587007,232.533759 211.756567,232.718931 C208.911011,232.87387 206.329983,233.285783 204.096618,233.497408 C201.829243,233.686358 200.155165,234.196525 198.90055,234.374139 C197.672389,234.608438 196.969502,234.736925 196.969502,234.736925 C194.736138,235.265987 192.816427,238.134259 190.84759,240.896719 C181.959479,253.325898 186.259934,268.385272 170.520572,290.114607 C162.282442,301.489441 146.002689,305.147527 129.424397,305.147527 C116.213158,305.147527 102.809192,302.819654 93.1539533,300.219692 C69.6677259,293.8974 19.8421575,291.667782 19.339556,291.645108 L17.9224465,291.584643 C17.7410565,293.24741 17.4160661,294.93285 16.5431267,296.629628 C10.039539,309.323339 -0.488639491,336.267714 8.80381957,341.841761 C18.0924997,347.415807 78.2724145,357.638042 118.170659,357.947921 C158.068903,358.254022 190.892937,357.947921 202.34696,335.341855 C213.804763,312.73201 213.181235,318.313615 225.886093,316.76044 C238.579615,315.214823 271.097553,312.73201 285.340448,274.33722 C299.590901,235.94243 335.509902,153.253809 305.164865,92.5628318 Z M90.2107651,207.227495 C86.4955567,220.883237 78.4453085,210.174913 65.1227147,207.103591 C51.8039003,204.02476 44.0635678,213.257498 47.4688606,198.794502 C49.7818896,188.976035 59.8050155,164.266539 65.9995492,149.409302 C59.1625075,156.051317 50.624709,160.714619 44.1467159,162.546899 C29.4899729,166.688302 24.4141592,163.703338 25.0528878,145.782289 C25.6953959,127.868749 35.7336396,102.614826 44.1467159,103.170518 C44.1467159,103.170518 68.3012399,93.0742047 76.170074,116.432019 C78.8345928,124.328094 77.659181,131.668477 74.4353023,138.10774 C85.6867524,144.498191 93.5933812,194.795777 90.2107651,207.227495 Z M168.747696,181.974623 C151.646296,181.046434 119.624798,166.508581 118.073229,147.956122 C116.52166,129.403664 140.140408,103.43324 140.140408,103.43324 C140.140408,103.43324 173.095124,90.4499146 192.992383,124.464642 C212.885848,158.471823 185.837715,182.899039 168.747696,181.974623 Z M243.675877,216.780714 C243.675877,216.780714 243.39034,216.701318 242.977469,216.572771 L242.769104,217 C242.769104,217 242.302212,216.886576 241.430166,216.674852 C240.515676,216.493375 239.273204,216.028338 237.710467,215.313769 C236.170882,214.576516 234.395922,213.502773 232.489769,212.081197 C230.664647,210.60669 228.615726,208.859967 226.752017,206.686015 C224.822713,204.54987 222.924277,202.081017 221.218772,199.26055 C220.33515,197.861659 219.517125,196.364468 218.768555,194.73873 C218.386553,193.906957 218.012268,193.082745 217.703579,192.092179 C217.572386,191.763251 217.31386,190.874766 217.167232,189.9825 C217.082343,189.513683 217.032181,189.1167 217.032181,188.991934 L217.005171,188.678129 L217.001312,188.598733 L217.001312,188.560925 C216.989736,188.697033 217.059191,187.24143 217.03604,187.819891 L217.113212,187.509866 C217.329294,186.666751 217.622548,185.823635 217.962106,185.02967 L218.591059,183.838722 L219.748642,181.672332 C220.547374,180.307468 221.018124,178.97285 221.666371,177.57774 C222.573144,174.798862 223.121066,171.630563 222.928136,168.662646 L222.754498,166.428201 L222.685043,165.293965 C222.604013,164.889421 222.457385,164.443288 222.349344,164.016059 C221.886311,162.299582 221.415561,160.594448 220.952528,158.904436 C220.497212,157.180398 220.041896,155.475263 219.590439,153.785251 L218.903606,151.157605 C218.795565,150.280462 218.687524,149.407101 218.579483,148.545081 C218.371118,146.821043 218.170471,145.131031 217.973682,143.475047 C217.892651,141.819062 217.892651,140.200886 217.888792,138.631859 C217.776893,135.493807 218.093299,132.563697 218.266936,129.852873 C218.413563,127.14583 218.868879,124.695881 219.104254,122.525709 C219.405226,120.355538 219.794945,118.472706 220.068906,116.933926 C220.717153,113.841243 221.160893,112.113424 221.160893,112.113424 L222.052231,112.268436 C222.086959,112.113424 222.117828,112 222.117828,112 L222.862539,112.120985 C222.862539,112.120985 222.650316,113.901736 222.430375,116.979296 C222.353203,118.525637 222.268314,120.404688 222.164131,122.563517 C222.179566,124.718565 222.009787,127.14583 222.16799,129.7886 C222.303041,132.423808 222.326193,135.285863 222.77765,138.265123 C222.955146,139.754753 223.132642,141.27841 223.317855,142.839875 C223.645837,144.363532 223.973819,145.924996 224.313376,147.509146 C224.479297,148.295549 224.649075,149.093295 224.814996,149.891041 L225.656172,152.185979 C226.234964,153.785251 226.825331,155.403428 227.419557,157.036728 C228.033076,158.677589 228.650453,160.341135 229.271689,162.0009 C229.626681,162.787304 229.85048,163.721158 230.012542,164.73819 L230.57204,167.702326 C231.092953,170.692928 231.046649,173.649503 230.687799,176.598516 C230.575899,177.687383 230.425413,178.783811 230.2402,179.872678 C229.699995,181.774413 229.256255,183.823599 228.461381,185.528734 C228.098672,186.421 227.735963,187.320827 227.396405,187.990026 L226.937231,188.97303 L226.975817,188.939003 C227.02212,188.855826 226.944948,188.768868 227.099292,189.21122 C227.323091,189.857734 227.535315,190.496687 227.755256,191.131859 C228.307037,192.492943 228.843383,193.831341 229.368154,195.131931 C230.058845,196.700958 230.784264,198.183026 231.509682,199.615944 C232.076898,200.685907 232.647972,201.733185 233.20747,202.712408 C235.742577,207.173736 238.366431,210.576444 240.434645,212.807108 C241.495763,213.888413 242.36395,214.761774 243.019913,215.264619 C243.660442,215.824175 244,216.126638 244,216.126638 L243.675877,216.780714 Z M240.891456,244.959429 C240.891456,244.959429 238.874032,248.139899 235.778653,252.717963 C235.026329,253.885143 234.139262,255.074986 233.34951,256.446139 C232.615901,257.855064 231.770005,259.282876 230.931595,260.778679 C230.093185,262.266928 229.228575,263.804281 228.348993,265.364298 C227.510583,266.943201 226.859319,268.654309 226.103252,270.297426 C225.410816,271.970761 224.628549,273.591214 224.044657,275.268327 C223.550594,276.979435 223.015359,278.626329 222.382808,280.163682 C221.682886,281.674594 221.009164,283.140179 220.365385,284.518886 C219.721606,285.908926 219.040398,287.204533 218.347961,288.394376 C217.277491,290.65319 216.120934,292.556939 215.323696,293.954533 C215.076665,294.524902 214.840862,295.061276 214.649974,295.522104 C213.983738,297.104785 213.613191,298 213.613191,298 L212.958183,297.988668 C212.958183,297.988668 212.576407,297.074566 212.366804,295.371013 C212.213345,294.509793 212.056144,293.452154 212.078601,292.288752 C212.078601,292.27742 212.078601,292.266088 212.078601,292.254757 C212.029943,291.737269 212,291.200895 212,290.630526 C212,289.429351 212.003743,288.046866 212.123516,286.558618 C212.318147,285.100588 212.602607,283.533016 212.976897,281.889899 C213.261358,280.205232 213.84525,278.535674 214.601316,276.881226 C215.357383,275.226777 216.259422,273.564773 217.22509,271.921656 C218.280589,270.338976 219.354801,268.737409 220.432757,267.128288 C221.50697,265.538053 222.480124,263.891158 223.617966,262.395355 C224.793237,260.933548 225.946051,259.490627 227.065178,258.100588 C228.191791,256.718103 229.236061,255.358282 230.287816,254.126889 C231.373258,252.918159 232.5373,251.890739 233.529169,250.889759 C235.074987,249.367515 236.426174,248.064354 237.511616,247.029379 C239.379324,245.129407 240.490965,244 240.490965,244 L241,244.351287 C241,244.351287 240.880227,244.517487 240.696825,244.774342 L240.891456,244.959429 Z" id="Shape"></path>
            <path d="M74,249 L74.4716822,254.975962 C74.5173288,256.190076 74.4146238,259.761462 74.2890955,264.389285 C74.2928994,264.397169 74.2928994,264.397169 74.2967033,264.405053 C75.3770076,265.966056 77.8571429,267.318137 81.9995773,267.779343 C87.1424345,268.339096 90.1551141,267.747807 91.9010989,266.967306 C94.9251902,263.455048 95.6251057,262.426205 97.7895182,259.820591 L101,257.305641 C91.9239222,253.986538 82.7527473,251.239015 74,249 Z" id="Path"></path>
            <path d="M101.757328,257 L101.567063,261.222665 C101.593178,261.556033 101.335761,264.000734 101,267.480027 C102.085628,268.066295 103.842778,268.8135 106.644519,269.602855 C112.192041,271.147078 115.392965,271.154741 117.161308,270.829037 C117.295612,267.625636 119.183336,264.131016 122,263.537084 C116.665127,262.234266 110.587849,260.314524 103.637591,257.701223 C103.014567,257.459818 102.387813,257.226077 101.757328,257 Z" id="Path"></path>
            <path d="M130.113284,271.985031 C134.387074,272.114613 137.538994,271.400163 139.168376,269.946747 C140.557358,268.703464 140.912235,266.819276 141,265.068173 C136.600286,265.49194 131.357262,265.176741 125,264 C125.86239,264.591873 126.476747,265.498944 126.667541,266.588131 C126.96518,268.286701 126.740043,269.978267 126.053184,271.466705 C126.953732,271.722366 128.26258,271.928996 130.113284,271.985031 Z" id="Path"></path>
        </g>
    </g>
</svg>