<?xml version="1.0" encoding="UTF-8"?>
<svg width="900px" height="1200px" viewBox="0 0 900 1200" version="1.1" xmlns="http://www.w3.org/2000/svg" xmlns:xlink="http://www.w3.org/1999/xlink">
    <title>Force Field</title>
    <defs>
        <linearGradient x1="64.9391821%" y1="52.059706%" x2="38.1559011%" y2="99.3451819%" id="linearGradient-1">
            <stop stop-color="#190C03" offset="0%"></stop>
            <stop stop-color="#6E390F" offset="100%"></stop>
        </linearGradient>
    </defs>
    <g id="Force-Field" stroke="none" stroke-width="1" fill="none" fill-rule="evenodd">
        <rect id="Rectangle" fill="#000000" x="0" y="0" width="900" height="1200"></rect>
        <rect id="Rectangle" fill="url(#linearGradient-1)" x="42" y="41" width="816" height="1110"></rect>
        <g id="Group" transform="translate(238.000000, 160.000000)" fill="#FFFFFF" fill-rule="nonzero">
            <path d="M209,133.383128 L209,44.7084598 C207.32776,44.4729254 205.709551,44.0726065 204.157079,43.5316834 C198.402845,41.5954654 193.591441,37.6845198 190.52882,32.3675324 C190.264972,31.9197484 190.013731,31.4639042 189.776898,31 L144.775009,49.5203469 L99.7956329,68.0648741 C102.220696,75.3950984 101.277866,83.6441755 96.6915886,90.331382 C96.4736662,90.6484131 96.2431366,90.9627575 96,91.2797886 L159.06694,154 C172.366514,141.901771 189.807515,134.239291 209,133.383128 Z" id="Path"></path>
            <path d="M194.919792,23.6018215 C195.260848,24.6563446 195.673473,25.6249108 196.134695,26.5279015 C198.282643,30.5306585 201.899961,33.6189046 206.256823,35.0961231 C208.190948,35.7128862 210.154231,36 211.992931,36 C213.55861,36 215.217063,35.7988431 216.86933,35.3619692 C222.48439,33.7713231 226.871294,29.6099446 228.850481,24.3426462 C228.878755,24.2655508 228.907913,24.192 228.936187,24.1149046 C229.623601,22.2034708 230,20.1520246 230,18.0270277 C230,8.08704 221.934812,0 212.021206,0 C202.083742,0 194,8.08704 194,18.0270277 C194,19.8649108 194.279207,21.6372185 194.792558,23.3093908 C194.832319,23.40864 194.8871,23.4990277 194.919792,23.6018215 Z" id="Path"></path>
            <path d="M44.524545,207.878504 C44.5970987,208.24603 44.6589037,208.618061 44.7117515,209 L133.419833,209 C134.276145,189.82106 141.922946,172.391473 154,159.092057 L91.2625565,96 C86.8699233,99.3257549 81.5824613,101.10934 76.0182203,101.10934 C73.2719289,101.10934 70.5963996,100.667947 68.0623949,99.8311039 L49.496712,144.800859 L31,189.803944 C37.8666244,193.295447 43.0179363,199.852372 44.524545,207.878504 Z" id="Path"></path>
            <path d="M66.4693527,90.877519 C66.5047547,90.8907734 66.5419267,90.8951916 66.5764436,90.9093297 C66.6968101,90.9596966 66.8012458,91.0295034 66.913647,91.090474 C69.3864718,92.3293243 72.1301215,93 74.9835171,93 C79.7999498,93 84.3234315,91.1320046 87.7202468,87.7388626 C88.6256512,86.7942613 89.3319197,85.9512776 89.8921553,85.1356864 C94.7475301,78.0277607 93.8332752,68.3997202 87.7131664,62.2514175 C84.3243166,58.8679954 79.8008349,57 74.9844022,57 C70.1706246,57 65.648913,58.8662281 62.2520977,62.2540684 C55.2487108,69.2824673 55.2495958,80.7175327 62.2529828,87.745048 C63.5150616,89.0059891 64.9364491,90.0557424 66.4693527,90.877519 Z" id="Path"></path>
            <path d="M336.298221,87.7466561 C336.299105,87.7466561 336.299105,87.7466561 336.299989,87.7475405 C337.106529,88.5134486 338.029804,89.2793567 338.906208,89.9019887 C345.992612,94.7326932 355.629519,93.840313 361.765232,87.7404652 C368.746396,80.7199356 368.74728,69.2755351 361.753735,62.2408548 C354.71155,55.25128 343.296188,55.2530488 336.297336,62.2461613 C332.881925,65.6626775 331,70.1909102 331,74.9959665 C331,79.7966007 332.878388,84.3212957 336.287608,87.7369275 C336.291146,87.7395807 336.294683,87.7431184 336.298221,87.7466561 Z" id="Path"></path>
            <path d="M218.22641,44.0129306 C217.535744,44.2027827 216.834272,44.36756 216.118393,44.5018893 C215.756401,44.5780093 215.382703,44.6442784 215,44.7015923 L215,133.383133 C234.192774,134.240155 251.63502,141.903196 264.93507,154 L328,91.2762597 C324.652025,86.8630933 322.860976,81.5705174 322.860976,76.0119695 C322.860976,73.2653823 323.305812,70.5841688 324.149559,68.0453443 L234.217987,31 C230.969065,37.5185549 225.198806,42.1645589 218.22641,44.0129306 Z" id="Path"></path>
            <path d="M250.611168,176.015435 C247.50397,176.339172 244.513802,176.503308 241.682395,176.503308 C229.890465,176.504214 220.023636,173.644992 212.305084,168 C202.917262,173.720258 192.717487,176.616661 181.946169,176.616661 C179.404163,176.616661 176.802282,176.454339 174.171369,176.133323 C174.15504,181.392913 174.112401,186.121104 174.073391,190.396789 C173.89467,210.027758 173.804856,219.882237 176.778694,227.117801 C179.706265,234.240013 186.103918,239.822434 198.851142,250.943748 C202.858294,254.439562 207.329938,258.340728 212.515557,263 C217.223982,258.737918 221.359051,255.0689 225.069545,251.775308 C238.477218,239.879564 245.206911,233.908115 248.262398,227.120522 C251.304277,220.364668 251.150958,211.747101 250.846135,194.57907 C250.749064,189.148996 250.64292,183.109535 250.611168,176.015435 Z M222.371499,243.19492 C220.157903,245.145503 217.677588,247.33186 214.902429,249.818377 C214.20932,250.439553 213.34384,250.744246 212.48199,250.744246 C211.486779,250.744246 210.495197,250.337988 209.7785,249.538168 C208.440364,248.046439 208.566466,245.753076 210.058829,244.416415 C212.851225,241.914482 215.346055,239.715428 217.573259,237.753057 C226.441248,229.93803 230.892933,226.016008 232.820757,221.742137 C234.729529,217.507259 234.596169,211.87859 234.332171,200.666593 C234.282274,198.571825 234.229656,196.293878 234.183388,193.801014 C225.720015,193.674965 218.288141,191.90212 212.022941,188.515125 C205.29597,191.824133 198.115394,193.613301 190.610036,193.852703 C190.541995,199.744351 190.504799,205.742099 190.652675,211.573897 C190.704386,213.576169 189.121302,215.241101 187.11818,215.29279 C185.137738,215.329063 183.449418,213.762068 183.397707,211.758889 C183.215358,204.601312 183.306986,197.269623 183.3968,190.179151 C183.408594,189.203406 183.814117,188.271189 184.521742,187.59651 C185.229366,186.923645 186.196453,186.549126 187.153561,186.595374 C195.388317,186.87377 203.210292,185.069186 210.394497,181.193412 C211.533047,180.577677 212.912915,180.61667 214.016084,181.293163 C220.262233,185.125409 228.201238,186.871049 237.609017,186.503785 C238.594249,186.472046 239.54047,186.823894 240.250816,187.496759 C240.961163,188.170531 241.3685,189.102748 241.382109,190.081213 C241.43382,194.006863 241.514561,197.449175 241.587138,200.49611 C242.165032,225.030288 241.626148,226.228205 222.371499,243.19492 Z" id="Shape"></path>
            <path d="M333.645958,96.6602182 C333.347647,96.4485521 333.050232,96.2278789 332.754608,96 L270,159.099931 C282.075774,172.397969 289.724361,189.824848 290.579878,209 L379.282172,209 C379.532108,207.226508 379.970168,205.513363 380.564999,203.875878 C380.594561,203.790311 380.625019,203.706545 380.656373,203.621878 C380.736998,203.408411 380.822101,203.196745 380.907205,202.985979 C383.146778,197.282702 387.370611,192.596324 393,189.782515 L355.929703,99.7973808 C348.601822,102.210375 340.347654,101.254725 333.645958,96.6602182 Z" id="Path"></path>
            <path d="M36,212.003539 C36,210.723385 35.9106458,209.675022 35.7195518,208.705397 C34.1076379,200.171631 26.6770864,194 18.0442347,194 C8.09407254,194 0,202.076379 0,212.003539 C0,221.92716 8.09407254,230 18.0442347,230 C27.944854,230 36,221.92716 36,212.003539 Z" id="Path"></path>
            <path d="M212.500452,140 C172.523745,140 140,172.523542 140,212.500904 C140,252.477362 172.523745,285 212.500452,285 C252.476255,285 285,252.477362 285,212.500904 C285,172.522638 252.476255,140 212.500452,140 Z M229.808108,258.48527 C225.500184,262.309388 220.61805,266.642605 214.93745,271.820401 C214.24659,272.448863 213.373973,272.763545 212.500452,272.763545 C211.630548,272.763545 210.761548,272.451575 210.071593,271.827635 C203.897263,266.233879 198.700445,261.698108 194.11491,257.694946 C167.075541,234.093744 166.567343,232.862141 166.940805,191.804187 C166.989635,186.44373 167.044795,180.368907 167.044795,173.433228 C167.044795,172.358967 167.523152,171.339865 168.349652,170.651722 C169.177055,169.964484 170.264888,169.681451 171.322879,169.877675 C174.961647,170.553158 178.561531,170.895873 182.023062,170.895873 C192.161695,170.895873 201.741492,167.937132 210.49479,162.10013 C211.833104,161.20672 213.603657,161.305285 214.833459,162.345184 C221.560296,168.022133 230.304551,170.78284 241.566283,170.781936 C245.277391,170.781936 249.310419,170.469062 253.554141,169.854165 C254.591334,169.698632 255.646613,170.010602 256.440559,170.698744 C257.234504,171.385982 257.691159,172.383382 257.691159,173.433228 C257.691159,182.257003 257.819565,189.510982 257.933502,195.912243 C258.575531,232.245435 258.050152,233.415548 229.808108,258.48527 Z" id="Shape"></path>
            <path d="M215,290.597465 L215,379.312537 C223.390082,380.495548 230.477121,385.75417 234.174628,393 L279.182278,374.460491 L324.195332,355.957698 C321.755841,348.633956 322.704982,340.380642 327.319212,333.684675 C327.537136,333.367653 327.764066,333.053318 328,332.741669 L264.914547,270 C251.616668,282.086234 234.184533,289.741327 215,290.597465 Z" id="Path"></path>
            <path d="M336.296701,336.24637 C336.293165,336.249026 336.289628,336.253454 336.286092,336.25611 C336.282555,336.259652 336.279019,336.263194 336.275482,336.266736 C335.467387,337.077872 334.745937,337.947451 334.128814,338.854223 C329.2493,345.985307 330.15907,355.607356 336.285208,361.744002 C343.28575,368.754655 354.706059,368.751113 361.742851,361.738689 C368.754003,354.71121 368.752235,343.281817 361.738431,336.256996 C354.711364,329.252541 343.297244,329.246342 336.296701,336.24637 Z" id="Path"></path>
            <path d="M381.796685,222.995466 C380.719168,220.884713 379.915732,218.598365 379.450868,216.176042 C379.444598,216.145425 379.439224,216.115709 379.434746,216.084192 C379.373839,215.718592 379.320097,215.356595 379.273521,215 L290.596436,215 C289.740155,234.181373 282.085571,251.61129 270,264.908851 L332.752177,328 C339.485989,322.919426 348.192115,321.660539 355.926415,324.198124 L393,234.208388 C388.046824,231.736538 384.181017,227.80139 381.796685,222.995466 Z" id="Path"></path>
            <path d="M406.465523,194 C399.220043,194 392.987343,198.533949 390.317049,204.982331 C390.300672,205.023026 390.286881,205.063721 390.270504,205.104416 C390.147246,205.409628 390.044675,205.724572 389.936932,206.038631 C389.2922,208.042415 388.99914,210.082471 389,211.988057 C389.001726,214.318286 389.435282,216.848451 390.417034,219.265377 C390.472198,219.39277 390.522191,219.521933 390.579941,219.647556 C390.632519,219.767872 390.690269,219.887302 390.744572,220.005849 C392.724451,224.066498 396.130844,227.207087 400.229376,228.812769 C400.362115,228.86408 400.493992,228.916276 400.629317,228.965817 C402.466115,229.632861 404.430479,230 406.465523,230 C416.133922,230 424,221.927359 424,212.003981 C424,202.07618 416.133922,194 406.465523,194 Z" id="Path"></path>
            <path d="M207.881563,379.488684 C208.239066,379.415238 208.612779,379.352541 209,379.2988 L209,290.597928 C189.818168,289.741659 172.385133,282.087187 159.088155,270 L96,332.749472 C99.3102866,337.115907 101.103208,342.41743 101.103208,347.996614 C101.103208,350.750827 100.659255,353.43428 99.818176,355.974426 L189.791153,393 C193.291448,386.134621 199.852587,380.989842 207.881563,379.488684 Z" id="Path"></path>
            <path d="M212.021206,388 C210.732967,388 209.662085,388.091126 208.748478,388.276916 C200.180542,389.890639 194,397.340837 194,406.002212 C194,415.926077 202.083742,424 212.021206,424 C221.934812,424 230,415.926077 230,406.002212 C230,396.075692 221.934812,388 212.021206,388 Z" id="Path"></path>
            <path d="M87.7319015,336.271119 C87.7265936,336.264927 87.720401,336.25962 87.7142085,336.253428 C87.0232958,335.561698 86.2164938,334.892968 85.0991792,334.08713 C82.0347471,332.013711 78.5173736,331 75.017693,331 C70.3670811,331 65.7483167,332.791243 62.2689831,336.271119 C58.8710375,339.666962 57,344.187085 57,349.001769 C57,353.814684 58.8710375,358.335692 62.2680985,361.73065 L62.2689831,361.732419 C65.6642748,365.129146 70.1857276,367 75,367 C79.8142724,367 84.3357252,365.129146 87.7301322,361.732419 C91.1289625,358.335692 93,353.815568 93,349.001769 C93,344.192393 91.1333858,339.676692 87.7425173,336.282618 C87.7389787,336.27908 87.7354401,336.274657 87.7319015,336.271119 Z" id="Path"></path>
            <path d="M90.3049148,327.301257 C90.3308869,327.320167 90.3577545,327.338176 90.3828309,327.357085 C90.6864351,327.576793 90.9739187,327.790197 91.2479685,328 L154,264.908769 C141.914045,251.61195 134.259458,234.181204 133.403277,215 L44.685474,215 C43.5024028,223.396617 38.244408,230.486693 31,234.179403 L49.4965706,279.172662 L68.0826999,324.18573 C75.3826343,321.776149 83.6112931,322.723413 90.3049148,327.301257 Z" id="Path"></path>
        </g>
        <rect id="Rectangle" fill="#FF8429" x="637" y="72" width="163" height="50" rx="5"></rect>
        <circle id="Oval" fill="#FFFFFF" cx="664.5" cy="97.5" r="8.5"></circle>
        <text id="POWER-UP" font-family="AvenirNextCondensed-DemiBold, Avenir Next Condensed" font-size="23" font-style="condensed" font-weight="500" letter-spacing="0.598" fill="#FFFFFF">
            <tspan x="682" y="106">POWER UP</tspan>
        </text>
        <rect id="Rectangle" stroke="#000000" stroke-width="10" fill-opacity="0.4" fill="#000000" x="106" y="652" width="688" height="433" rx="15"></rect>
        <text id="+1-to-total-defense" font-family="AvenirNextCondensed-Regular, Avenir Next Condensed" font-size="32" font-style="condensed" font-weight="normal" letter-spacing="0.832" fill="#FFFFFF">
            <tspan x="148" y="832">+1 to total defense roll for all of your lizards.</tspan>
        </text>
        <text id="FORCE-FIELD" font-family="AvenirNextCondensed-Regular, Avenir Next Condensed" font-size="80" font-style="condensed" font-weight="normal" letter-spacing="-4" fill="#FFFFFF">
            <tspan x="148" y="775">FORCE FIELD</tspan>
        </text>
    </g>
</svg>