<?xml version="1.0" encoding="UTF-8"?>
<svg width="900px" height="1200px" viewBox="0 0 900 1200" version="1.1" xmlns="http://www.w3.org/2000/svg" xmlns:xlink="http://www.w3.org/1999/xlink">
    <title>Frenzy</title>
    <defs>
        <linearGradient x1="64.9391821%" y1="52.059706%" x2="38.1559011%" y2="99.3451819%" id="linearGradient-1">
            <stop stop-color="#161903" offset="0%"></stop>
            <stop stop-color="#4B5605" offset="100%"></stop>
        </linearGradient>
    </defs>
    <g id="Frenzy" stroke="none" stroke-width="1" fill="none" fill-rule="evenodd">
        <rect id="Rectangle" fill="#000000" x="0" y="0" width="900" height="1200"></rect>
        <rect id="Rectangle" fill="url(#linearGradient-1)" x="42" y="41" width="816" height="1110"></rect>
        <g id="noun_spiral_11045" transform="translate(261.000000, 211.000000)" fill="#FFFFFF" fill-rule="nonzero">
            <path d="M184.293089,346 C147.743913,346 111.202277,335.184155 80.1722334,314.621583 C39.8229986,287.889862 12.5100763,247.724279 3.24743316,201.533104 C-5.61560067,157.325274 3.86192679,110.219871 29.2484303,72.2869694 C53.8017861,35.6007419 90.4753689,10.9052554 132.521058,2.7489826 C172.651639,-5.03706569 215.266584,3.89743416 249.429413,27.2518012 C282.314247,49.7221628 304.277682,83.0763696 311.289695,121.156606 C317.962417,157.385719 309.59701,195.685068 288.357396,226.217257 C268.048947,255.423438 238.168723,274.746891 204.198159,280.62515 C172.006986,286.186074 138.183448,278.358469 111.413391,259.133239 C86.0193476,240.894015 69.4393294,214.336072 64.726955,184.344109 C60.2822434,156.0446 67.576999,126.555084 84.7488914,103.43494 C100.857672,81.7465836 123.993546,67.8593863 149.896525,64.3271422 C174.197298,61.0215662 199.244511,67.8480529 218.606715,83.0801474 C236.479808,97.1562347 247.589702,116.985913 249.878031,138.916049 C252.008025,159.410621 245.587886,180.120527 232.261291,195.753068 C220.224002,209.870711 203.742001,218.162985 185.846288,219.114991 C169.330358,219.97633 152.592004,213.61829 140.999563,202.077108 C130.775595,191.888378 125.493966,178.58674 126.142388,164.631542 C126.745572,151.613239 133.836753,138.508047 144.207747,131.250891 C152.957684,125.127075 163.272129,123.487509 173.235974,126.63064 C181.518443,129.248656 186.11772,138.096266 183.50895,146.392318 C180.900179,154.695925 172.059765,159.304842 163.792375,156.690604 C163.355067,156.550825 163.094944,156.463936 162.212787,157.083495 C159.830211,158.749506 157.700218,162.871087 157.549422,166.082218 C157.315688,171.189805 159.200638,175.776056 163.159032,179.708747 C168.47836,185.009002 176.553485,188.00102 184.187532,187.642129 C195.979778,187.015014 203.832478,180.573863 208.345048,175.284941 C215.986634,166.320219 219.824392,153.951698 218.587865,142.183847 C217.204312,128.810431 210.305396,116.619466 199.180422,107.858745 C186.479631,97.8626835 170.069258,93.3633223 154.137662,95.5468914 C136.679258,97.9231283 121.000245,107.405409 109.984599,122.240835 C97.8229031,138.610047 92.6543708,159.455954 95.7909272,179.440523 C99.1800669,201.023101 111.232436,220.23322 129.727563,233.515969 C149.708031,247.86028 174.894729,253.715872 198.844901,249.564069 C224.468908,245.12893 247.095845,230.440839 262.559973,208.197145 C279.026895,184.521665 285.514892,154.877259 280.361439,126.864863 C274.891315,97.1109011 257.610095,70.9760723 231.718425,53.2770737 C204.428122,34.6260692 170.453788,27.4898027 138.500119,33.6778411 C104.740669,40.2285483 75.2185854,60.1677831 55.3700643,89.8310782 C34.6205372,120.83927 26.858314,159.289731 34.0852114,195.322399 C41.6777891,233.221301 64.2104787,266.250617 97.5213111,288.331865 C132.117679,311.25934 174.87965,319.66117 214.840585,311.376452 C286.562924,296.507026 341.550679,231.2644 345.576931,156.237268 C346.044399,147.548325 353.418322,140.899395 362.12679,141.352731 C370.797559,141.821178 377.447662,149.244558 376.976425,157.937278 C372.192422,247.010275 306.682878,324.526978 221.207945,342.241088 C209.03871,344.753326 196.665899,346 184.293089,346 Z" id="Path"></path>
        </g>
        <rect id="Rectangle" fill="#A0B51B" x="675" y="72" width="125" height="50" rx="5"></rect>
        <circle id="Oval" fill="#FFFFFF" cx="703.5" cy="96.5" r="8.5"></circle>
        <text id="EVENT" font-family="AvenirNextCondensed-DemiBold, Avenir Next Condensed" font-size="23" font-style="condensed" font-weight="500" letter-spacing="0.598" fill="#FFFFFF">
            <tspan x="721" y="105">EVENT</tspan>
        </text>
        <rect id="Rectangle" stroke="#000000" stroke-width="10" fill-opacity="0.4" fill="#000000" x="106" y="652" width="688" height="433" rx="15"></rect>
        <g id="Group" transform="translate(198.000000, 168.000000)" fill="#FFFFFF" fill-rule="nonzero">
            <polygon id="Path" points="42.9912747 4 54.0374548 33.3940479 84 33.4112777 59.3947648 52.3296039 68.3468823 81 42.9912747 63.8046543 17.6531177 81 26.6052352 52.3296039 2 33.4112777 31.9625452 33.3940479"></polygon>
            <path d="M40.6508411,4.39334278 C41.8765642,7.70662136 43.1022873,11.0198999 44.3452741,14.3331785 C46.2960728,19.6137163 48.2641352,24.9115106 50.214934,30.1920484 C50.6637903,31.4000145 51.1126466,32.6252373 51.561503,33.8332035 C52.0966779,35.2827629 53.2706098,36.3699324 54.8933981,36.3699324 C58.2252933,36.3699324 61.5571884,36.3699324 64.8890836,36.3699324 C70.2063049,36.3699324 75.5235261,36.3699324 80.8407474,36.3699324 C82.0664705,36.3699324 83.3094573,36.3699324 84.5351804,36.3699324 C83.7237862,34.4026732 82.9123921,32.4354141 82.1009979,30.4854116 C79.3560688,32.6252373 76.6111396,34.7650631 73.8662104,36.8876322 C69.4984929,40.287194 65.1307755,43.6867559 60.763058,47.1035745 C59.7617631,47.8801241 58.7604682,48.6566738 57.7591732,49.4332235 C56.8441969,50.1407465 56.5507139,51.7283591 56.8787243,52.798272 C57.8800192,56.0252673 58.8640504,59.2350059 59.8653453,62.4620012 C61.4536062,67.6217423 63.0418671,72.7987401 64.6473917,77.9584812 C65.0099295,79.131934 65.3724673,80.3226435 65.7350052,81.4960964 C67.4268483,80.2018469 69.1186914,78.8903408 70.8105346,77.5960914 C67.9792869,75.6460889 65.1480392,73.713343 62.3167915,71.7633405 C57.8282281,68.6743985 53.3396646,65.6027132 48.8511012,62.5137712 C47.8152789,61.8062481 46.7621929,61.0814685 45.7263705,60.3739454 C44.7768667,59.7181924 43.1886058,59.7181924 42.239102,60.3739454 C39.4078544,62.3239479 36.5766067,64.2566938 33.745359,66.2066963 C29.2567956,69.2956383 24.7682321,72.3673236 20.2796687,75.4562656 C19.2438464,76.1637887 18.1907604,76.8885683 17.154938,77.5960914 C18.8467812,78.8903408 20.5386243,80.2018469 22.2304674,81.4960964 C23.2317624,78.2691011 24.2157936,75.0593625 25.2170885,71.8323672 C26.8053494,66.6726261 28.3936103,61.4956283 29.9991349,56.3358872 C30.3616727,55.1624343 30.7242105,53.9717248 31.0867483,52.798272 C31.4147587,51.7456158 31.1212757,50.1580031 30.2062993,49.4332235 C27.4613702,47.2933977 24.716441,45.153572 21.9715119,43.0310029 C17.6037944,39.631441 13.2360769,36.2318791 8.86835942,32.8150606 C7.8670645,32.0385109 6.86576959,31.2619613 5.86447467,30.4854116 C5.05308052,32.4526707 4.24168636,34.4199299 3.43029221,36.3699324 C6.76218736,36.3699324 10.0940825,36.3699324 13.4259777,36.3699324 C18.7431989,36.3699324 24.0604202,36.3699324 29.3776415,36.3699324 C30.6033646,36.3699324 31.8463514,36.3699324 33.0720745,36.3699324 C34.6948628,36.3699324 35.8687947,35.2827629 36.4039696,33.8332035 C37.6296927,30.5199249 38.8554158,27.2066463 40.0984026,23.8933677 C42.0492013,18.61283 44.0172637,13.3150356 45.9680624,8.03449789 C46.4169188,6.82653174 46.8657751,5.60130893 47.3146314,4.39334278 C47.9361248,2.70219018 46.6068195,0.545107769 44.8977127,0.148204606 C42.946914,-0.300468535 41.3241257,0.73493102 40.6508411,2.5641369 C39.4251181,5.87741548 38.199395,9.19069406 36.9564082,12.5039726 C35.0056095,17.7845104 33.037547,23.0823048 31.0867483,28.3628425 C30.637892,29.5708086 30.1890356,30.7960315 29.7401793,32.0039976 C30.8450565,31.1584213 31.9671973,30.312845 33.0720745,29.4672687 C29.7401793,29.4672687 26.4082842,29.4672687 23.076389,29.4672687 C17.7591677,29.4672687 12.4419464,29.4672687 7.12472517,29.4672687 C5.89900208,29.4672687 4.65601529,29.4672687 3.43029221,29.4672687 C2.04919577,29.4672687 0.806208978,30.3301017 0.271034109,31.5898378 C-0.212349643,32.7287773 -0.0915037051,34.5234699 0.978846032,35.3517895 C3.7237752,37.4916152 6.46870436,39.631441 9.21363353,41.7540101 C13.581351,45.153572 17.9490685,48.5531338 22.316786,51.9699524 C23.3180809,52.746502 24.3193758,53.5230517 25.3206707,54.2996014 C25.0271877,53.1779185 24.7337047,52.0562357 24.4402217,50.9345528 C23.4389268,54.1615481 22.4548956,57.3712867 21.4536007,60.598282 C19.8653398,65.7580231 18.2770789,70.9350209 16.6715543,76.094762 C16.3090165,77.2682148 15.9464787,78.4589243 15.5839408,79.6323772 C15.1696119,80.9611399 15.7565779,82.4452126 16.8269276,83.2562756 C17.86275,84.0500819 19.5200657,84.3089318 20.6594702,83.5323822 C23.4907179,81.5823797 26.3219656,79.6496338 29.1532133,77.6996313 C33.6417767,74.6106893 38.1303401,71.539004 42.6189036,68.450062 C43.6547259,67.7425389 44.7078119,67.0177592 45.7436342,66.3102362 C44.586966,66.3102362 43.413034,66.3102362 42.2563658,66.3102362 C45.0876134,68.2602387 47.9188611,70.1929845 50.7501088,72.142987 C55.2386722,75.2319291 59.7272357,78.3036144 64.2157991,81.3925564 C65.2516214,82.1000794 66.3047074,82.8248591 67.3405298,83.5323822 C68.4626706,84.3089318 70.1545137,84.0500819 71.1730724,83.2562756 C72.2261584,82.4452126 72.8131244,80.9611399 72.4160592,79.6323772 C71.4147642,76.4053819 70.430733,73.1956433 69.4294381,69.968648 C67.8411772,64.8089069 66.2529163,59.6319091 64.6473917,54.472168 C64.2848539,53.2987151 63.9223161,52.1080056 63.5597783,50.9345528 C63.2662953,52.0562357 62.9728123,53.1779185 62.6793293,54.2996014 C65.4242585,52.1597756 68.1691876,50.0199499 70.9141168,47.8973808 C75.2818343,44.4978189 79.6495517,41.098257 84.0172692,37.6814385 C85.0185641,36.9048888 86.0198591,36.1283392 87.021154,35.3517895 C88.0915037,34.5234699 88.2123496,32.7115206 87.7289659,31.5898378 C87.193791,30.3301017 85.9508042,29.4672687 84.5697078,29.4672687 C81.2378126,29.4672687 77.9059175,29.4672687 74.5740223,29.4672687 C69.2568011,29.4672687 63.9395798,29.4672687 58.6223585,29.4672687 C57.3966354,29.4672687 56.1536486,29.4672687 54.9279255,29.4672687 C56.0328027,30.312845 57.1549435,31.1584213 58.2598207,32.0039976 C57.0340976,28.690719 55.8083745,25.3774404 54.5653877,22.0641619 C52.614589,16.7836241 50.6465266,11.4858297 48.6957279,6.20529201 C48.2468715,4.99732586 47.7980152,3.77210305 47.3491589,2.5641369 C46.7276655,0.872984295 44.9840312,-0.455778469 43.1022873,0.148204606 C41.3931805,0.683161043 39.9775566,2.58139356 40.6508411,4.39334278 Z" id="Path"></path>
        </g>
        <g id="Group" transform="translate(639.000000, 512.000000)" fill="#FFFFFF" fill-rule="nonzero">
            <polygon id="Path" points="35.9927644 3 45.1530113 27.4314164 70 27.4457373 49.5956587 43.1700604 57.0193658 67 35.9927644 52.7077646 14.9806342 67 22.4043413 43.1700604 2 27.4457373 26.8469887 27.4314164"></polygon>
            <path d="M33.7217205,3.66111899 C34.7385135,6.42218447 35.7553065,9.18324995 36.7864206,11.9443154 C38.4046968,16.3447635 40.037294,20.7595922 41.6555702,25.1600403 C42.027917,26.1666788 42.4002637,27.1876978 42.7726104,28.1943362 C43.2165623,29.4023024 44.1903922,30.308277 45.5365689,30.308277 C48.3005274,30.308277 51.0644859,30.308277 53.8284443,30.308277 C58.2393211,30.308277 62.6501978,30.308277 67.0610746,30.308277 C68.0778676,30.308277 69.1089816,30.308277 70.1257746,30.308277 C69.4526863,28.6688944 68.779598,27.0295117 68.1065096,25.4045097 C65.8294661,27.1876978 63.5524226,28.9708859 61.2753791,30.7396935 C57.6521589,33.5726617 54.0289387,36.4056299 50.4057186,39.2529787 C49.5750989,39.9001034 48.7444793,40.5472282 47.9138596,41.1943529 C47.1548451,41.7839554 46.9113876,43.1069659 47.1834872,43.99856 C48.0141068,46.6877227 48.8304054,49.3625049 49.6610251,52.0516677 C50.9785597,56.3514519 52.2960943,60.6656167 53.6279499,64.965401 C53.9286915,65.9432784 54.2294331,66.9355363 54.5301747,67.9134136 C55.9336355,66.8348724 57.3370963,65.7419507 58.7405571,64.6634095 C56.3919084,63.0384074 54.0432598,61.4277859 51.6946111,59.8027838 C47.9711437,57.2286654 44.2476764,54.6689277 40.524209,52.0948093 C39.6649473,51.5052068 38.7913645,50.9012237 37.9321028,50.3116212 C37.1444463,49.7651603 35.8269117,49.7651603 35.0392551,50.3116212 C32.6906065,51.9366233 30.3419578,53.5472448 27.9933091,55.1722469 C24.2698418,57.7463652 20.5463744,60.306103 16.822907,62.8802214 C15.9636453,63.4698239 15.0900626,64.073807 14.2308009,64.6634095 C15.6342617,65.7419507 17.0377224,66.8348724 18.4411832,67.9134136 C19.2718029,65.2242509 20.0881015,62.5494687 20.9187211,59.860306 C22.2362557,55.5605217 23.5537903,51.2463569 24.885646,46.9465726 C25.1863876,45.9686953 25.4871292,44.9764374 25.7878708,43.99856 C26.0599703,43.1213465 25.8165128,41.798336 25.0574983,41.1943529 C22.7804548,39.4111648 20.5034113,37.6279766 18.2263678,35.8591691 C14.6031476,33.0262008 10.9799274,30.1932326 7.35670725,27.3458838 C6.5260876,26.6987591 5.69546795,26.0516344 4.86484831,25.4045097 C4.19175997,27.0438923 3.51867164,28.6832749 2.84558331,30.308277 C5.60954178,30.308277 8.37350026,30.308277 11.1374587,30.308277 C15.5483355,30.308277 19.9592122,30.308277 24.370089,30.308277 C25.386882,30.308277 26.417996,30.308277 27.434789,30.308277 C28.7809657,30.308277 29.7547956,29.4023024 30.1987475,28.1943362 C31.2155405,25.4332708 32.2323335,22.6722053 33.2634476,19.9111398 C34.8817238,15.5106917 36.514321,11.095863 38.1325972,6.69541491 C38.504944,5.68877645 38.8772907,4.66775744 39.2496374,3.66111899 C39.7651945,2.25182515 38.6624753,0.454256474 37.2446935,0.123503838 C35.6264173,-0.250390446 34.2802406,0.612442517 33.7217205,2.13678075 C32.7049275,4.89784623 31.6881345,7.65891172 30.6570204,10.4199772 C29.0387442,14.8204253 27.406147,19.235254 25.7878708,23.6357021 C25.415524,24.6423405 25.0431773,25.6633595 24.6708306,26.669998 C25.5873764,25.9653511 26.5182432,25.2607042 27.434789,24.5560572 C24.6708306,24.5560572 21.9068721,24.5560572 19.1429136,24.5560572 C14.7320369,24.5560572 10.3211601,24.5560572 5.91028338,24.5560572 C4.89349037,24.5560572 3.86237632,24.5560572 2.84558331,24.5560572 C1.69990104,24.5560572 0.668786993,25.2750847 0.224835113,26.3248648 C-0.176153681,27.2739811 -0.0759064827,28.7695582 0.811997277,29.4598246 C3.08904079,31.2430127 5.3660843,33.0262008 7.64312781,34.7950084 C11.266348,37.6279766 14.8895682,40.4609449 18.5127884,43.3082936 C19.343408,43.9554184 20.1740276,44.6025431 21.0046473,45.2496678 C20.7611898,44.3149321 20.5177323,43.3801964 20.2742748,42.4454607 C19.4436552,45.1346234 18.6273566,47.8094056 17.7967369,50.4985683 C16.4792023,54.7983526 15.1616677,59.1125174 13.8298121,63.4123017 C13.5290705,64.390179 13.2283289,65.3824369 12.9275873,66.3603143 C12.5838826,67.4676166 13.0707976,68.7043439 13.9587013,69.3802297 C14.817963,70.0417349 16.1927818,70.2574432 17.1379696,69.6103185 C19.4866183,67.9853164 21.8352669,66.3746949 24.1839156,64.7496928 C27.907383,62.1755744 31.6308504,59.6158366 35.3543177,57.0417183 C36.2135794,56.4521158 37.0871622,55.8481327 37.9464239,55.2585302 C36.986915,55.2585302 36.013085,55.2585302 35.0535761,55.2585302 C37.4022248,56.8835323 39.7508734,58.4941538 42.0995221,60.1191559 C45.8229895,62.6932742 49.5464569,65.253012 53.2699242,67.8271303 C54.1291859,68.4167329 55.0027687,69.0207159 55.8620304,69.6103185 C56.7928972,70.2574432 58.196358,70.0417349 59.0412987,69.3802297 C59.9148814,68.7043439 60.4017964,67.4676166 60.0724127,66.3603143 C59.2417931,63.6711516 58.4254944,60.9963694 57.5948748,58.3072066 C56.2773402,54.0074224 54.9598056,49.6932576 53.6279499,45.3934733 C53.3272083,44.4155959 53.0264668,43.423338 52.7257252,42.4454607 C52.4822677,43.3801964 52.2388102,44.3149321 51.9953527,45.2496678 C54.2723962,43.4664797 56.5494397,41.6832916 58.8264832,39.914484 C62.4497034,37.0815158 66.0729236,34.2485475 69.6961438,31.4011987 C70.5267634,30.754074 71.3573831,30.1069493 72.1880027,29.4598246 C73.0759065,28.7695582 73.1761537,27.2596005 72.7751649,26.3248648 C72.331213,25.2750847 71.300099,24.5560572 70.1544167,24.5560572 C67.3904582,24.5560572 64.6264997,24.5560572 61.8625413,24.5560572 C57.4516645,24.5560572 53.0407878,24.5560572 48.629911,24.5560572 C47.613118,24.5560572 46.582004,24.5560572 45.565211,24.5560572 C46.4817568,25.2607042 47.4126236,25.9653511 48.3291694,26.669998 C47.3123764,23.9089325 46.2955834,21.147867 45.2644694,18.3868016 C43.6461932,13.9863534 42.0135959,9.57152478 40.3953197,5.17107667 C40.022973,4.16443822 39.6506262,3.14341921 39.2782795,2.13678075 C38.7627225,0.727486912 37.3162986,-0.37981539 35.7553065,0.123503838 C34.3375247,0.569300869 33.1632004,2.1511613 33.7217205,3.66111899 Z" id="Path"></path>
        </g>
        <g id="Group" transform="translate(561.000000, 546.000000)" fill="#FFFFFF" fill-rule="nonzero">
            <polygon id="Path" points="25.9948925 2 32.4609491 19.5600806 50 19.5703737 35.5969355 30.8722309 40.8371994 48 25.9948925 37.7274558 11.1628006 48 16.4030645 30.8722309 2 19.5703737 19.5390509 19.5600806"></polygon>
            <path d="M24.0209516,2.61508499 C24.7452425,4.58727462 25.4695334,6.55946425 26.2040256,8.53165388 C27.3567703,11.6748311 28.5197163,14.8282801 29.672461,17.9714574 C29.9376943,18.6904848 30.2029276,19.4197841 30.4681609,20.1388116 C30.7844005,21.0016446 31.4780876,21.6487693 32.437008,21.6487693 C34.4058551,21.6487693 36.3747023,21.6487693 38.3435494,21.6487693 C41.4855438,21.6487693 44.6275382,21.6487693 47.7695326,21.6487693 C48.4938235,21.6487693 49.2283157,21.6487693 49.9526066,21.6487693 C49.4731464,20.4777817 48.9936862,19.3067941 48.514226,18.1460783 C46.8922224,19.4197841 45.2702188,20.6934899 43.6482152,21.9569239 C41.0672913,23.9804726 38.4863673,26.0040214 35.9054434,28.0378419 C35.3137691,28.5000739 34.7220948,28.9623058 34.1304206,29.4245378 C33.5897527,29.8456824 33.4163309,30.79069 33.6101552,31.4275429 C34.2018295,33.3483734 34.7833025,35.2589321 35.3749768,37.1797626 C36.3134946,40.2510371 37.2520124,43.3325834 38.2007315,46.4038579 C38.4149584,47.1023417 38.6291852,47.8110973 38.8434121,48.5095812 C39.8431376,47.7391946 40.8428631,46.9585362 41.8425886,46.1881496 C40.1695786,45.0274339 38.4965686,43.8769899 36.8235586,42.7162741 C34.1712257,40.8776182 31.5188927,39.049234 28.8665598,37.2105781 C28.254483,36.7894334 27.6322049,36.3580169 27.020128,35.9368723 C26.4590576,35.5465431 25.5205398,35.5465431 24.9594694,35.9368723 C23.2864594,37.0975881 21.6134494,38.248032 19.9404394,39.4087478 C17.2881065,41.2474037 14.6357735,43.0757879 11.9834406,44.9144438 C11.3713638,45.3355885 10.7490857,45.767005 10.1370088,46.1881496 C11.1367343,46.9585362 12.1364598,47.7391946 13.1361853,48.5095812 C13.7278596,46.5887506 14.3093326,44.6781919 14.9010068,42.7573614 C15.8395246,39.6860869 16.7780424,36.6045406 17.7267615,33.5332662 C17.9409884,32.8347823 18.1552153,32.1260267 18.3694422,31.4275429 C18.5632665,30.8009618 18.3898448,29.8559543 17.8491769,29.4245378 C16.2271733,28.150832 14.6051697,26.8771262 12.9831661,25.6136922 C10.4022421,23.5901434 7.82131817,21.5665947 5.2403942,19.5327742 C4.64871993,19.0705422 4.05704567,18.6083103 3.4653714,18.1460783 C2.98591121,19.3170659 2.50645103,20.4880535 2.02699085,21.6487693 C3.99583798,21.6487693 5.96468512,21.6487693 7.93353225,21.6487693 C11.0755266,21.6487693 14.217521,21.6487693 17.3595154,21.6487693 C18.0838063,21.6487693 18.8182985,21.6487693 19.5425894,21.6487693 C20.5015098,21.6487693 21.1951969,21.0016446 21.5114366,20.1388116 C22.2357275,18.166622 22.9600184,16.1944323 23.6945106,14.2222427 C24.8472553,11.0790655 26.0102013,7.92561644 27.162946,4.78243922 C27.4281793,4.06341175 27.6934126,3.33411246 27.9586459,2.61508499 C28.325892,1.60844653 27.5403934,0.32446891 26.5304666,0.0882170271 C25.3777219,-0.178850319 24.4188015,0.437458941 24.0209516,1.52627197 C23.2966607,3.4984616 22.5723698,5.47065123 21.8378776,7.44284086 C20.6851329,10.5860181 19.5221869,13.7394671 18.3694422,16.8826443 C18.1042089,17.6016718 17.8389756,18.3309711 17.5737423,19.0499986 C18.2266243,18.5466793 18.8897075,18.0433601 19.5425894,17.5400409 C17.5737423,17.5400409 15.6048952,17.5400409 13.636048,17.5400409 C10.4940537,17.5400409 7.35205926,17.5400409 4.21006487,17.5400409 C3.48577396,17.5400409 2.75128176,17.5400409 2.02699085,17.5400409 C1.21088841,17.5400409 0.476396214,18.0536319 0.160156519,18.8034749 C-0.125479335,19.4814151 -0.0540703712,20.5496844 0.578409019,21.0427318 C2.20041262,22.3164376 3.82241621,23.5901434 5.44441981,24.8535774 C8.02534378,26.8771262 10.6062677,28.9006749 13.1871917,30.9344955 C13.778866,31.3967274 14.3705402,31.8589593 14.9622145,32.3211913 C14.7887927,31.6535229 14.615371,30.9858546 14.4419492,30.3181862 C13.8502749,32.2390167 13.2688019,34.1495754 12.6771277,36.070406 C11.7386099,39.1416804 10.8000921,42.2232267 9.85137298,45.2945012 C9.63714609,45.992985 9.4229192,46.7017407 9.20869231,47.4002245 C8.96386158,48.1911547 9.31070512,49.0745313 9.94318451,49.5573069 C10.5552613,50.0298107 11.5345843,50.183888 12.2078688,49.721656 C13.8808788,48.5609403 15.5538888,47.4104963 17.2268988,46.2497806 C19.8792317,44.4111246 22.5315646,42.5827405 25.1838976,40.7440845 C25.7959744,40.3229398 26.4182525,39.8915234 27.0303293,39.4703787 C26.3468435,39.4703787 25.6531565,39.4703787 24.9696707,39.4703787 C26.6426807,40.6310945 28.3156907,41.7815384 29.9887007,42.9422542 C32.6410336,44.7809102 35.2933665,46.6092943 37.9456995,48.4479502 C38.5577763,48.8690949 39.1800544,49.3005114 39.7921312,49.721656 C40.4552145,50.183888 41.4549399,50.0298107 42.0568155,49.5573069 C42.6790936,49.0745313 43.0259371,48.1911547 42.7913077,47.4002245 C42.1996334,45.479394 41.6181604,43.5688353 41.0264862,41.6480047 C40.0879684,38.5767303 39.1494506,35.495184 38.2007315,32.4239095 C37.9865046,31.7254257 37.7722777,31.01667 37.5580508,30.3181862 C37.384629,30.9858546 37.2112073,31.6535229 37.0377855,32.3211913 C38.6597891,31.0474855 40.2817927,29.7737797 41.9037963,28.5103457 C44.4847202,26.486797 47.0656442,24.4632482 49.6465682,22.4294277 C50.2382424,21.9671957 50.8299167,21.5049638 51.421591,21.0427318 C52.0540704,20.5496844 52.1254793,19.4711432 51.8398435,18.8034749 C51.5236038,18.0536319 50.7891116,17.5400409 49.9730092,17.5400409 C48.004162,17.5400409 46.0353149,17.5400409 44.0664677,17.5400409 C40.9244734,17.5400409 37.782479,17.5400409 34.6404846,17.5400409 C33.9161937,17.5400409 33.1817015,17.5400409 32.4574106,17.5400409 C33.1102925,18.0433601 33.7733757,18.5466793 34.4262577,19.0499986 C33.7019668,17.0778089 32.9776759,15.1056193 32.2431837,13.1334297 C31.090439,9.99025246 29.927493,6.83680342 28.7747483,3.69362619 C28.509515,2.97459873 28.2442817,2.24529943 27.9790484,1.52627197 C27.6118023,0.519633509 26.581473,-0.271296707 25.4695334,0.0882170271 C24.4596066,0.406643478 23.6231016,1.53654379 24.0209516,2.61508499 Z" id="Path"></path>
        </g>
        <g id="Group" transform="translate(602.000000, 217.000000)" fill="#FFFFFF" fill-rule="nonzero">
            <polygon id="Path" points="21.995531 2 27.6533305 16.8878944 43 16.8966212 30.3973186 26.4786306 34.9825495 41 21.995531 32.2906691 9.01745052 41 13.6026814 26.4786306 1 16.8966212 16.3466695 16.8878944"></polygon>
            <path d="M20.7873619,2.24897309 C21.4141522,3.94505617 22.0409424,5.64113926 22.6765606,7.33722234 C23.6741281,10.0403547 24.6805237,12.7523209 25.6780912,15.4554533 C25.90762,16.073817 26.1371489,16.7010144 26.3666777,17.319378 C26.6403466,18.0614143 27.2406528,18.6179416 28.0704877,18.6179416 C29.7742977,18.6179416 31.4781077,18.6179416 33.1819177,18.6179416 C35.9009514,18.6179416 38.619985,18.6179416 41.3390186,18.6179416 C41.9658088,18.6179416 42.601427,18.6179416 43.2282172,18.6179416 C42.8132998,17.6108923 42.3983823,16.6038429 41.9834648,15.6056274 C40.5798079,16.7010144 39.1761509,17.7964013 37.772494,18.8829546 C35.5390021,20.6232065 33.3055102,22.3634584 31.0720183,24.1125441 C30.5599925,24.5100635 30.0479667,24.907583 29.5359409,25.3051025 C29.0680552,25.6672869 28.9179787,26.4799934 29.0857113,27.0276869 C29.5977371,28.6796011 30.1009349,30.3226816 30.6129607,31.9745959 C31.4251395,34.6158919 32.2373184,37.2660217 33.0583253,39.9073178 C33.243714,40.5080139 33.4291026,41.1175437 33.6144913,41.7182398 C34.4796383,41.0557074 35.3447854,40.3843411 36.2099324,39.7218087 C34.7621353,38.7235931 33.3143382,37.7342113 31.8665411,36.7359958 C29.571253,35.1547516 27.2759649,33.5823413 24.9806768,32.0010971 C24.4509949,31.6389127 23.912485,31.2678946 23.3828031,30.9057102 C22.8972614,30.570027 22.0850825,30.570027 21.5995408,30.9057102 C20.1517437,31.9039257 18.7039466,32.8933075 17.2561495,33.8915231 C14.9608614,35.4727672 12.6655733,37.0451776 10.3702851,38.6264217 C9.84060327,38.9886061 9.30209337,39.3596243 8.77241149,39.7218087 C9.63755855,40.3843411 10.5027056,41.0557074 11.3678527,41.7182398 C11.8798785,40.0663256 12.3830763,38.4232451 12.8951021,36.7713308 C13.7072809,34.1300348 14.5194598,31.479905 15.3404667,28.8386089 C15.5258554,28.2379128 15.711244,27.628383 15.8966327,27.0276869 C16.0643653,26.4888271 15.9142887,25.6761207 15.4464031,25.3051025 C14.0427461,24.2097155 12.6390892,23.1143285 11.2354322,22.0277753 C9.00194031,20.2875234 6.76844841,18.5472715 4.53495652,16.7981858 C4.02293071,16.4006663 3.5109049,16.0031468 2.99887909,15.6056274 C2.58396163,16.6126767 2.16904416,17.619726 1.7541267,18.6179416 C3.45793672,18.6179416 5.16174674,18.6179416 6.86555676,18.6179416 C9.58459036,18.6179416 12.303624,18.6179416 15.0226576,18.6179416 C15.6494478,18.6179416 16.285066,18.6179416 16.9118563,18.6179416 C17.7416912,18.6179416 18.3419973,18.0614143 18.6156663,17.319378 C19.2424565,15.6232949 19.8692467,13.9272118 20.504865,12.2311287 C21.5024325,9.52799632 22.508828,6.81603014 23.5063956,4.11289773 C23.7359244,3.4945341 23.9654532,2.86733672 24.194982,2.24897309 C24.5127911,1.38326402 23.8330327,0.279043263 22.9590576,0.0758666433 C21.9614901,-0.153811274 21.1316552,0.376214689 20.7873619,1.31259389 C20.1605717,3.00867697 19.5337815,4.70476005 18.8981633,6.40084314 C17.9005957,9.10397555 16.8942002,11.8159417 15.8966327,14.5190741 C15.6671039,15.1374378 15.437575,15.7646351 15.2080462,16.3829988 C15.7730402,15.9501442 16.3468623,15.5172897 16.9118563,15.0844352 C15.2080462,15.0844352 13.5042362,15.0844352 11.8004262,15.0844352 C9.08139259,15.0844352 6.36235898,15.0844352 3.64332537,15.0844352 C3.01653516,15.0844352 2.38091691,15.0844352 1.7541267,15.0844352 C1.0478842,15.0844352 0.412265955,15.5261235 0.138596988,16.1709884 C-0.108587886,16.7540169 -0.0467916674,17.6727286 0.500546267,18.0967494 C1.90420323,19.1921364 3.30786019,20.2875234 4.71151715,21.3740766 C6.94500904,23.1143285 9.17850093,24.8545804 11.4119928,26.6036661 C11.9240186,27.0011856 12.4360444,27.398705 12.9480702,27.7962245 C12.7979937,27.2220297 12.6479172,26.6478349 12.4978407,26.0736401 C11.9858148,27.7255544 11.4826171,29.3686349 10.9705913,31.0205491 C10.1584124,33.6618452 9.34623352,36.311975 8.52522662,38.953271 C8.33983797,39.5539671 8.15444931,40.163497 7.96906066,40.7641931 C7.75718791,41.4443931 8.05734097,42.2040969 8.6046789,42.6192839 C9.13436077,43.0256372 9.98185177,43.1581437 10.5645018,42.7606242 C12.0122989,41.7624086 13.4600961,40.7730268 14.9078932,39.7748113 C17.2031813,38.1935672 19.4984694,36.6211568 21.7937575,35.0399127 C22.3234394,34.6777283 22.8619493,34.3067101 23.3916312,33.9445257 C22.8001531,33.9445257 22.1998469,33.9445257 21.6083688,33.9445257 C23.056166,34.9427412 24.5039631,35.932123 25.9517602,36.9303386 C28.2470483,38.5115827 30.5423364,40.0839931 32.8376245,41.6652372 C33.3673064,42.0274216 33.9058163,42.3984398 34.4354982,42.7606242 C35.0093202,43.1581437 35.8744673,43.0256372 36.3953211,42.6192839 C36.933831,42.2040969 37.2339841,41.4443931 37.0309393,40.7641931 C36.5189135,39.1122788 36.0157158,37.4691983 35.5036899,35.8172841 C34.6915111,33.175988 33.8793322,30.5258582 33.0583253,27.8845622 C32.8729367,27.2838661 32.687548,26.6743362 32.5021593,26.0736401 C32.3520828,26.6478349 32.2020063,27.2220297 32.0519298,27.7962245 C33.4555867,26.7008375 34.8592437,25.6054505 36.2629006,24.5188973 C38.4963925,22.7786454 40.7298844,21.0383935 42.9633763,19.2893078 C43.4754021,18.8917883 43.9874279,18.4942689 44.4994537,18.0967494 C45.0467917,17.6727286 45.1085879,16.7451832 44.861403,16.1709884 C44.587734,15.5261235 43.9521158,15.0844352 43.2458733,15.0844352 C41.5420633,15.0844352 39.8382533,15.0844352 38.1344432,15.0844352 C35.4154096,15.0844352 32.696376,15.0844352 29.9773424,15.0844352 C29.3505522,15.0844352 28.714934,15.0844352 28.0881437,15.0844352 C28.6531377,15.5172897 29.2269598,15.9501442 29.7919538,16.3829988 C29.1651636,14.6869157 28.5383733,12.9908326 27.9027551,11.2947495 C26.9051876,8.59161712 25.898792,5.87965094 24.9012245,3.17651853 C24.6716957,2.5581549 24.4421669,1.93095751 24.2126381,1.31259389 C23.8948289,0.446884817 23.0031978,-0.233315168 22.0409424,0.0758666433 C21.1669673,0.349713391 20.4430687,1.32142766 20.7873619,2.24897309 Z" id="Path"></path>
        </g>
        <g id="Group" transform="translate(315.000000, 117.000000)" fill="#FFFFFF" fill-rule="nonzero">
            <polygon id="Path" points="21.995531 2 27.6533305 16.8878944 43 16.8966212 30.3973186 26.4786306 34.9825495 41 21.995531 32.2906691 9.01745052 41 13.6026814 26.4786306 1 16.8966212 16.3466695 16.8878944"></polygon>
            <path d="M20.7873619,2.24897309 C21.4141522,3.94505617 22.0409424,5.64113926 22.6765606,7.33722234 C23.6741281,10.0403547 24.6805237,12.7523209 25.6780912,15.4554533 C25.90762,16.073817 26.1371489,16.7010144 26.3666777,17.319378 C26.6403466,18.0614143 27.2406528,18.6179416 28.0704877,18.6179416 C29.7742977,18.6179416 31.4781077,18.6179416 33.1819177,18.6179416 C35.9009514,18.6179416 38.619985,18.6179416 41.3390186,18.6179416 C41.9658088,18.6179416 42.601427,18.6179416 43.2282172,18.6179416 C42.8132998,17.6108923 42.3983823,16.6038429 41.9834648,15.6056274 C40.5798079,16.7010144 39.1761509,17.7964013 37.772494,18.8829546 C35.5390021,20.6232065 33.3055102,22.3634584 31.0720183,24.1125441 C30.5599925,24.5100635 30.0479667,24.907583 29.5359409,25.3051025 C29.0680552,25.6672869 28.9179787,26.4799934 29.0857113,27.0276869 C29.5977371,28.6796011 30.1009349,30.3226816 30.6129607,31.9745959 C31.4251395,34.6158919 32.2373184,37.2660217 33.0583253,39.9073178 C33.243714,40.5080139 33.4291026,41.1175437 33.6144913,41.7182398 C34.4796383,41.0557074 35.3447854,40.3843411 36.2099324,39.7218087 C34.7621353,38.7235931 33.3143382,37.7342113 31.8665411,36.7359958 C29.571253,35.1547516 27.2759649,33.5823413 24.9806768,32.0010971 C24.4509949,31.6389127 23.912485,31.2678946 23.3828031,30.9057102 C22.8972614,30.570027 22.0850825,30.570027 21.5995408,30.9057102 C20.1517437,31.9039257 18.7039466,32.8933075 17.2561495,33.8915231 C14.9608614,35.4727672 12.6655733,37.0451776 10.3702851,38.6264217 C9.84060327,38.9886061 9.30209337,39.3596243 8.77241149,39.7218087 C9.63755855,40.3843411 10.5027056,41.0557074 11.3678527,41.7182398 C11.8798785,40.0663256 12.3830763,38.4232451 12.8951021,36.7713308 C13.7072809,34.1300348 14.5194598,31.479905 15.3404667,28.8386089 C15.5258554,28.2379128 15.711244,27.628383 15.8966327,27.0276869 C16.0643653,26.4888271 15.9142887,25.6761207 15.4464031,25.3051025 C14.0427461,24.2097155 12.6390892,23.1143285 11.2354322,22.0277753 C9.00194031,20.2875234 6.76844841,18.5472715 4.53495652,16.7981858 C4.02293071,16.4006663 3.5109049,16.0031468 2.99887909,15.6056274 C2.58396163,16.6126767 2.16904416,17.619726 1.7541267,18.6179416 C3.45793672,18.6179416 5.16174674,18.6179416 6.86555676,18.6179416 C9.58459036,18.6179416 12.303624,18.6179416 15.0226576,18.6179416 C15.6494478,18.6179416 16.285066,18.6179416 16.9118563,18.6179416 C17.7416912,18.6179416 18.3419973,18.0614143 18.6156663,17.319378 C19.2424565,15.6232949 19.8692467,13.9272118 20.504865,12.2311287 C21.5024325,9.52799632 22.508828,6.81603014 23.5063956,4.11289773 C23.7359244,3.4945341 23.9654532,2.86733672 24.194982,2.24897309 C24.5127911,1.38326402 23.8330327,0.279043263 22.9590576,0.0758666433 C21.9614901,-0.153811274 21.1316552,0.376214689 20.7873619,1.31259389 C20.1605717,3.00867697 19.5337815,4.70476005 18.8981633,6.40084314 C17.9005957,9.10397555 16.8942002,11.8159417 15.8966327,14.5190741 C15.6671039,15.1374378 15.437575,15.7646351 15.2080462,16.3829988 C15.7730402,15.9501442 16.3468623,15.5172897 16.9118563,15.0844352 C15.2080462,15.0844352 13.5042362,15.0844352 11.8004262,15.0844352 C9.08139259,15.0844352 6.36235898,15.0844352 3.64332537,15.0844352 C3.01653516,15.0844352 2.38091691,15.0844352 1.7541267,15.0844352 C1.0478842,15.0844352 0.412265955,15.5261235 0.138596988,16.1709884 C-0.108587886,16.7540169 -0.0467916674,17.6727286 0.500546267,18.0967494 C1.90420323,19.1921364 3.30786019,20.2875234 4.71151715,21.3740766 C6.94500904,23.1143285 9.17850093,24.8545804 11.4119928,26.6036661 C11.9240186,27.0011856 12.4360444,27.398705 12.9480702,27.7962245 C12.7979937,27.2220297 12.6479172,26.6478349 12.4978407,26.0736401 C11.9858148,27.7255544 11.4826171,29.3686349 10.9705913,31.0205491 C10.1584124,33.6618452 9.34623352,36.311975 8.52522662,38.953271 C8.33983797,39.5539671 8.15444931,40.163497 7.96906066,40.7641931 C7.75718791,41.4443931 8.05734097,42.2040969 8.6046789,42.6192839 C9.13436077,43.0256372 9.98185177,43.1581437 10.5645018,42.7606242 C12.0122989,41.7624086 13.4600961,40.7730268 14.9078932,39.7748113 C17.2031813,38.1935672 19.4984694,36.6211568 21.7937575,35.0399127 C22.3234394,34.6777283 22.8619493,34.3067101 23.3916312,33.9445257 C22.8001531,33.9445257 22.1998469,33.9445257 21.6083688,33.9445257 C23.056166,34.9427412 24.5039631,35.932123 25.9517602,36.9303386 C28.2470483,38.5115827 30.5423364,40.0839931 32.8376245,41.6652372 C33.3673064,42.0274216 33.9058163,42.3984398 34.4354982,42.7606242 C35.0093202,43.1581437 35.8744673,43.0256372 36.3953211,42.6192839 C36.933831,42.2040969 37.2339841,41.4443931 37.0309393,40.7641931 C36.5189135,39.1122788 36.0157158,37.4691983 35.5036899,35.8172841 C34.6915111,33.175988 33.8793322,30.5258582 33.0583253,27.8845622 C32.8729367,27.2838661 32.687548,26.6743362 32.5021593,26.0736401 C32.3520828,26.6478349 32.2020063,27.2220297 32.0519298,27.7962245 C33.4555867,26.7008375 34.8592437,25.6054505 36.2629006,24.5188973 C38.4963925,22.7786454 40.7298844,21.0383935 42.9633763,19.2893078 C43.4754021,18.8917883 43.9874279,18.4942689 44.4994537,18.0967494 C45.0467917,17.6727286 45.1085879,16.7451832 44.861403,16.1709884 C44.587734,15.5261235 43.9521158,15.0844352 43.2458733,15.0844352 C41.5420633,15.0844352 39.8382533,15.0844352 38.1344432,15.0844352 C35.4154096,15.0844352 32.696376,15.0844352 29.9773424,15.0844352 C29.3505522,15.0844352 28.714934,15.0844352 28.0881437,15.0844352 C28.6531377,15.5172897 29.2269598,15.9501442 29.7919538,16.3829988 C29.1651636,14.6869157 28.5383733,12.9908326 27.9027551,11.2947495 C26.9051876,8.59161712 25.898792,5.87965094 24.9012245,3.17651853 C24.6716957,2.5581549 24.4421669,1.93095751 24.2126381,1.31259389 C23.8948289,0.446884817 23.0031978,-0.233315168 22.0409424,0.0758666433 C21.1669673,0.349713391 20.4430687,1.32142766 20.7873619,2.24897309 Z" id="Path"></path>
        </g>
        <g id="Group" transform="translate(182.000000, 408.000000)" fill="#FFFFFF" fill-rule="nonzero">
            <polygon id="Path" points="25.9948925 2 32.4609491 19.5600806 50 19.5703737 35.5969355 30.8722309 40.8371994 48 25.9948925 37.7274558 11.1628006 48 16.4030645 30.8722309 2 19.5703737 19.5390509 19.5600806"></polygon>
            <path d="M24.0209516,2.61508499 C24.7452425,4.58727462 25.4695334,6.55946425 26.2040256,8.53165388 C27.3567703,11.6748311 28.5197163,14.8282801 29.672461,17.9714574 C29.9376943,18.6904848 30.2029276,19.4197841 30.4681609,20.1388116 C30.7844005,21.0016446 31.4780876,21.6487693 32.437008,21.6487693 C34.4058551,21.6487693 36.3747023,21.6487693 38.3435494,21.6487693 C41.4855438,21.6487693 44.6275382,21.6487693 47.7695326,21.6487693 C48.4938235,21.6487693 49.2283157,21.6487693 49.9526066,21.6487693 C49.4731464,20.4777817 48.9936862,19.3067941 48.514226,18.1460783 C46.8922224,19.4197841 45.2702188,20.6934899 43.6482152,21.9569239 C41.0672913,23.9804726 38.4863673,26.0040214 35.9054434,28.0378419 C35.3137691,28.5000739 34.7220948,28.9623058 34.1304206,29.4245378 C33.5897527,29.8456824 33.4163309,30.79069 33.6101552,31.4275429 C34.2018295,33.3483734 34.7833025,35.2589321 35.3749768,37.1797626 C36.3134946,40.2510371 37.2520124,43.3325834 38.2007315,46.4038579 C38.4149584,47.1023417 38.6291852,47.8110973 38.8434121,48.5095812 C39.8431376,47.7391946 40.8428631,46.9585362 41.8425886,46.1881496 C40.1695786,45.0274339 38.4965686,43.8769899 36.8235586,42.7162741 C34.1712257,40.8776182 31.5188927,39.049234 28.8665598,37.2105781 C28.254483,36.7894334 27.6322049,36.3580169 27.020128,35.9368723 C26.4590576,35.5465431 25.5205398,35.5465431 24.9594694,35.9368723 C23.2864594,37.0975881 21.6134494,38.248032 19.9404394,39.4087478 C17.2881065,41.2474037 14.6357735,43.0757879 11.9834406,44.9144438 C11.3713638,45.3355885 10.7490857,45.767005 10.1370088,46.1881496 C11.1367343,46.9585362 12.1364598,47.7391946 13.1361853,48.5095812 C13.7278596,46.5887506 14.3093326,44.6781919 14.9010068,42.7573614 C15.8395246,39.6860869 16.7780424,36.6045406 17.7267615,33.5332662 C17.9409884,32.8347823 18.1552153,32.1260267 18.3694422,31.4275429 C18.5632665,30.8009618 18.3898448,29.8559543 17.8491769,29.4245378 C16.2271733,28.150832 14.6051697,26.8771262 12.9831661,25.6136922 C10.4022421,23.5901434 7.82131817,21.5665947 5.2403942,19.5327742 C4.64871993,19.0705422 4.05704567,18.6083103 3.4653714,18.1460783 C2.98591121,19.3170659 2.50645103,20.4880535 2.02699085,21.6487693 C3.99583798,21.6487693 5.96468512,21.6487693 7.93353225,21.6487693 C11.0755266,21.6487693 14.217521,21.6487693 17.3595154,21.6487693 C18.0838063,21.6487693 18.8182985,21.6487693 19.5425894,21.6487693 C20.5015098,21.6487693 21.1951969,21.0016446 21.5114366,20.1388116 C22.2357275,18.166622 22.9600184,16.1944323 23.6945106,14.2222427 C24.8472553,11.0790655 26.0102013,7.92561644 27.162946,4.78243922 C27.4281793,4.06341175 27.6934126,3.33411246 27.9586459,2.61508499 C28.325892,1.60844653 27.5403934,0.32446891 26.5304666,0.0882170271 C25.3777219,-0.178850319 24.4188015,0.437458941 24.0209516,1.52627197 C23.2966607,3.4984616 22.5723698,5.47065123 21.8378776,7.44284086 C20.6851329,10.5860181 19.5221869,13.7394671 18.3694422,16.8826443 C18.1042089,17.6016718 17.8389756,18.3309711 17.5737423,19.0499986 C18.2266243,18.5466793 18.8897075,18.0433601 19.5425894,17.5400409 C17.5737423,17.5400409 15.6048952,17.5400409 13.636048,17.5400409 C10.4940537,17.5400409 7.35205926,17.5400409 4.21006487,17.5400409 C3.48577396,17.5400409 2.75128176,17.5400409 2.02699085,17.5400409 C1.21088841,17.5400409 0.476396214,18.0536319 0.160156519,18.8034749 C-0.125479335,19.4814151 -0.0540703712,20.5496844 0.578409019,21.0427318 C2.20041262,22.3164376 3.82241621,23.5901434 5.44441981,24.8535774 C8.02534378,26.8771262 10.6062677,28.9006749 13.1871917,30.9344955 C13.778866,31.3967274 14.3705402,31.8589593 14.9622145,32.3211913 C14.7887927,31.6535229 14.615371,30.9858546 14.4419492,30.3181862 C13.8502749,32.2390167 13.2688019,34.1495754 12.6771277,36.070406 C11.7386099,39.1416804 10.8000921,42.2232267 9.85137298,45.2945012 C9.63714609,45.992985 9.4229192,46.7017407 9.20869231,47.4002245 C8.96386158,48.1911547 9.31070512,49.0745313 9.94318451,49.5573069 C10.5552613,50.0298107 11.5345843,50.183888 12.2078688,49.721656 C13.8808788,48.5609403 15.5538888,47.4104963 17.2268988,46.2497806 C19.8792317,44.4111246 22.5315646,42.5827405 25.1838976,40.7440845 C25.7959744,40.3229398 26.4182525,39.8915234 27.0303293,39.4703787 C26.3468435,39.4703787 25.6531565,39.4703787 24.9696707,39.4703787 C26.6426807,40.6310945 28.3156907,41.7815384 29.9887007,42.9422542 C32.6410336,44.7809102 35.2933665,46.6092943 37.9456995,48.4479502 C38.5577763,48.8690949 39.1800544,49.3005114 39.7921312,49.721656 C40.4552145,50.183888 41.4549399,50.0298107 42.0568155,49.5573069 C42.6790936,49.0745313 43.0259371,48.1911547 42.7913077,47.4002245 C42.1996334,45.479394 41.6181604,43.5688353 41.0264862,41.6480047 C40.0879684,38.5767303 39.1494506,35.495184 38.2007315,32.4239095 C37.9865046,31.7254257 37.7722777,31.01667 37.5580508,30.3181862 C37.384629,30.9858546 37.2112073,31.6535229 37.0377855,32.3211913 C38.6597891,31.0474855 40.2817927,29.7737797 41.9037963,28.5103457 C44.4847202,26.486797 47.0656442,24.4632482 49.6465682,22.4294277 C50.2382424,21.9671957 50.8299167,21.5049638 51.421591,21.0427318 C52.0540704,20.5496844 52.1254793,19.4711432 51.8398435,18.8034749 C51.5236038,18.0536319 50.7891116,17.5400409 49.9730092,17.5400409 C48.004162,17.5400409 46.0353149,17.5400409 44.0664677,17.5400409 C40.9244734,17.5400409 37.782479,17.5400409 34.6404846,17.5400409 C33.9161937,17.5400409 33.1817015,17.5400409 32.4574106,17.5400409 C33.1102925,18.0433601 33.7733757,18.5466793 34.4262577,19.0499986 C33.7019668,17.0778089 32.9776759,15.1056193 32.2431837,13.1334297 C31.090439,9.99025246 29.927493,6.83680342 28.7747483,3.69362619 C28.509515,2.97459873 28.2442817,2.24529943 27.9790484,1.52627197 C27.6118023,0.519633509 26.581473,-0.271296707 25.4695334,0.0882170271 C24.4596066,0.406643478 23.6231016,1.53654379 24.0209516,2.61508499 Z" id="Path"></path>
        </g>
        <text id="A-mysterious-frenzy" font-family="AvenirNextCondensed-Regular, Avenir Next Condensed" font-size="32" font-style="condensed" font-weight="normal" letter-spacing="0.832" fill="#FFFFFF">
            <tspan x="148" y="832">A mysterious frenzy washes over the battlefield. All </tspan>
            <tspan x="148" y="876">lizards can attack multiple times, limited only by </tspan>
            <tspan x="148" y="920">the player’s ammo (maximum total attacks per </tspan>
            <tspan x="148" y="964">player per round is 3).</tspan>
        </text>
        <text id="FRENZY" font-family="AvenirNextCondensed-Regular, Avenir Next Condensed" font-size="80" font-style="condensed" font-weight="normal" letter-spacing="-4" fill="#FFFFFF">
            <tspan x="148" y="775">FRENZY</tspan>
        </text>
    </g>
</svg>