<?xml version="1.0" encoding="UTF-8"?>
<svg width="900px" height="1200px" viewBox="0 0 900 1200" version="1.1" xmlns="http://www.w3.org/2000/svg" xmlns:xlink="http://www.w3.org/1999/xlink">
    <title>Laser I</title>
    <defs>
        <linearGradient x1="65.0390187%" y1="51.8834459%" x2="37.7850012%" y2="100%" id="linearGradient-1">
            <stop stop-color="#1C0505" offset="0%"></stop>
            <stop stop-color="#540E10" offset="100%"></stop>
        </linearGradient>
        <rect id="path-2" x="148" y="695" width="172" height="172" rx="8"></rect>
        <filter x="-7.6%" y="-7.6%" width="115.1%" height="115.1%" filterUnits="objectBoundingBox" id="filter-3">
            <feMorphology radius="12" operator="erode" in="SourceAlpha" result="shadowSpreadInner1"></feMorphology>
            <feGaussianBlur stdDeviation="7" in="shadowSpreadInner1" result="shadowBlurInner1"></feGaussianBlur>
            <feOffset dx="0" dy="0" in="shadowBlurInner1" result="shadowOffsetInner1"></feOffset>
            <feComposite in="shadowOffsetInner1" in2="SourceAlpha" operator="arithmetic" k2="-1" k3="1" result="shadowInnerInner1"></feComposite>
            <feColorMatrix values="0 0 0 0 0   0 0 0 0 0   0 0 0 0 0  0 0 0 0.3 0" type="matrix" in="shadowInnerInner1"></feColorMatrix>
        </filter>
    </defs>
    <g id="Laser-I" stroke="none" stroke-width="1" fill="none" fill-rule="evenodd">
        <rect id="Rectangle" fill="#000000" x="0" y="0" width="900" height="1200"></rect>
        <rect id="Rectangle" fill="url(#linearGradient-1)" x="42" y="41" width="816" height="1110"></rect>
        <rect id="Rectangle" fill="#2988FF" x="652" y="72" width="148" height="50" rx="5"></rect>
        <circle id="Oval" fill="#FFFFFF" cx="677.5" cy="97.5" r="8.5"></circle>
        <text id="UPGRADE" font-family="AvenirNextCondensed-DemiBold, Avenir Next Condensed" font-size="23" font-style="condensed" font-weight="500" letter-spacing="0.598" fill="#FFFFFF">
            <tspan x="695" y="106">UPGRADE</tspan>
        </text>
        <rect id="Rectangle" stroke="#000000" stroke-width="10" fill-opacity="0.4" fill="#000000" x="106" y="652" width="688" height="433" rx="15"></rect>
        <text id="Attack-Slot" font-family="AvenirNextCondensed-Italic, Avenir Next Condensed" font-size="44" font-style="italic" font-weight="normal" letter-spacing="1.144" fill="#FFFFFF">
            <tspan x="355" y="840">Attack Slot</tspan>
        </text>
        <text id="Equip-to-an-empty-up" font-family="AvenirNextCondensed-Regular, Avenir Next Condensed" font-size="32" font-style="condensed" font-weight="normal" letter-spacing="0.832" fill="#FFFFFF">
            <tspan x="148" y="921">Equip to an empty upgrade slot to add one wave of </tspan>
            <tspan x="148" y="965">attack. Roll one die for this wave. Roll must exceed </tspan>
            <tspan x="148" y="1009">highest defense die to stun.</tspan>
        </text>
        <text id="LASER-I" font-family="AvenirNextCondensed-Regular, Avenir Next Condensed" font-size="80" font-style="condensed" font-weight="normal" letter-spacing="-4" fill="#FFFFFF">
            <tspan x="351" y="781">LASER I</tspan>
        </text>
        <text id="I" font-family="AvenirNextCondensed-Heavy, Avenir Next Condensed" font-size="55" font-style="condensed" font-weight="600" letter-spacing="1.43" fill="#FFFFFF">
            <tspan x="107" y="114">I</tspan>
        </text>
        <g id="Rectangle">
            <use fill="#8A1D1F" fill-rule="evenodd" xlink:href="#path-2"></use>
            <use fill="black" fill-opacity="1" filter="url(#filter-3)" xlink:href="#path-2"></use>
            <rect stroke="#FF393D" stroke-width="3" stroke-linejoin="square" x="149.5" y="696.5" width="169" height="169" rx="8"></rect>
        </g>
        <path d="M278.184763,829.49187 L273.751116,825.100187 C272.919807,824.276747 273.19691,822.629866 274.582425,822.355386 L298.136172,816.042342 C299.521686,815.767861 300.630098,816.865782 300.352995,818.238183 L293.979628,841.568998 C293.702525,842.941399 292.039908,843.215879 291.208599,842.392438 L286.774953,838.000756 L280.124483,844.58828 C279.570277,845.13724 278.461865,845.13724 277.630557,844.58828 L271.811396,838.824196 C271.25719,838.275236 271.25719,837.177315 271.811396,836.353875 L278.461865,829.76635 L278.184763,829.49187 Z" id="Path" fill="#FFFFFF" transform="translate(285.895741, 830.500000) rotate(-45.000000) translate(-285.895741, -830.500000) "></path>
        <text id="A" font-family="AvenirNextCondensed-Regular, Avenir Next Condensed" font-size="72" font-style="condensed" font-weight="normal" letter-spacing="1.872" fill="#FFFFFF">
            <tspan x="216.255741" y="804">A</tspan>
        </text>
        <g id="Group" transform="translate(128.000000, 217.000000)" fill="#FFFFFF" fill-rule="nonzero">
            <path d="M191.15145,36.7561616 C192.065222,36.441802 192.994224,36.1566851 193.968914,35.9519859 C195.598473,35.6083835 197.273722,35.432927 198.941355,35.432927 C207.850631,35.432927 215.876593,40.4992339 219.638287,48 C221.35161,47.1446495 222.371988,45.3023561 221.99125,43.3869558 L220.247469,34.7018582 L250.70653,26.9379073 C254.780429,25.8924789 258.740107,28.2757633 259.524428,32.245467 L259.897552,34.1023818 C260.247831,35.8935004 261.938309,35.4621698 261.938309,35.4621698 C261.938309,35.4621698 267.74076,33.8976825 268.70022,33.6564298 C270.238403,33.2616526 270.00996,31.9311074 269.956656,31.7337188 C266.865062,20.59223 255.252545,12.8648326 243.205986,14.1368923 L192.666789,21.5718622 C190.214834,21.9300859 188.615734,24.108671 189.080234,26.4334699 L191.15145,36.7561616 Z" id="Path"></path>
            <path d="M260.282411,84.3925138 C260.282411,84.3925138 258.819497,83.4446418 257.912794,85.1263501 L256.960376,86.8615674 C254.948868,90.5613257 250.422976,91.7308775 246.87236,89.4452829 L218.116943,71 C214.939675,75.9457514 209.903286,79.6913745 203.746853,81.0596736 C202.184887,81.4036594 200.584824,81.5794743 199,81.5947626 L235.671919,99.9100953 C246.742831,104.863491 260.267173,100.720373 266.743618,90.5613257 C266.865528,90.3855108 267.497933,89.1242295 266.164548,88.2757312 C265.311181,87.7329981 260.282411,84.3925138 260.282411,84.3925138 Z" id="Path"></path>
            <path d="M54.0247178,192.983396 C48.5961002,187.303233 41.6230025,183.683076 34,182.43344 L91.183988,128.797553 L93.0037218,137.734343 L178.026579,58 C178.11833,58.7043402 178.233019,59.4238276 178.393584,60.1357413 C179.127594,63.445383 180.595615,66.4596563 182.591205,69.0498107 L95.6339253,150.601806 L97.7059752,160.735217 L152.435616,109.401689 C150.814677,106.432858 151.304017,102.653656 153.895991,100.207399 C156.495611,97.776289 160.333873,97.5036411 163.231684,99.2682785 L189.235527,74.8814448 C190.627088,75.6918147 192.095109,76.3658608 193.639589,76.8884358 L166.221247,102.600641 C167.559286,105.501311 167.001133,109.030585 164.531494,111.340518 C164.302116,111.552578 164.042154,111.719196 163.797484,111.908535 L167.972167,123.427906 C169.409604,123.632391 170.762935,124.541218 171.41284,126.35887 L174.861159,135.909117 C175.526356,137.734343 175.0676,139.279348 174.073628,140.347218 L178.041871,151.306146 C180.022169,151.412176 181.9413,152.540635 182.843521,155.032333 L223,266 C221.057931,265.681911 219.085279,265.484999 217.097334,265.484999 C215.055868,265.484999 213.044986,265.666764 211.064687,265.992426 L172.253894,158.788814 C171.321089,156.19866 172.18508,154.055345 173.775436,152.729974 L169.837777,141.839208 C168.40034,141.642295 167.047008,140.733469 166.389458,138.908244 L162.948784,129.357996 C162.283588,127.53277 162.74999,125.980192 163.72867,124.927469 L159.561633,113.385377 C158.208301,113.445966 156.862616,113.158171 155.631619,112.521992 L98.753469,165.870084 L100.825519,176.011069 L63.2839516,211.20536 C62.1064768,204.427032 58.9334115,198.118264 54.0247178,192.983396 Z" id="Path"></path>
            <path d="M156.484559,111.371115 C157.804559,112.763115 159.988559,112.819115 161.372559,111.507115 C162.756559,110.195115 162.820559,108.011115 161.508559,106.627115 C160.196559,105.243115 158.012559,105.179115 156.628559,106.483115 C155.244559,107.795115 155.180559,109.987115 156.484559,111.371115 Z" id="Path"></path>
            <path d="M186.66053,70.6786704 C183.53651,67.3822715 181.888158,63.0655586 182.005898,58.5290859 C182.139336,53.9847645 184.015317,49.7779317 187.312021,46.6542013 C190.483137,43.6481994 194.635414,42 198.999622,42 C203.717049,42 208.096956,43.8915051 211.346564,47.3134811 C214.462734,50.60988 216.118936,54.9265928 215.993347,59.4630656 C215.867758,63.9916898 213.991776,68.2142198 210.687223,71.3379501 C207.516108,74.343952 203.37168,76 199.007472,76 C194.290045,76 189.910138,74.1084949 186.66053,70.6786704 Z" id="Path"></path>
            <path d="M192.055018,62.6637715 C194.902597,65.6652607 199.641145,65.7912491 202.651867,62.9453927 C205.662588,60.0995364 205.796068,55.3564424 202.948489,52.3401311 C200.100911,49.338642 195.354946,49.2052424 192.344225,52.0510988 C189.333504,54.9043663 189.207439,59.6548713 192.055018,62.6637715 Z" id="Path"></path>
            <path d="M48.0782563,239.193837 C42.7629729,244.237819 35.8035552,247 28.4912867,247 C20.6910332,247 13.1460334,243.742428 7.78570519,238.08296 C-3.01002585,226.673953 -2.52204079,208.599684 8.89680964,197.806163 C14.2120931,192.777193 21.1715108,190 28.4912867,190 C36.2915402,190 43.8290325,193.250066 49.1893608,198.909534 C54.4220621,204.426389 57.1923158,211.669608 56.9896143,219.280616 C56.7869128,226.884119 53.6112562,233.969713 48.0782563,239.193837 Z" id="Path"></path>
            <path d="M36.4415144,212.06071 C31.5062564,206.852664 23.2808263,206.617714 18.0557197,211.567316 C12.8462806,216.493423 12.6269358,224.724485 17.5621939,229.948194 C22.497452,235.148409 30.7307158,235.375527 35.9401549,230.441588 C41.1495939,225.499818 41.3767725,217.276587 36.4415144,212.06071 Z" id="Path"></path>
            <path d="M238.189339,282.915866 C243.429545,288.4395 246.19229,295.666754 245.989589,303.291771 C245.786887,310.901777 242.626247,317.971429 237.085742,323.20237 C231.770461,328.230678 224.811047,331 217.498781,331 C209.691024,331 202.153535,327.750362 196.785702,322.091639 C185.989975,310.676629 186.47796,292.60474 197.896806,281.81264 C203.219594,276.784332 210.179009,274 217.498781,274 C225.306539,274 232.844028,277.257143 238.189339,282.915866 Z" id="Path"></path>
            <path d="M224.44193,293.045795 C219.507249,287.844107 211.282779,287.632592 206.058283,292.560095 C200.849453,297.495431 200.622301,305.728826 205.564815,310.938348 C210.499497,316.155703 218.731799,316.375052 223.940629,311.431881 C229.14946,306.504379 229.376612,298.270984 224.44193,293.045795 Z" id="Path"></path>
            <path d="M182.347315,320 L149.726409,303.986393 L147.240014,279.854155 L94.9215012,254.536552 L74.6953486,267.120802 L42,251.069919 C46.0348085,249.452157 49.7718452,247.066517 53.010114,244.009916 C59.7695349,237.605964 63.6331246,228.943109 63.8862306,219.624204 C63.9085635,218.751954 63.871342,217.864794 63.8341205,217 L187,277.49088 C176.10155,289.18797 174.463805,306.580776 182.347315,320 Z" id="Path"></path>
            <path d="M76.7576728,254.413107 C74.77698,253.433078 72.3801105,254.258772 71.4090315,256.234262 C70.4379525,258.240619 71.254892,260.625097 73.2355848,261.581975 C75.2162776,262.56972 77.6131471,261.744027 78.5842261,259.768537 C79.570719,257.800764 78.7383656,255.393135 76.7576728,254.413107 Z" id="Path"></path>
            <path d="M87.7648213,247.411585 C85.7832953,246.438525 83.3854176,247.249408 82.4139301,249.226418 C81.4347325,251.218873 82.2520156,253.605186 84.2412518,254.593691 C86.2227777,255.559028 88.6206555,254.748145 89.592143,252.75569 C90.5636304,250.786402 89.7386371,248.384644 87.7648213,247.411585 Z" id="Path"></path>
            <path d="M154.244264,288.586365 C156.225975,289.566785 158.624075,288.740762 159.595653,286.779922 C160.55952,284.772762 159.742161,282.37961 157.760451,281.414629 C155.77874,280.434209 153.388351,281.252513 152.409062,283.236513 C151.437484,285.220513 152.254843,287.613665 154.244264,288.586365 Z" id="Path"></path>
            <path d="M160.751043,295.406106 C158.77114,294.441678 156.38293,295.251797 155.412238,297.234662 C154.433842,299.232957 155.25816,301.617023 157.238063,302.589167 C159.217966,303.56131 161.606177,302.751191 162.584572,300.760611 C163.570672,298.793178 162.738651,296.401396 160.751043,295.406106 Z" id="Path"></path>
            <path d="M314.174283,326 L317.82678,315.654578 L279.204038,315.654578 C277.448459,315.654578 276.02763,314.221903 276.02763,312.434829 C276.02763,310.662837 277.44102,309.20754 279.204038,309.20754 L320.103082,309.20754 L323.450584,299.714183 L279.204038,299.714183 C277.448459,299.714183 276.02763,298.289048 276.02763,296.501975 C276.02763,294.707361 277.44102,293.274686 279.204038,293.274686 L325.726886,293.274686 L329,284 L245.297556,284 C249.693943,290.333932 252,297.866786 251.791711,305.76158 C251.5983,313.143627 249.210414,320.141113 245,326 L314.174283,326 L314.174283,326 Z" id="Path"></path>
            <path d="M402.028738,33.5416662 L429.450167,34 C430.684947,34.0152828 431.77994,33.2932117 432.276959,32.2372798 L432.533234,32.2372798 L432.836104,14.0146904 L432.999188,3.56407025 C433.038018,1.87147354 431.678983,0.473916613 429.978249,0.442859792 L402.564586,0 C400.871618,-0.022992515 399.48152,1.31245077 399.44269,3.02057589 L399.388329,5.51288574 L399.046629,27.1905464 L399,30.42822 C398.992268,32.1130525 400.33577,33.5106094 402.028738,33.5416662 Z" id="Path"></path>
            <path d="M450.78805,28.3712399 L450.999428,17.8647831 C451.033249,16.3850956 449.562054,15.1756707 447.718832,15.1486444 L436.31284,15 L436,30.8576554 L447.380626,30.9995432 C449.249213,31.0265695 450.754229,29.8509274 450.78805,28.3712399 Z" id="Path"></path>
            <path d="M636.86266,103.244912 L562.859337,113.686274 C550.329878,115.271056 547.882657,110.569789 544.385526,105.914018 C542.772059,103.730204 538.255895,96.170263 548.538852,94.6764734 C574.8098,90.8320502 577.071742,101.516059 586.659905,99.8402843 C589.809639,99.2867481 634.508079,87.1013674 634.508079,87.1013674 C645.48583,85.5772469 647.809532,101.720791 636.86266,103.244912 Z" id="Path"></path>
            <path d="M634.036003,94.8638515 C632.300003,94.8318515 630.876003,96.2158515 630.868003,97.9518515 C630.836003,99.6798515 632.212003,101.119851 633.948003,101.135851 C635.684003,101.175851 637.108003,99.7838515 637.132003,98.0558515 C637.164003,96.3118515 635.772003,94.8878515 634.036003,94.8638515 Z" id="Path"></path>
            <path d="M261.269577,42.2359915 C261.269577,42.2359915 266.970459,40.635648 267.90925,40.3865379 C270.347077,39.737342 272.042957,38.2502303 273.012031,36.4536182 L320.133265,37.2235948 L320.216545,31.9092465 L300.40352,32.2413933 C298.753065,32.2187469 297.43573,30.8524159 297.466014,29.2143284 L297.897554,2.92944095 C297.927838,1.28380469 299.290599,-0.0296848095 300.933482,0 L352.58211,2.56709902 L394.986679,6.83971427 L394.615705,28.4820958 L386.878253,29.0029623 L386.719264,38.3106206 L461.860372,39.5486222 C465.903228,39.6165613 469.135999,42.938029 469.05272,46.969083 L468.946727,53.732799 L472.868449,53.7931893 L473.413554,53.2723228 C477.600257,49.3167567 484.270213,46.1538136 488.320641,46.214204 L533.791421,46.9539854 L559.767153,47.3842664 L605.260645,48.1391455 C608.236006,48.1768894 612.551415,50.0112454 616.230868,52.6004805 L616.404999,41.4433686 C616.465566,38.8692311 618.547562,36.8537041 621.07624,36.8914481 C622.34815,36.9140944 623.483783,37.4500585 624.316582,38.295523 L629.593494,45.0516903 C630.358154,46.0934233 630.978967,47.074766 630.948683,48.3580604 L630.819978,54.812276 L636.952401,54.9179591 C639.185814,54.9481542 640.980116,56.790059 640.949832,59.0320497 L640.874123,63.1461404 L642.002186,63.1687867 C644.258312,63.2065307 646.029901,65.0484355 646,67.2904262 L645.825487,78.1380377 C645.795203,80.3800284 643.925193,82.1615429 641.684209,82.1313477 L630.683702,81.9652743 L630.645848,84.4035336 C630.645848,84.9545953 630.517142,85.4830106 630.312728,85.9585844 C630.115885,85.9736819 629.896329,86.0038771 629.699486,86.0340723 C629.699486,86.0340723 585.962441,98.1498805 582.873516,98.7009422 C579.300055,99.3350406 575.499467,96.7910983 572.312121,95.5153528 C566.724803,93.2960084 559.055489,91.5371403 545.571729,93.5451185 C539.015337,94.5113637 536.16111,98.0064535 536.062689,102.165837 L440.056202,100.89764 L433.916208,100.580591 C434.385603,102.573472 434.61273,104.656938 434.597588,106.800794 C434.537021,109.827859 433.916208,112.719046 432.886566,115.406415 L427.094834,113.526766 C427.935203,111.398007 428.465165,109.110724 428.50302,106.70266 C428.540874,104.460669 428.192613,102.286618 427.503662,100.263542 L406.539861,99.1916136 L397.666775,104.853206 C397.7122,106.936672 398.113458,108.937102 398.764554,110.824299 C399.415651,109.299444 401.119102,108.484174 402.708989,109.01259 L463.382121,128.669639 L464.979579,123.747828 L475.457695,127.144784 L474.549188,129.937836 L478.819171,131.326813 L482.20336,120.947227 C483.021016,118.403285 485.76925,117.006758 488.31307,117.844674 C490.872032,118.667492 492.257505,121.407703 491.432278,123.944097 L488.05566,134.323683 L507.724838,140.702411 L509.140595,136.369405 C509.980964,133.825463 512.706485,132.428937 515.280589,133.259304 C517.824409,134.089671 519.225024,136.814784 518.384655,139.358726 L512.441504,157.626799 C511.97968,159.023325 510.919755,160.132997 509.534281,160.653863 L482.793889,170.799437 C482.733322,171.071194 482.703039,171.34295 482.634901,171.614707 C482.400203,172.324293 482.089796,172.988587 481.733964,173.607587 L496.898462,191 L484.027945,191 L473.246994,178.635082 C472.081077,178.680374 470.892446,178.559594 469.726529,178.167057 C464.343625,176.430835 461.398547,170.663559 463.154994,165.296369 C464.245203,161.997548 466.826877,159.627228 469.938514,158.691178 L475.457695,141.759242 L471.18014,140.370264 L470.264062,143.231256 L459.793518,139.8343 L461.436402,134.799257 L401.028251,115.225244 C401.815624,116.410404 402.754415,117.527625 403.768914,118.524065 C406.70642,121.317118 402.481862,125.687867 399.551927,122.894815 C395.607492,119.105322 392.866829,114.108023 391.958322,108.529467 L388.195588,110.94508 C390.292726,119.505408 398.158883,126.020014 407.758774,126.163441 C411.279239,126.223831 414.580149,125.416111 417.487371,123.959194 L424.899275,126.352161 C420.212893,130.103909 414.178891,132.323254 407.667924,132.217571 C396.0996,132.028851 386.287724,124.600841 382.86568,114.357133 L361.084223,128.299749 L343.004932,160.23868 L343.512181,160.563278 C352.635107,166.41359 343.83773,180.061803 334.707233,174.219039 L315.696723,162.035292 C310.684792,158.819507 311.078478,153.2485 313.962988,149.851545 L334.366543,113.821169 L334.351401,113.738132 C335.858009,111.352715 336.736233,108.529467 336.789229,105.502402 C336.857367,101.735556 335.60817,98.2480148 333.465607,95.4776088 L319.694154,94.7755713 C312.887921,94.4358758 310.677221,87.913721 312.660795,83.2410199 L274.912325,82.6220191 L274.821474,88.2156726 C274.798762,89.5593573 273.693411,90.6312855 272.338222,90.6010903 L271.013315,90.578444 C271.126879,89.6801379 271.126879,88.7667343 270.937606,87.8835259 C270.483353,85.792511 269.203872,83.9732525 267.273295,82.7277022 C266.463209,82.2143844 261.542129,78.9684046 261.473991,78.9382095 C260.86832,78.5456724 259.225436,77.6473664 257.037448,77.6473664 C254.069658,77.6473664 251.412275,79.277905 249.935951,81.9879207 L248.989589,83.7165937 C248.860884,83.9430574 248.709466,84.063838 248.527765,84.063838 C248.414201,84.063838 248.277925,84.0185453 248.126508,83.920411 L221,66.6261327 L221.204414,54.2763119 C222.476324,53.4836889 223.596816,52.4419559 224.467469,51.1662103 C224.777875,50.7132829 225.005002,50.2377091 225.247271,49.7470378 C225.277554,49.7470378 225.315409,49.739489 225.353263,49.739489 L238.382769,49.9508551 L238.450907,45.6329471 C238.526616,41.1640633 240.866022,37.25379 244.348632,34.9740553 L250.026802,33.4718461 C250.117652,33.4491997 250.200932,33.4341021 250.26907,33.4341021 C250.549193,33.4341021 250.708182,33.5926267 250.768749,33.9398711 L251.139723,35.8270686 C251.904383,39.8354762 255.0993,42.5228455 259.096731,42.5228455 L259.096731,42.5228455 C259.997667,42.5228455 260.716902,42.3794185 261.269577,42.2359915 Z" id="Path"></path>
            <path d="M257.999594,46.0509288 C258.030688,43.8432376 256.27387,42.0164509 254.066187,42.0009037 C251.858504,41.9542624 250.039498,43.7188606 250.00063,45.9265518 C249.961762,48.1420166 251.726354,49.9610298 253.934037,49.9998976 C256.133946,50.0154447 257.952952,48.25862 257.999594,46.0509288 Z" id="Path"></path>
            <path d="M479,159.281958 C479.276932,159.499547 479.522215,159.7534 479.791236,160 L504.548996,151.376247 L505,150.12874 L484.427876,144 L479,159.281958 Z" id="Path"></path>
            <path d="M475.1486,163.456 C473.1886,162.816 471.0846,163.888 470.4606,165.848 C469.8126,167.808 470.9086,169.912 472.8446,170.544 C474.8046,171.184 476.9086,170.112 477.5486,168.152 C478.1726,166.2 477.1006,164.096 475.1486,163.456 Z" id="Path"></path>
            <path d="M497,85.3365717 C496.946374,82.8085717 494.560024,80.7205717 491.563681,80.6645717 C488.567337,80.6085717 486.100548,82.6165717 486,85.1765717 L497,85.3365717 Z" id="Path"></path>
            <path d="M513,85.3085807 C512.899513,82.8045807 510.528015,80.7405807 507.560292,80.6925807 C504.585871,80.6365807 502.120585,82.6125807 502,85.1325807 L513,85.3085807 Z" id="Path"></path>
            <path d="M531,85.2807649 C530.879121,82.8087649 528.508547,80.7847649 525.547009,80.7207649 C522.598901,80.6567649 520.154457,82.6087649 520,85.0967649 L531,85.2807649 Z" id="Path"></path>
            <path d="M547,85.2525996 C546.852529,82.7965996 544.486289,80.8045996 541.563681,80.7485996 C538.627666,80.6925996 536.2078,82.6045996 536,85.0845996 L547,85.2525996 Z" id="Path"></path>
            <path d="M565,85.2206095 C564.811966,82.7886095 562.468254,80.8286095 559.56044,80.7806095 C556.639194,80.7246095 554.228327,82.6046095 554,85.0446095 L565,85.2206095 Z" id="Path"></path>
            <path d="M581,85.1887999 C580.784709,82.7967999 578.450153,80.8607999 575.570642,80.8127999 C572.657492,80.7487999 570.275841,82.6127999 570,85.0207999 L581,85.1887999 Z" id="Path"></path>
            <path d="M599,85.1606304 C598.744186,82.7846304 596.401469,80.8966304 593.547124,80.8406304 C590.679315,80.7846304 588.302938,82.6006304 588,85.0006304 L599,85.1606304 Z" id="Path"></path>
            <path d="M615,85.1326386 C614.710172,82.7886386 612.391544,80.9326386 609.547181,80.8686386 C606.689338,80.8126386 604.33027,82.6046386 604,84.9646386 L615,85.1326386 Z" id="Path"></path>
            <path d="M485.020386,55.0519389 L612.915746,57.2519389 C615.654944,57.2999389 615.708354,53.0039389 612.992047,52.9559389 L485.089056,50.7479389 C482.349859,50.7079389 482.281188,55.0119389 485.020386,55.0519389 Z" id="Path"></path>
            <path d="M482.648254,71.2247476 L611.233836,72.9994017 C616.174125,73.0701307 616.296865,66.8459814 611.348905,66.7752524 L482.763322,65.0005983 C477.830705,64.9298693 477.700294,71.1540186 482.648254,71.2247476 Z" id="Path"></path>
            <path d="M325.136001,86.0441182 C325.160001,84.3161182 323.776001,82.8841182 322.048001,82.8601182 C320.320001,82.8281182 318.888001,84.2121182 318.864001,85.9401182 C318.840001,87.6761182 320.216001,89.1081182 321.952001,89.1401182 C323.688001,89.1641182 325.104001,87.7801182 325.136001,86.0441182 Z" id="Path"></path>
            <polygon id="Path" points="331 36.2727273 378.836972 37 379 29 353.590975 30.597148 331.116448 30.9393939"></polygon>
            <path d="M266,42 C266.248253,43.0585774 266.376141,44.1708508 266.353572,45.3061367 L266.285867,49.7015342 L462.879635,53 L463,46.1422594 C463,45.6820084 462.646428,45.3061367 462.210104,45.2984658 L266,42 Z" id="Path"></path>
        </g>
        <g id="Group-2" transform="translate(663.000000, 728.000000)">
            <path d="M26.8736335,48.7323784 L20.980625,49 C20.7455728,49 20.542369,48.8699129 20.4458053,48.6811533 L15,37.5374026 L21.4690216,41.8730653 L17.0881435,29.4121492 L23.9699851,35.7691997 L23.2516631,20.4966662 L31.7574033,32.4980895 L32.5893632,25.0078001 L35.1078899,31.5222549 L39.6765652,17 L40.0948576,33.5143353 L43.9143912,29.3054142 L43.5249327,35.1608946 L53,26.3585254 L46.5487372,44.5435174 L52.7034205,42.3634819 L48.811261,48.7181077 L48.8131911,48.7191945 C48.7012272,48.9016736 48.4988137,49.0023855 48.2918926,49 L41.79828,48.8498367 L42.9872605,42.0333681 L38.069929,46.2072372 L37.3254317,41.258159 L36.4632415,43.9223069 L34.6983939,41.2723091 L34.2631564,44.5362571 L30.1098046,39.2378032 L29.9694228,46.7838102 L26.1649359,44.2489405 L26.8736287,48.7323834 L26.8736335,48.7323784 Z" id="Path" fill="#FFFFFF" fill-rule="nonzero"></path>
            <rect id="Rectangle" x="0" y="0" width="69" height="68"></rect>
            <path d="M34.5345086,0.302892496 L49,8.50070783 L48.9989432,8.50249006 L63.4613135,16.6985074 L64,17.0037998 L64,17.6043693 L64,34 L64,50.3956307 L64,50.9962002 L63.4613135,51.3014926 L48.9989432,59.4975099 L49,59.4992922 L34.5345086,67.6971075 L34,68 L33.4654914,67.6971075 L19,59.4992922 L19.0010568,59.4975099 L4.53868647,51.3014926 L4,50.9962002 L4,50.3956307 L4,34 L4,17.6043693 L4,17.0037998 L4.53868647,16.6985074 L19.0010568,8.50249006 L19,8.50070783 L33.4654914,0.302892496 L34,0 L34.5345086,0.302892496 Z M33.999974,3.63492545 L23.3857873,9.65013366 L23.3868409,9.65194099 L7.20692923,18.8212576 L7.20692923,49.1787288 L23.3868409,58.3480454 L23.3857873,58.3498277 L34.000026,64.3650614 L44.6142127,58.3498532 L44.6131591,58.3480459 L60.7930708,49.1787292 L60.7930708,18.821258 L44.6131591,9.6519414 L44.6142127,9.65015917 L33.999974,3.63492545 Z" id="Shape" fill="#FF393D" fill-rule="nonzero"></path>
        </g>
    </g>
</svg>