<?xml version="1.0" encoding="UTF-8"?>
<svg width="900px" height="1200px" viewBox="0 0 900 1200" version="1.1" xmlns="http://www.w3.org/2000/svg" xmlns:xlink="http://www.w3.org/1999/xlink">
    <title>Maximum Power</title>
    <defs>
        <linearGradient x1="64.9391821%" y1="52.059706%" x2="38.2506266%" y2="99.1779455%" id="linearGradient-1">
            <stop stop-color="#190C03" offset="0%"></stop>
            <stop stop-color="#6E390F" offset="100%"></stop>
        </linearGradient>
    </defs>
    <g id="Maximum-Power" stroke="none" stroke-width="1" fill="none" fill-rule="evenodd">
        <rect id="Rectangle" fill="#000000" x="0" y="0" width="900" height="1200"></rect>
        <rect id="Rectangle" fill="url(#linearGradient-1)" x="42" y="41" width="816" height="1110"></rect>
        <rect id="Rectangle" fill="#FF8429" x="637" y="72" width="163" height="50" rx="5"></rect>
        <circle id="Oval" fill="#FFFFFF" cx="664.5" cy="97.5" r="8.5"></circle>
        <text id="POWER-UP" font-family="AvenirNextCondensed-DemiBold, Avenir Next Condensed" font-size="23" font-style="condensed" font-weight="500" letter-spacing="0.598" fill="#FFFFFF">
            <tspan x="682" y="106">POWER UP</tspan>
        </text>
        <rect id="Rectangle" stroke="#000000" stroke-width="10" fill-opacity="0.4" fill="#000000" x="106" y="652" width="688" height="433" rx="15"></rect>
        <text id="Allows-two-powerups" font-family="AvenirNextCondensed-Regular, Avenir Next Condensed" font-size="32" font-style="condensed" font-weight="normal" letter-spacing="0.832" fill="#FFFFFF">
            <tspan x="148" y="832">Allows two powerups to be active at the same time </tspan>
            <tspan x="148" y="876">(Maximum Power does not count as one of the </tspan>
            <tspan x="148" y="920">active powerups.)</tspan>
        </text>
        <text id="MAXIMUM-POWER" font-family="AvenirNextCondensed-Regular, Avenir Next Condensed" font-size="80" font-style="condensed" font-weight="normal" letter-spacing="-4" fill="#FFFFFF">
            <tspan x="148" y="775">MAXIMUM POWER</tspan>
        </text>
        <g id="noun_Motorcycle-engine_378247" transform="translate(231.000000, 161.000000)" fill="#FFFFFF" fill-rule="nonzero">
            <path d="M91.7943813,126.337367 L89.9058929,122.95283 L87.7002742,119 L36,140.333033 C36.8504451,141.503842 37.7553831,142.747601 38.7210671,144.070614 L41.0571112,147.267822 C41.9352494,148.467451 42.8473339,149.713912 43.7915781,151 L94,130.290197 L91.7943813,126.337367 Z" id="Path"></path>
            <path d="M5.61875548,70.6937646 L156.448371,8.03983729 C158.538455,7.17415105 159.546813,4.74163671 158.700401,2.60621637 C157.853094,0.470796037 155.472223,-0.557606307 153.382139,0.305337527 L2.55162895,62.9592649 C0.461545055,63.8249511 -0.546813055,66.2574655 0.299599343,68.3928858 C0.943803282,70.014562 2.47199818,71 4.08608694,71 C4.59697645,71 5.11681324,70.9012734 5.61875548,70.6937646 Z" id="Path"></path>
            <path d="M174.249885,45.2046292 C178.946177,42.9901761 178.632733,40.1431518 176.560418,35.5372709 C175.433809,33.0323977 170.469747,20.1540824 169.251792,17.0774447 C168.033837,14.000807 164.379971,12.1548244 160.116233,13.3854794 C155.852495,14.6161345 18.3964118,72.0766544 11.6967632,74.5379646 C4.99711467,76.9992747 2.93106879,82.1297269 4.4964993,85.2925831 C5.35802342,87.0332884 10.0390905,98.9196376 13.0839782,105.072913 C16.128866,111.226188 21.6105594,108.764878 26.4823798,106.918896 C26.4832753,106.918896 162.399899,50.7915854 174.249885,45.2046292 Z" id="Path"></path>
            <path d="M217.498992,192 L187,205.423571 L190.862502,215 L219.87394,202.231428 C220.618176,200.715769 217.833944,194.418231 217.599937,192.598466 C217.580666,192.445438 217.543959,192.234903 217.498992,192 Z" id="Path"></path>
            <path d="M233.404089,150.484027 L232.293952,154.323224 C231.857504,155.836199 231.425583,157.333356 231,158.808181 L264.329457,173 L265.964781,168.660199 L267.364676,164.944757 L269,160.604956 L234.701663,146 C234.265215,147.505531 233.832388,149.000827 233.404089,150.484027 Z" id="Path"></path>
            <path d="M229.329229,165.239925 L228.251672,168.872389 C227.81905,170.332583 227.40153,171.748822 227,173.11671 L258.41794,186 L260.022283,181.899852 L261.395657,178.389584 L263,174.289437 L230.591561,161 C230.161604,162.441733 229.740531,163.856214 229.329229,165.239925 Z" id="Path"></path>
            <path d="M209.748328,168.872389 L208.670771,165.239925 C208.259469,163.855334 207.838396,162.441733 207.408439,161 L175,174.289437 L176.604343,178.389584 L177.977717,181.899852 L179.58206,186 L211,173.11671 C210.597582,171.748822 210.180062,170.332583 209.748328,168.872389 Z" id="Path"></path>
            <path d="M224.183879,182.344819 L223.161415,186.071644 C222.711356,187.729807 222.320722,189.197542 222,190.438919 L251.492418,203 L253.070683,198.810578 L254.421734,195.223879 L256,191.034457 L225.39598,178 C224.967768,179.527019 224.561404,180.983077 224.183879,182.344819 Z" id="Path"></path>
            <path d="M205.706953,154.322294 L204.596816,150.483096 C204.167612,148.999897 203.734785,147.504601 203.298337,146 L169,160.604956 L170.635324,164.944757 L172.035219,168.660199 L173.670543,173 L207,158.808181 C206.575323,157.332426 206.143402,155.835269 205.706953,154.322294 Z" id="Path"></path>
            <path d="M211.839459,186.071644 L210.816995,182.344819 C210.439469,180.983077 210.033105,179.527019 209.60402,178 L179,191.034457 L180.578266,195.223879 L181.929317,198.810578 L183.507582,203 L213,190.438919 C212.680152,189.197542 212.289518,187.729807 211.839459,186.071644 Z" id="Path"></path>
            <path d="M99.757937,141.533491 L97.8374665,138.058487 L95.5944951,134 L45,155.067329 C45.9084534,156.315668 46.8368928,157.590822 47.7880435,158.896492 L50.1772759,162.173612 C51.0948138,163.432122 52.0241617,164.705427 52.9698617,166 L102,145.591978 L99.757937,141.533491 Z" id="Path"></path>
            <path d="M220.39983,192.598466 C220.165821,194.418231 217.382485,200.715769 218.125809,202.231428 L247.137468,215 L251,205.423571 L220.500775,192 C220.455809,192.235877 220.419101,192.446413 220.39983,192.598466 Z" id="Path"></path>
            <path d="M333.074212,154.017882 L331.194901,157.458118 L329,161.476 L371.176943,180 C372.094375,178.733026 373.009139,177.469714 373.91768,176.214641 L376.262819,172.973055 C377.183806,171.698758 378.095904,170.437277 379,169.186781 L335.269113,150 L333.074212,154.017882 Z" id="Path"></path>
            <path d="M340.163376,138.058487 L338.242936,141.533491 L336,145.591978 L385.029357,166 C385.975042,164.704502 386.904375,163.431197 387.822807,162.173612 L390.212001,158.896492 C391.163137,157.591747 392.091561,156.315668 393,155.067329 L342.406311,134 L340.163376,138.058487 Z" id="Path"></path>
            <path d="M106.805099,157.458118 L104.925788,154.017882 L102.730887,150 L59,169.186781 C59.9040964,170.438192 60.8161937,171.699673 61.7371809,172.973055 L64.0823199,176.214641 C64.9908612,177.469714 65.9047365,178.733026 66.8230567,180 L109,161.476 L106.805099,157.458118 Z" id="Path"></path>
            <path d="M319.360424,184.932096 L317.34897,188.298325 L315,192.229516 L345.966922,205 C346.893046,203.769579 347.832816,202.519239 348.780774,201.259846 L351.188878,198.057492 C352.11955,196.819828 353.057501,195.571299 354,194.316433 L321.709394,181 L319.360424,184.932096 Z" id="Path"></path>
            <path d="M328.184751,168.9438 L326.254335,172.320048 L324,176.26294 L359.301909,192 C360.198579,190.752295 361.096995,189.501867 361.99803,188.246897 L364.305624,185.033195 C365.204914,183.78095 366.10333,182.528705 367,181.279185 L330.439086,165 L328.184751,168.9438 Z" id="Path"></path>
            <path d="M435.448357,62.9592649 L284.617892,0.305337527 C282.527797,-0.557606307 280.146913,0.470796037 279.299601,2.60621637 C278.453184,4.74163671 279.461548,7.17415105 281.551643,8.03983729 L432.382108,70.6937646 C432.884947,70.9012734 433.403892,71 433.91389,71 C435.528883,71 437.057086,70.0154762 437.700399,68.3928858 C438.546816,66.2583796 437.538452,63.8249511 435.448357,62.9592649 Z" id="Path"></path>
            <path d="M310.211056,198.052106 L308.268505,201.521873 L306,205.573978 L334.230677,218 C335.112776,216.751332 336.021232,215.465334 336.951653,214.146673 L339.280781,210.847688 C340.169908,209.587821 341.078365,208.299024 342,206.993428 L312.478682,194 L310.211056,198.052106 Z" id="Path"></path>
            <path d="M426.303736,74.5379646 C419.604057,72.0766544 282.146436,14.6161345 277.883573,13.3854794 C273.62071,12.1548244 269.965932,14.000807 268.747971,17.0774447 C267.530011,20.1540824 262.56682,33.0323977 261.439311,35.5372709 C259.366987,40.1440593 259.054437,42.9901761 263.749854,45.2046292 C275.599001,50.7915854 411.517155,106.918896 411.517155,106.918896 C416.388998,108.764878 421.870717,111.226188 424.915619,105.072913 C427.960521,98.9196376 432.642506,87.0332884 433.503138,85.2925831 C435.069472,82.1297269 433.002521,76.9992747 426.303736,74.5379646 Z" id="Path"></path>
            <path d="M296.38256,64.0987555 C280.162646,50.7764476 252.491637,42 221.076395,42 C189.758219,42 162.158211,50.7225548 145.918524,63.9757002 L27.0548748,112.835839 C26.8957943,114.045733 27.1204842,121.663485 27.2490068,123.198533 L27.5051533,123.815606 L132.925157,80.3797799 C132.261873,81.9543488 131.736098,83.5585587 131.354125,85.1870205 L28.2484275,127.669841 L29.9686533,131.818691 L32.2083622,135.053159 C32.9543326,136.095985 33.8656748,137.357078 34.9118309,138.795118 L131.604879,98.9593335 C132.288835,101.471638 133.313421,103.921965 134.657966,106.295944 L125.348614,109.832212 L142.222825,159.444156 L140.834241,160.089074 L144.458939,170.870335 L138.833603,160.958545 L136.299101,162.043587 L111.718026,115.892461 L97.439433,122.117981 L121.744588,168.27809 L119.198402,169.368521 L128.468208,186.282787 L130.385263,185.402537 L162.224719,241.172635 L158.496664,242.621454 L164.293664,256.638082 C162.888902,257.634201 161.512902,258.667147 160.163863,259.733326 L152.170296,237.542055 L130.000593,247.123302 C135.692438,259.099187 130.600066,267.782221 128.802547,278.261682 C127.319594,286.905194 131.949104,290.860928 133.617202,291.982797 C126.711133,305.41828 122.811416,320.651987 122.811416,336.795584 C122.811416,391.032432 166.805697,435 221.075496,435 C275.345295,435 319.340475,391.032432 319.340475,336.795584 C319.340475,320.620549 315.425478,305.360794 308.494244,291.906449 C310.247724,290.687572 314.648051,286.717467 313.197453,278.261682 C311.399934,267.782221 306.306663,259.100086 311.999407,247.123302 L289.829704,237.542055 L281.870289,259.638116 C280.52215,258.575529 279.144352,257.547972 277.740489,256.556344 L283.503336,242.621454 L279.775281,241.172635 L311.614737,185.402537 L313.531792,186.282787 L322.801598,169.368521 L320.255412,168.27809 L344.560567,122.117981 L330.281974,115.892461 L305.700899,162.043587 L303.166397,160.958545 L297.541061,170.870335 L301.165759,160.089074 L299.777175,159.444156 L316.651386,109.832212 L307.467861,106.34355 C308.815101,103.972265 309.84508,101.524632 310.532631,99.015921 L407.088169,138.795118 C408.134325,137.357078 409.045667,136.095985 409.791638,135.053159 L412.031347,131.818691 L413.751573,127.669841 L310.81574,85.2570811 C310.438261,83.6304159 309.915183,82.0280023 309.256392,80.4552299 L414.494847,123.815606 L414.750993,123.198533 C414.879516,121.663485 415.104206,114.045733 414.945125,112.835839 L296.38256,64.0987555 Z M221.076395,74.3886935 C230.577182,74.3886935 238.279552,82.0863862 238.279552,91.5814049 C238.279552,101.076424 230.577182,108.774116 221.076395,108.774116 C211.575607,108.774116 203.873238,101.076424 203.873238,91.5814049 C203.873238,82.0863862 211.575607,74.3886935 221.076395,74.3886935 Z M145.156376,178.622819 L146.810992,177.863828 L146.81279,177.870116 L148.248109,177.247653 L154.343496,194.354136 L145.156376,178.622819 Z M221.076395,376.616997 C199.106217,376.616997 181.231687,358.75332 181.231687,336.796483 C181.231687,314.838747 199.106217,296.975069 221.076395,296.975069 C243.047471,296.975069 260.922001,314.838747 260.922001,336.796483 C260.922001,358.754219 243.047471,376.616997 221.076395,376.616997 Z M281.793895,151.088073 L275.375853,169.276005 L278.830685,170.775124 L256.240363,232.02792 L249.847486,229.543461 L244.986095,241.526532 C243.595714,241.178923 242.196346,240.856464 240.783496,240.569036 L248.486764,220.477788 L224.819728,210.597436 L221,224.058967 L217.180272,210.597436 L193.513236,220.477788 L201.227289,240.59688 C199.815338,240.886105 198.416868,241.21036 197.027386,241.559766 L192.152514,229.542562 L185.758738,232.027022 L163.168417,170.774226 L166.623248,169.275107 L160.205206,151.087175 L156.571521,152.775817 L144.555106,118.038294 C146.898172,120.069156 149.502777,122.001214 152.343756,123.8183 L153.113095,126.203058 L154.981616,125.432391 C156.379187,126.251562 157.827089,127.044684 159.321726,127.809963 L154.298558,129.874956 L155.682648,134.163029 L156.867213,137.834927 L158.251303,142.123 L176.34603,134.68579 C178.288249,135.292084 180.274508,135.859755 182.303008,136.387905 L164.323323,143.770325 L165.946483,147.959594 L167.335965,151.546162 L168.959125,155.735431 L206.113845,140.482862 C210.980628,140.92658 215.976833,141.161912 221.073698,141.161912 C226.127423,141.161912 231.081386,140.931071 235.909523,140.494539 L273.036382,155.735431 L274.659541,151.546162 L276.049024,147.959594 L277.672183,143.770325 L259.750918,136.412157 C261.781216,135.884905 263.771069,135.318132 265.714187,134.712736 L283.744203,142.123 L285.128293,137.834927 L286.312858,134.163029 L287.696948,129.874956 L282.758264,127.844993 C284.254699,127.079715 285.704398,126.28749 287.102868,125.469217 L288.881513,126.203058 L289.611306,123.943152 C292.438803,122.146724 295.034421,120.237122 297.373892,118.229614 L285.423985,152.774919 L281.793895,151.088073 Z M287.657402,194.353238 L293.75279,177.246755 L295.188109,177.869217 L295.190805,177.86293 L296.845421,178.622819 L287.657402,194.353238 Z" id="Shape"></path>
            <path d="M348.094107,122.95283 L346.205619,126.337367 L344,130.290197 L394.208422,151 C395.151773,149.713912 396.064751,148.467451 396.942889,147.267822 L399.278933,144.070614 C400.244617,142.7467 401.149555,141.503842 402,140.333033 L350.299726,119 L348.094107,122.95283 Z" id="Path"></path>
            <path d="M129.732373,201.521873 L127.789823,198.052106 L125.521318,194 L96,206.993428 C96.9207566,208.299024 97.8300915,209.587821 98.719219,210.847688 L101.048347,214.146673 C101.979646,215.465334 102.887224,216.751332 103.769323,218 L132,205.573978 L129.732373,201.521873 Z" id="Path"></path>
            <path d="M135.752771,216.440199 L133.82844,213.008107 L131.581211,209 L104,221.121247 C104.939101,222.447744 105.839038,223.717932 106.698938,224.930888 L109.010572,228.192206 C109.99145,229.575935 110.890516,230.841507 111.713862,232 L138,220.447383 L135.752771,216.440199 Z" id="Path"></path>
            <path d="M120.65103,188.29742 L118.639576,184.931191 L116.290606,181 L84,194.316433 C84.9424992,195.571299 85.8813595,196.819828 86.8111223,198.057492 L89.219226,201.259846 C90.166274,202.519239 91.1069537,203.769579 92.0330775,205 L123,192.229516 L120.65103,188.29742 Z" id="Path"></path>
            <path d="M111.746492,172.31914 L109.816037,168.942892 L107.561656,165 L71,181.279185 C71.8966883,182.528705 72.7951227,183.78095 73.6935572,185.033195 L76.001198,188.246897 C76.9022518,189.500959 77.8006863,190.752295 78.6973746,192 L114,176.26294 L111.746492,172.31914 Z" id="Path"></path>
            <path d="M142.406593,226 L115,236.841187 C116.452829,238.676634 119.666187,244.473199 120.094573,245 L147,234.356693 L142.406593,226 Z" id="Path"></path>
            <path d="M219.999543,302 C200.700627,302 185,317.700627 185,337.000457 C185,356.299373 200.700627,372 219.999543,372 C239.299373,372 255,356.299373 255,337.000457 C255,317.700627 239.29846,302 219.999543,302 Z" id="Path"></path>
            <path d="M291,234.357186 L317.905427,245 C318.332892,244.472344 321.547171,238.676047 323,236.841564 L295.592486,226 L291,234.357186 Z" id="Path"></path>
            <path d="M304.171667,213.007184 L302.247287,216.439276 L300,220.447383 L326.285941,232 C327.109308,230.840584 328.007526,229.575012 328.9893,228.192206 L331.300993,224.930888 C332.160915,223.717932 333.060874,222.446821 334,221.121247 L306.418954,209 L304.171667,213.007184 Z" id="Path"></path>
        </g>
    </g>
</svg>