<?xml version="1.0" encoding="UTF-8"?>
<svg width="900px" height="1200px" viewBox="0 0 900 1200" version="1.1" xmlns="http://www.w3.org/2000/svg" xmlns:xlink="http://www.w3.org/1999/xlink">
    <title>Mechanic</title>
    <defs>
        <linearGradient x1="64.9391821%" y1="52.059706%" x2="38.1559011%" y2="99.3451819%" id="linearGradient-1">
            <stop stop-color="#190C03" offset="0%"></stop>
            <stop stop-color="#6E390F" offset="100%"></stop>
        </linearGradient>
    </defs>
    <g id="Mechanic" stroke="none" stroke-width="1" fill="none" fill-rule="evenodd">
        <rect id="Rectangle" fill="#000000" x="0" y="0" width="900" height="1200"></rect>
        <rect id="Rectangle" fill="url(#linearGradient-1)" x="42" y="41" width="816" height="1110"></rect>
        <rect id="Rectangle" fill="#FF8429" x="637" y="72" width="163" height="50" rx="5"></rect>
        <circle id="Oval" fill="#FFFFFF" cx="664.5" cy="97.5" r="8.5"></circle>
        <text id="POWER-UP" font-family="AvenirNextCondensed-DemiBold, Avenir Next Condensed" font-size="23" font-style="condensed" font-weight="500" letter-spacing="0.598" fill="#FFFFFF">
            <tspan x="682" y="106">POWER UP</tspan>
        </text>
        <rect id="Rectangle" stroke="#000000" stroke-width="10" fill-opacity="0.4" fill="#000000" x="106" y="652" width="688" height="433" rx="15"></rect>
        <text id="Increase-the-level-o" font-family="AvenirNextCondensed-Regular, Avenir Next Condensed" font-size="32" font-style="condensed" font-weight="normal" letter-spacing="0.832" fill="#FFFFFF">
            <tspan x="148" y="832">Increase the level of one attached upgrade </tspan>
            <tspan x="148" y="876">(maximum level is III). Turn affected card sideways </tspan>
            <tspan x="148" y="920">to specify. Can change cards each round.</tspan>
        </text>
        <text id="MECHANIC" font-family="AvenirNextCondensed-Regular, Avenir Next Condensed" font-size="80" font-style="condensed" font-weight="normal" letter-spacing="-4" fill="#FFFFFF">
            <tspan x="148" y="775">MECHANIC</tspan>
        </text>
        <g id="Group" transform="translate(270.000000, 194.000000)" fill="#FFFFFF" fill-rule="nonzero">
            <path d="M214,231.524135 C207.039409,229.647063 200.275158,227.530633 193.935257,226.478716 C190.401126,230.201366 170.640394,242.566105 149.872625,242.629094 C128.794511,242.698382 107.678395,229.962008 103.681914,226 C95.8979592,227.360562 85.3145672,229.199841 79,231.870574 L79,321 L166.599578,321 C166.586911,277.04628 185.707952,244.052646 214,231.524135 Z" id="Path"></path>
            <path d="M13.3088246,346.946875 C19.6525409,355.264453 27.6251351,368.329563 53,378 L53,319.858379 L53,318.07962 L53,239 C40.3125675,246.5472 15.8666721,257.357545 0.245986704,273.059478 C-0.982034592,298.49448 2.23754456,332.416167 13.3088246,346.946875 Z" id="Path"></path>
            <path d="M232.267672,378 C234.01179,377.981005 235.427307,377.981005 236.817546,377.981005 L236.539498,301.291068 C236.533179,297.606 239.471639,294.623754 243.130497,294.623754 C243.130497,294.623754 267.883078,294.345158 273.469312,294.307168 C279.055547,294.294504 303.801809,294.402144 303.801809,294.402144 C307.466985,294.38948 310.443362,297.346399 310.443362,301.00614 L310.71509,377.715072 C312.09901,377.702409 313.527165,377.702409 315.271284,377.696077 C345.818636,358.536256 365.977107,324.857774 358.400302,292.553278 C348.371621,252.220146 321.078693,236.061566 300.029205,228.653439 L315.505097,54.8980524 L315.170176,54.8980524 C315.075387,29.6534372 296.26292,11.9182562 273.134391,12.0002834 C250.005863,12.0892129 231.33242,30.4005816 231.41457,53.5683887 L231.079649,53.2834607 L247.749883,227.393425 C226.580329,234.693912 198.446938,251.998535 188.494088,293.224441 C181.170054,325.579592 201.568658,359.036463 232.267672,378 Z M273.241819,38.4482129 L287.693989,52.827576 L273.349246,67.3082469 L258.890756,52.9288837 L273.241819,38.4482129 Z" id="Shape"></path>
            <path d="M202.586767,132.791531 C202.567697,132.621065 202.542271,132.482166 202.523201,132.3117 C188.869169,135.354836 170.326891,137.514073 145.110156,137.514073 C117.261778,137.514073 97.6325178,134.856064 83.7687168,131.257336 C83.7623602,131.415175 83.7560035,131.585641 83.7496469,131.74348 C76.2297585,130.499709 71.6593445,133.328183 71.6593445,133.328183 C70.8456964,133.725937 70.1146844,134.249963 69.5743712,134.969708 C67.2033498,138.164369 68.2140533,145.115598 68.2140533,149.94547 C68.2140533,159.636783 74.1130021,167.490851 81.4294785,167.629749 C90.6720125,202.752078 115.831538,228 145.497911,228 C175.164283,228 200.330165,202.752078 209.572699,167.629749 C216.889176,167.484537 222.788124,159.63047 222.788124,149.94547 C222.788124,145.115598 223.792471,138.164369 221.427806,134.969708 C220.703151,133.99742 219.654308,133.397632 218.471975,132.980937 L218.484689,132.905175 C218.484689,132.905175 214.206679,130.25348 207.119042,131.206827 C206.019345,131.490937 204.887866,131.768734 203.718247,132.040217 C203.292353,132.261192 202.910955,132.50742 202.586767,132.791531 Z" id="Path"></path>
            <path d="M215.734086,51.2683796 C203.082365,28.9682341 180.063175,12.9911678 154.904866,9.44070859 L154.904866,0 L152.147359,0 L138.738428,0 L136.037712,0 L136.037712,9.39052542 C98.3034037,14.6785768 63.4654244,49.3049631 63.4654244,91.38355 L52,100.799167 C52,100.799167 59.0862255,125 144.871831,125 C185.496158,125 208.62893,119.642947 222,113.99734 L215.734086,51.2683796 Z" id="Path"></path>
        </g>
    </g>
</svg>