<?xml version="1.0" encoding="UTF-8"?>
<svg width="900px" height="1200px" viewBox="0 0 900 1200" version="1.1" xmlns="http://www.w3.org/2000/svg" xmlns:xlink="http://www.w3.org/1999/xlink">
    <title>Nuclear Reactor</title>
    <defs>
        <linearGradient x1="64.9391821%" y1="52.059706%" x2="38.1559011%" y2="99.3451819%" id="linearGradient-1">
            <stop stop-color="#190C03" offset="0%"></stop>
            <stop stop-color="#6E390F" offset="100%"></stop>
        </linearGradient>
    </defs>
    <g id="Nuclear-Reactor" stroke="none" stroke-width="1" fill="none" fill-rule="evenodd">
        <rect id="Rectangle" fill="#000000" x="0" y="0" width="900" height="1200"></rect>
        <rect id="Rectangle" fill="url(#linearGradient-1)" x="42" y="41" width="816" height="1110"></rect>
        <rect id="Rectangle" fill="#FF8429" x="637" y="72" width="163" height="50" rx="5"></rect>
        <circle id="Oval" fill="#FFFFFF" cx="664.5" cy="97.5" r="8.5"></circle>
        <text id="POWER-UP" font-family="AvenirNextCondensed-DemiBold, Avenir Next Condensed" font-size="23" font-style="condensed" font-weight="500" letter-spacing="0.598" fill="#FFFFFF">
            <tspan x="682" y="106">POWER UP</tspan>
        </text>
        <rect id="Rectangle" stroke="#000000" stroke-width="10" fill-opacity="0.4" fill="#000000" x="106" y="652" width="688" height="433" rx="15"></rect>
        <text id="Unlimited-ammo.-Maxi" font-family="AvenirNextCondensed-Regular, Avenir Next Condensed" font-size="32" font-style="condensed" font-weight="normal" letter-spacing="0.832" fill="#FFFFFF">
            <tspan x="148" y="832">Unlimited ammo. Maximum lizard attacks per </tspan>
            <tspan x="148" y="876">round per player is 3.</tspan>
        </text>
        <text id="NUCLEAR-REACTOR" font-family="AvenirNextCondensed-Regular, Avenir Next Condensed" font-size="80" font-style="condensed" font-weight="normal" letter-spacing="-4" fill="#FFFFFF">
            <tspan x="148" y="775">NUCLEAR REACTOR</tspan>
        </text>
        <path d="M556.594859,369.522565 C599.249182,327.030879 624.650071,283.584323 606.917375,257.325416 C591.101727,233.453682 548.926666,236.795724 500.521198,254.460808 C500.041936,252.073634 499.562674,249.686461 499.083412,247.776722 C497.645626,243.47981 493.332267,240.615202 488.539647,242.047506 C484.226288,243.47981 481.350716,247.776722 482.788502,252.551069 C483.747026,255.415677 484.226288,258.280285 484.70555,261.144893 C469.848427,267.351544 454.512041,274.990499 439.175655,283.584323 C424.318531,275.467933 408.982146,267.828979 394.125022,261.622328 C405.627311,218.653207 422.880745,194.304038 439.175655,194.304038 C449.240158,194.304038 457.866875,197.168646 463.61802,205.285036 C461.700972,208.149644 460.742448,211.014252 460.742448,214.833729 C460.742448,224.382423 468.410641,232.021378 477.995882,232.021378 C487.581123,232.021378 495.249316,224.382423 495.249316,214.833729 C495.249316,205.76247 488.060385,198.60095 478.954406,198.123515 C464.576544,174.251781 449.240158,169 439.175655,169 C410.419932,169 389.811663,205.285036 377.35085,255.415677 C328.945382,237.750594 286.770322,234.408551 270.954674,258.280285 C253.221978,283.584323 278.622867,327.030879 321.27719,369.522565 C320.797927,370 320.318665,370.477435 319.839403,370.954869 C316.484569,374.296912 316.484569,379.548694 319.839403,382.890736 C323.194238,386.232779 328.46612,386.232779 331.820955,382.890736 C332.300217,382.413302 332.779479,381.935867 333.258741,381.458432 C343.323244,390.529691 354.346271,399.60095 365.369299,408.672209 C366.807085,429.2019 369.203395,449.731591 373.037492,468.351544 C344.281768,478.855107 319.360141,483.629454 302.585969,480.287411 C295.397039,478.855107 290.604418,475.990499 287.728846,472.171021 C281.019177,462.622328 283.894749,444.47981 298.751873,422.04038 C299.710397,422.04038 300.668921,422.517815 301.627445,422.517815 C311.212686,422.517815 318.880879,414.87886 318.880879,405.330166 C318.880879,395.781473 311.212686,388.142518 301.627445,388.142518 C292.042204,388.142518 284.853273,395.304038 284.853273,404.852732 C284.853273,406.76247 285.332535,408.672209 285.811797,410.581948 C264.724267,440.660333 259.452384,465.486936 270.954674,481.719715 C276.226556,489.836105 284.853273,494.610451 296.834825,496.997625 C316.963831,500.817102 345.240292,496.042755 377.35085,484.584323 C389.332401,534.714964 410.419932,571 438.696393,571 C467.452116,571 488.060385,534.714964 500.521198,484.584323 C501.00046,485.061758 501.958984,485.061758 502.438246,485.539192 C506.751605,486.971496 511.544226,484.584323 513.461274,480.287411 C514.89906,475.990499 512.50275,471.216152 508.189391,469.306413 C506.751605,468.828979 505.313819,468.351544 504.355295,467.874109 C508.189391,449.254157 510.585701,428.724466 512.023488,408.194774 C523.525777,399.123515 534.548804,390.052257 544.613307,380.980998 C571.451982,407.239905 588.705416,432.066508 592.539513,451.64133 C593.977299,458.80285 593.018775,466.441805 590.143203,470.738717 C586.309106,476.467933 579.599437,480.764846 568.57641,481.719715 C566.1801,475.513064 559.949693,470.738717 552.760762,470.738717 C543.175521,470.738717 535.507328,478.377672 535.507328,487.926366 C535.507328,497.475059 543.175521,505.114014 552.760762,505.114014 C558.032645,505.114014 562.346003,502.726841 565.700838,499.384798 C590.143203,499.384798 601.645492,490.790974 607.396637,482.674584 C612.668519,474.558195 614.106305,465.009501 612.189257,453.073634 C606.917375,428.724466 586.788368,399.60095 556.594859,369.522565 Z M588.917634,270.408378 C599.041299,285.633279 584.096841,318.461971 546.012579,357 C535.888915,347.960215 525.283171,338.920431 513.713268,330.356424 C512.26703,309.422186 509.856634,289.915282 506,271.359935 C548.905055,256.135034 579.758128,256.610812 588.917634,270.408378 Z M488.227848,277 C490.632911,289.53012 492.556962,303.024096 494,317 C489.670886,313.626506 485.341772,310.73494 480.531646,307.843373 C472.35443,302.542169 464.658228,297.240964 456,292.421687 C467.063291,286.638554 477.64557,281.337349 488.227848,277 Z M496,367.5 C496,377.957746 495.516667,387.940141 495.033333,397.447183 C487.3,403.151408 479.083333,408.855634 470.383333,415.035211 C459.75,422.165493 448.633333,428.820423 438,435 C427.366667,428.820423 416.25,422.165493 405.616667,415.035211 C396.916667,409.330986 388.7,403.626761 380.966667,397.447183 C380.483333,387.940141 380,377.957746 380,367.5 C380,357.042254 380.483333,347.059859 380.966667,337.552817 C389.183333,331.373239 397.4,325.669014 405.616667,319.964789 C416.733333,312.834507 427.366667,306.179577 438,300 C448.633333,306.179577 459.266667,312.359155 470.383333,319.964789 C479.083333,325.669014 487.3,331.373239 495.033333,337.077465 C496,347.535211 496,357.517606 496,367.5 Z M423,292.238095 C414.822785,297 406.64557,302.238095 398.468354,307.47619 C394.139241,310.333333 389.329114,313.666667 385,317 C386.443038,302.714286 388.367089,289.380952 390.772152,277 C401.35443,281.285714 411.936709,286.52381 423,292.238095 Z M289.068296,267.578757 C298.138865,253.858037 330.601953,254.804294 375,270.890655 C371.180813,289.342657 368.793821,309.687173 367.361626,330.031689 C355.904066,338.547997 345.401302,348.010563 335.375936,357 C295.274474,317.257225 278.565532,282.245733 289.068296,267.578757 Z M346,367 C352.666667,361.823529 359.333333,356.176471 366,351 C366,356.176471 365.487179,361.823529 365.487179,367 C365.487179,372.176471 365.487179,377.823529 366,383 C358.820513,377.823529 352.153846,372.176471 346,367 Z M385,422 C389.329114,425.333333 394.139241,428.190476 398.468354,431.52381 C406.64557,436.761905 414.822785,442 423,446.761905 C411.936709,452.47619 401.35443,457.714286 390.772152,462 C388.367089,449.619048 386.443038,436.285714 385,422 Z M438,548 C421.894737,548 404.368421,521.769231 393,476.938462 C407.684211,470.738462 422.368421,463.584615 438,455 C453.157895,463.584615 468.315789,470.738462 483,476.938462 C471.631579,521.769231 454.105263,548 438,548 Z M488.227848,462 C477.64557,457.714286 467.063291,452.47619 456,446.761905 C464.177215,442 472.35443,436.761905 480.531646,431.52381 C484.860759,428.666667 489.670886,425.333333 494,422 C492.556962,436.285714 490.632911,449.619048 488.227848,462 Z M514,385 C514,379.73913 514.487805,374 514.487805,368.73913 C514.487805,363 514.487805,357.73913 514.487805,352 C521.317073,357.26087 527.658537,363 534,368.26087 C527.658537,374 520.829268,379.26087 514,385 Z" id="Shape" fill="#FFFFFF" fill-rule="nonzero"></path>
    </g>
</svg>