<?xml version="1.0" encoding="UTF-8"?>
<svg width="900px" height="1200px" viewBox="0 0 900 1200" version="1.1" xmlns="http://www.w3.org/2000/svg" xmlns:xlink="http://www.w3.org/1999/xlink">
    <title>Overdrive</title>
    <defs>
        <linearGradient x1="64.9391821%" y1="52.059706%" x2="38.1559011%" y2="99.3451819%" id="linearGradient-1">
            <stop stop-color="#190C03" offset="0%"></stop>
            <stop stop-color="#6E390F" offset="100%"></stop>
        </linearGradient>
    </defs>
    <g id="Overdrive" stroke="none" stroke-width="1" fill="none" fill-rule="evenodd">
        <rect id="Rectangle" fill="#000000" x="0" y="0" width="900" height="1200"></rect>
        <rect id="Rectangle" fill="url(#linearGradient-1)" x="42" y="41" width="816" height="1110"></rect>
        <rect id="Rectangle" fill="#FF8429" x="637" y="72" width="163" height="50" rx="5"></rect>
        <circle id="Oval" fill="#FFFFFF" cx="664.5" cy="97.5" r="8.5"></circle>
        <text id="POWER-UP" font-family="AvenirNextCondensed-DemiBold, Avenir Next Condensed" font-size="23" font-style="condensed" font-weight="500" letter-spacing="0.598" fill="#FFFFFF">
            <tspan x="682" y="106">POWER UP</tspan>
        </text>
        <rect id="Rectangle" stroke="#000000" stroke-width="10" fill-opacity="0.4" fill="#000000" x="106" y="652" width="688" height="433" rx="15"></rect>
        <text id="+1-speed-to-all-of-y" font-family="AvenirNextCondensed-Regular, Avenir Next Condensed" font-size="32" font-style="condensed" font-weight="normal" letter-spacing="0.832" fill="#FFFFFF">
            <tspan x="148" y="832">+1 speed to all of your lizards.</tspan>
        </text>
        <text id="OVERDRIVE" font-family="AvenirNextCondensed-Regular, Avenir Next Condensed" font-size="80" font-style="condensed" font-weight="normal" letter-spacing="-4" fill="#FFFFFF">
            <tspan x="148" y="775">OVERDRIVE</tspan>
        </text>
        <g id="noun_speed_3012371" transform="translate(255.000000, 206.000000)" fill="#FFFFFF" fill-rule="nonzero">
            <g id="Group">
                <g id="Path">
                    <path d="M93.6415953,113.993884 L53.1507652,73.544441 C49.4697807,69.8672189 43.7438047,70.2757992 40.8808168,74.3616014 C19.612906,101.327896 5.29796614,134.831475 0.798985025,170.786535 C0.389986742,175.689498 4.07097129,180.18388 8.97895068,180.18388 L66.2387103,180.18388 C70.3286931,180.18388 73.6006794,177.323819 74.418676,173.646597 C77.6906622,155.669067 84.643633,138.917277 94.8685901,124.616969 C96.9135815,120.939747 96.5045832,116.445365 93.6415953,113.993884 Z"></path>
                    <path d="M0.798985025,218.590422 C4.88896785,254.136902 18.7949095,287.2319 40.8808168,315.423936 C43.7438047,319.101158 49.878779,319.509738 53.1507652,316.241096 L93.6415953,275.791654 C96.5045832,272.931592 96.9135815,268.43721 94.4595918,265.168568 C83.8256365,250.45968 76.8726657,233.70789 74.0096777,216.13894 C73.1916811,212.053138 69.9196948,209.601657 65.829712,209.601657 L8.5699524,209.601657 C4.07097129,209.193077 0.389986742,213.687459 0.798985025,218.590422 Z"></path>
                    <path d="M171.351269,0.408580228 C135.35942,4.90296273 101.821561,19.2032707 74.8276742,40.4494425 C71.1466897,43.3095041 70.7376914,49.4382075 74.0096777,52.7068494 L114.500508,93.1562919 C117.363496,96.0163535 121.862477,96.4249337 125.134463,93.9734524 C139.449403,83.7589467 156.218333,76.8130828 174.214257,73.544441 C177.895242,72.7272805 180.75823,69.4586387 180.75823,65.3728364 L180.75823,8.17160455 C180.75823,3.67722205 176.259248,-9.22040222e-14 171.351269,0.408580228 Z"></path>
                    <path d="M300.594726,34.7293193 C301.821721,33.9121589 303.048716,33.0949984 304.275711,32.277838 C279.326816,15.5260487 250.287938,4.08580228 219.204068,0.408580228 C214.296089,-1.22346577e-13 209.797108,3.67722205 209.797108,8.58018478 L209.797108,65.7814166 C209.797108,69.8672189 212.660096,73.1358607 216.750078,73.9530212 C224.930044,75.1787619 232.701011,77.6302433 240.471979,80.4903048 C256.013914,68.6414782 275.645831,53.5240098 300.594726,34.7293193 Z"></path>
                    <path d="M296.504744,275.383073 L336.995574,315.832516 C340.676558,319.509738 346.402534,319.101158 349.265522,315.015356 C371.351429,287.2319 384.848373,254.136902 389.347354,218.590422 C389.756352,213.687459 386.075368,209.193077 381.167388,209.193077 L323.907629,209.193077 C319.817646,209.193077 316.545659,212.053138 315.727663,215.73036 C312.864675,233.29931 305.911704,250.051099 295.277749,264.759988 C293.232757,268.028629 293.641756,272.523012 296.504744,275.383073 Z"></path>
                    <path d="M323.907629,180.18388 L381.167388,180.18388 C386.075368,180.18388 389.756352,175.689498 389.347354,170.786535 C385.666369,139.325858 374.214417,110.316661 357.445488,85.3932676 C357.036489,86.6190083 355.809495,87.8447489 354.991498,89.4790699 C336.177577,114.402464 321.453639,134.014315 309.18369,149.948944 C312.046678,157.303388 314.09167,165.474992 315.727663,173.646597 C316.545659,177.323819 319.817646,180.18388 323.907629,180.18388 Z"></path>
                    <path d="M331.678596,71.9101201 C338.631567,62.9213551 327.179615,51.4811087 317.772654,58.0183923 C278.917817,87.4361687 229.838023,124.616969 207.752116,142.185919 C203.662133,141.368759 199.572151,140.551598 195.073169,140.551598 C165.216295,140.551598 141.085396,164.657832 141.085396,194.484188 C141.085396,224.310545 165.216295,248.416778 195.073169,248.416778 C224.930044,248.416778 249.060943,224.310545 249.060943,194.484188 C249.060943,189.989806 248.242946,185.904004 247.42495,181.818201 C265.420874,159.754869 302.23072,110.725242 331.678596,71.9101201 Z"></path>
                </g>
            </g>
        </g>
    </g>
</svg>