<?xml version="1.0" encoding="UTF-8"?>
<svg width="900px" height="1200px" viewBox="0 0 900 1200" version="1.1" xmlns="http://www.w3.org/2000/svg" xmlns:xlink="http://www.w3.org/1999/xlink">
    <title>Shield II</title>
    <defs>
        <linearGradient x1="65.0390187%" y1="51.8834459%" x2="37.7850012%" y2="100%" id="linearGradient-1">
            <stop stop-color="#1F1A06" offset="0%"></stop>
            <stop stop-color="#5F5211" offset="100%"></stop>
        </linearGradient>
        <rect id="path-2" x="148" y="695" width="172" height="172" rx="8"></rect>
        <filter x="-7.6%" y="-7.6%" width="115.1%" height="115.1%" filterUnits="objectBoundingBox" id="filter-3">
            <feMorphology radius="12" operator="erode" in="SourceAlpha" result="shadowSpreadInner1"></feMorphology>
            <feGaussianBlur stdDeviation="7" in="shadowSpreadInner1" result="shadowBlurInner1"></feGaussianBlur>
            <feOffset dx="0" dy="0" in="shadowBlurInner1" result="shadowOffsetInner1"></feOffset>
            <feComposite in="shadowOffsetInner1" in2="SourceAlpha" operator="arithmetic" k2="-1" k3="1" result="shadowInnerInner1"></feComposite>
            <feColorMatrix values="0 0 0 0 0   0 0 0 0 0   0 0 0 0 0  0 0 0 0.223175262 0" type="matrix" in="shadowInnerInner1"></feColorMatrix>
        </filter>
    </defs>
    <g id="Shield-II" stroke="none" stroke-width="1" fill="none" fill-rule="evenodd">
        <rect id="Rectangle" fill="#000000" x="0" y="0" width="900" height="1200"></rect>
        <rect id="Rectangle" fill="url(#linearGradient-1)" x="42" y="41" width="816" height="1110"></rect>
        <rect id="Rectangle" fill="#2988FF" x="652" y="72" width="148" height="50" rx="5"></rect>
        <circle id="Oval" fill="#FFFFFF" cx="677.5" cy="97.5" r="8.5"></circle>
        <text id="UPGRADE" font-family="AvenirNextCondensed-DemiBold, Avenir Next Condensed" font-size="23" font-style="condensed" font-weight="500" letter-spacing="0.598" fill="#FFFFFF">
            <tspan x="695" y="106">UPGRADE</tspan>
        </text>
        <rect id="Rectangle" stroke="#000000" stroke-width="10" fill-opacity="0.4" fill="#000000" x="106" y="652" width="688" height="433" rx="15"></rect>
        <text id="Defense-Slot" font-family="AvenirNextCondensed-Italic, Avenir Next Condensed" font-size="44" font-style="italic" font-weight="normal" letter-spacing="1.144" fill="#FFFFFF">
            <tspan x="355" y="840">Defense Slot</tspan>
        </text>
        <text id="Equip-to-an-empty-up" font-family="AvenirNextCondensed-Regular, Avenir Next Condensed" font-size="32" font-style="condensed" font-weight="normal" letter-spacing="0.832" fill="#FFFFFF">
            <tspan x="148" y="921">Equip to an empty upgrade slot to add one wave of </tspan>
            <tspan x="148" y="965">defense. Roll two dice for this wave. Combined roll </tspan>
            <tspan x="148" y="1009">must equal or exceed combined highest two attack </tspan>
            <tspan x="148" y="1053">dice to block stun.</tspan>
        </text>
        <text id="SHIELD-II" font-family="AvenirNextCondensed-Regular, Avenir Next Condensed" font-size="80" font-style="condensed" font-weight="normal" letter-spacing="-4" fill="#FFFFFF">
            <tspan x="351" y="781">SHIELD II</tspan>
        </text>
        <text id="II" font-family="AvenirNextCondensed-Heavy, Avenir Next Condensed" font-size="55" font-style="condensed" font-weight="600" letter-spacing="1.43" fill="#FFFFFF">
            <tspan x="107" y="114">II</tspan>
        </text>
        <g id="Rectangle">
            <use fill="#B89E27" fill-rule="evenodd" xlink:href="#path-2"></use>
            <use fill="black" fill-opacity="1" filter="url(#filter-3)" xlink:href="#path-2"></use>
            <rect stroke="#FFDA2F" stroke-width="3" stroke-linejoin="square" x="149.5" y="696.5" width="169" height="169" rx="8"></rect>
        </g>
        <path d="M278.184763,829.49187 L273.751116,825.100187 C272.919807,824.276747 273.19691,822.629866 274.582425,822.355386 L298.136172,816.042342 C299.521686,815.767861 300.630098,816.865782 300.352995,818.238183 L293.979628,841.568998 C293.702525,842.941399 292.039908,843.215879 291.208599,842.392438 L286.774953,838.000756 L280.124483,844.58828 C279.570277,845.13724 278.461865,845.13724 277.630557,844.58828 L271.811396,838.824196 C271.25719,838.275236 271.25719,837.177315 271.811396,836.353875 L278.461865,829.76635 L278.184763,829.49187 Z" id="Path" fill="#FFFFFF" transform="translate(285.895741, 830.500000) rotate(-45.000000) translate(-285.895741, -830.500000) "></path>
        <text id="D" font-family="AvenirNextCondensed-Regular, Avenir Next Condensed" font-size="72" font-style="condensed" font-weight="normal" letter-spacing="1.872" fill="#FFFFFF">
            <tspan x="214.088" y="804">D</tspan>
        </text>
        <g id="Group-4" transform="translate(666.000000, 726.000000)">
            <g id="Group-2">
                <rect id="Rectangle" x="0" y="0" width="69" height="68"></rect>
                <path d="M34.5345086,0.302892496 L49,8.50070783 L48.9989432,8.50249006 L63.4613135,16.6985074 L64,17.0037998 L64,17.6043693 L64,34 L64,50.3956307 L64,50.9962002 L63.4613135,51.3014926 L48.9989432,59.4975099 L49,59.4992922 L34.5345086,67.6971075 L34,68 L33.4654914,67.6971075 L19,59.4992922 L19.0010568,59.4975099 L4.53868647,51.3014926 L4,50.9962002 L4,50.3956307 L4,34 L4,17.6043693 L4,17.0037998 L4.53868647,16.6985074 L19.0010568,8.50249006 L19,8.50070783 L33.4654914,0.302892496 L34,0 L34.5345086,0.302892496 Z M33.999974,3.63492545 L23.3857873,9.65013366 L23.3868409,9.65194099 L7.20692923,18.8212576 L7.20692923,49.1787288 L23.3868409,58.3480454 L23.3857873,58.3498277 L34.000026,64.3650614 L44.6142127,58.3498532 L44.6131591,58.3480459 L60.7930708,49.1787292 L60.7930708,18.821258 L44.6131591,9.6519414 L44.6142127,9.65015917 L33.999974,3.63492545 Z" id="Shape" fill="#FFDA2F" fill-rule="nonzero"></path>
            </g>
            <path d="M42.1898777,30.3985836 C40.7325782,30.7663488 39.2661826,31.0289709 37.8012232,31.2996084 C37.236783,31.40428 36.6689916,31.4905634 36.1026363,31.5848621 C36.0700817,31.5905201 36.0370483,31.5957065 36.0049724,31.6041934 C35.2835038,31.7927909 34.9569998,32.3798008 35.2370656,33.0691248 C35.6243702,34.0210709 35.833103,35.0310107 36.2438661,35.9744699 C36.4492477,36.4464352 36.6584592,36.9174576 36.92895,37.3540609 C37.1175755,37.6581744 37.0629986,37.846772 36.8202749,38.0862908 C36.1916829,38.7067768 35.3974451,39.0773709 34.6640079,39.5399064 C34.6271446,39.5634811 34.5754401,39.5696105 34.5462367,39.5993146 C34.1091426,40.032146 33.6696548,39.9043711 33.2392631,39.5983716 C32.6398745,39.1716697 31.9610142,38.8713281 31.3668918,38.4342533 C30.9297977,38.1126945 30.8627734,37.8896779 31.1265619,37.4125261 C31.4707795,36.7901543 31.565571,36.0899859 31.7632926,35.4218791 C31.9681954,34.7278402 32.0438371,34.013527 32.1338411,33.2996853 C32.1836306,32.9055164 32.1338411,32.515591 32.1458098,32.1237796 C32.151076,31.9460264 32.028996,31.9139649 31.8834576,31.9012345 C31.2338007,31.8446553 30.5846227,31.7847755 29.9349658,31.7248958 C29.2527544,31.6617156 28.5729366,31.5895771 27.8974276,31.4641597 C27.1941513,31.3340274 26.4626291,31.3717469 25.7746727,31.1322281 C25.5453539,31.0525456 25.3088539,30.9926659 25.0790563,30.9143979 C24.9023995,30.8540467 24.7889369,30.905911 24.7664359,31.0846072 C24.6366961,32.1200077 24.2019957,33.1077873 24.2752437,34.1761923 C24.2948722,34.4562597 24.2422103,34.7367985 24.2637538,35.0215808 C24.2852973,35.3101351 24.4126435,35.5072195 24.6343023,35.6797862 C25.0330968,35.9909722 25.4864683,36.2003154 25.9704793,36.3130025 C26.2481514,36.3775971 26.5507182,36.3747682 26.8417951,36.4011718 C27.3368173,36.4450208 27.8351907,36.4502072 28.3321279,36.4723674 C28.6983678,36.4883982 28.8563536,36.6458771 28.9037493,37.0065699 C29.0971623,38.4686724 29.0741825,39.9402047 29.1330681,41.4084365 C29.2149335,43.4429325 29.2455732,45.4812004 29.495478,47.506738 C29.5299477,47.7872768 29.5136703,48.0730021 29.5332989,48.3558984 C29.5438313,48.5086624 29.5122341,48.6576545 29.6616025,48.804289 C29.7348505,48.8764276 29.6314416,49.111703 29.6410165,49.2870987 C29.7233606,50.7789053 29.9991177,52.2494946 30.1226338,53.7375292 C30.1853494,54.4961628 29.5376076,55.1241926 28.9171542,55.1454098 C28.5039973,55.1595547 28.159301,54.9261652 27.8543405,54.670144 C26.9078619,53.8766199 26.098783,52.9548494 25.3055027,52.0170481 C24.4619542,51.0193672 23.6375555,50.0075414 22.8567225,48.9622395 C22.3358481,48.2653716 21.9054564,47.5119244 21.5531002,46.7240582 C21.264417,46.0790546 21.2356923,45.3741713 21.2519696,44.6697595 C21.292663,42.8950566 21.3970293,41.1241257 21.5057044,39.3531948 C21.5688988,38.3206233 21.5329929,37.2823938 21.4410739,36.2498223 C21.4247965,36.0682972 21.4022955,35.8490525 21.2931417,35.7212777 C21.0030223,35.3803876 21.0456306,34.9984776 21.0441944,34.6066662 C21.0384494,33.398699 21.0255233,32.1912032 21.0015861,30.984179 C20.982915,30.063823 21.1327622,29.1613838 21.2577146,28.2551726 C21.4659686,26.7426203 21.6713502,25.2281821 22.1247216,23.7646651 C22.5436234,22.4105348 22.9859837,21.0653629 23.6476091,19.7951584 C24.0459249,19.0299239 24.618025,18.3948217 25.0728327,17.6795655 C25.6736575,16.7337489 26.5401858,16.0246221 27.2448983,15.1726327 C28.0008365,14.2584061 28.9037493,13.4549806 29.8349082,12.696347 C30.3955184,12.2394695 30.9460751,11.7665611 31.4683857,11.2677207 C31.8671802,10.8867536 32.2865608,10.5336047 32.7203036,10.1960151 C33.0956396,9.90321745 33.3560769,9.93669351 33.8530141,10.3082307 C34.4260717,10.7363471 35.0192366,11.1432463 35.5587821,11.6090822 C36.3994582,12.3342397 37.3033285,12.9929166 38.0674054,13.7982281 C38.6576979,14.4206 39.376294,14.9104821 39.9273293,15.5677446 C40.7215671,16.5149757 41.5928828,17.3952547 42.279403,18.4363131 C42.8960264,19.3717569 43.4465831,20.3416198 43.9526164,21.3308139 C44.3777419,22.1606431 44.7607378,23.0211193 44.9507995,23.9542057 C45.1456487,24.9136957 45.4568329,25.848668 45.7723258,26.7770394 C46.0480828,27.5903662 46.2534644,28.4343402 46.2510707,29.2717133 C46.2472407,30.5353168 46.4985818,31.7663873 46.569436,33.015846 C46.622098,33.9479893 46.6805048,34.8683453 46.4085777,35.7971882 C46.1840464,36.5619512 46.2051112,37.3705632 46.2477195,38.1787036 C46.3042114,39.2565386 46.4650696,40.3221147 46.5392751,41.3975922 C46.6283217,42.6871278 46.8202984,43.9700626 46.9787629,45.2548833 C47.0304674,45.6773418 46.9921678,46.0781116 46.8150322,46.46898 C46.2103774,47.8023646 45.653597,49.1593239 44.8545718,50.3965238 C44.0220344,51.6860595 43.080822,52.8973272 42.087905,54.0718183 C41.4736753,54.7983904 40.7320995,55.3472092 39.8871148,55.7781546 C39.6041765,55.9229032 39.3040035,55.9846689 38.9928193,55.9988137 C38.5480653,56.0190879 38.2349661,55.7786261 38.1344297,55.3439087 C38.0142647,54.8252655 38.0769803,54.2986069 38.1023538,53.7790207 C38.1612394,52.5503077 38.2612971,51.3230092 38.3350238,50.0952392 C38.4317303,48.4860307 38.5418416,46.8772937 38.6040784,45.2671422 C38.6486017,44.1133967 38.6620066,42.9572938 38.6203558,41.8016624 C38.57296,40.4946814 38.7074873,39.1867575 38.6117384,37.8797765 C38.5830137,37.4884366 38.5667363,37.0956823 38.5212556,36.7062283 C38.4910946,36.4502072 38.5696088,36.3238468 38.8381847,36.3511935 C39.9474366,36.462466 40.9398748,35.9810708 41.9639101,35.7052469 C42.3502573,35.6010468 42.6916024,35.2229087 42.9640082,34.8787182 C43.123909,34.6764473 43.0573635,34.4147682 43.0195426,34.1790213 C42.8744829,33.279411 42.844322,32.3632985 42.5824485,31.479719 C42.470901,31.1029954 42.2454121,30.7734212 42.1898777,30.3985836 Z" id="Path" fill="#FFFFFF" fill-rule="nonzero"></path>
        </g>
        <g id="Group-3" transform="translate(634.000000, 781.000000)">
            <g id="Group-2">
                <rect id="Rectangle" x="0" y="0" width="69" height="68"></rect>
                <path d="M34.5345086,0.302892496 L49,8.50070783 L48.9989432,8.50249006 L63.4613135,16.6985074 L64,17.0037998 L64,17.6043693 L64,34 L64,50.3956307 L64,50.9962002 L63.4613135,51.3014926 L48.9989432,59.4975099 L49,59.4992922 L34.5345086,67.6971075 L34,68 L33.4654914,67.6971075 L19,59.4992922 L19.0010568,59.4975099 L4.53868647,51.3014926 L4,50.9962002 L4,50.3956307 L4,34 L4,17.6043693 L4,17.0037998 L4.53868647,16.6985074 L19.0010568,8.50249006 L19,8.50070783 L33.4654914,0.302892496 L34,0 L34.5345086,0.302892496 Z M33.999974,3.63492545 L23.3857873,9.65013366 L23.3868409,9.65194099 L7.20692923,18.8212576 L7.20692923,49.1787288 L23.3868409,58.3480454 L23.3857873,58.3498277 L34.000026,64.3650614 L44.6142127,58.3498532 L44.6131591,58.3480459 L60.7930708,49.1787292 L60.7930708,18.821258 L44.6131591,9.6519414 L44.6142127,9.65015917 L33.999974,3.63492545 Z" id="Shape" fill="#FFDA2F" fill-rule="nonzero"></path>
            </g>
            <path d="M42.1898777,30.3985836 C40.7325782,30.7663488 39.2661826,31.0289709 37.8012232,31.2996084 C37.236783,31.40428 36.6689916,31.4905634 36.1026363,31.5848621 C36.0700817,31.5905201 36.0370483,31.5957065 36.0049724,31.6041934 C35.2835038,31.7927909 34.9569998,32.3798008 35.2370656,33.0691248 C35.6243702,34.0210709 35.833103,35.0310107 36.2438661,35.9744699 C36.4492477,36.4464352 36.6584592,36.9174576 36.92895,37.3540609 C37.1175755,37.6581744 37.0629986,37.846772 36.8202749,38.0862908 C36.1916829,38.7067768 35.3974451,39.0773709 34.6640079,39.5399064 C34.6271446,39.5634811 34.5754401,39.5696105 34.5462367,39.5993146 C34.1091426,40.032146 33.6696548,39.9043711 33.2392631,39.5983716 C32.6398745,39.1716697 31.9610142,38.8713281 31.3668918,38.4342533 C30.9297977,38.1126945 30.8627734,37.8896779 31.1265619,37.4125261 C31.4707795,36.7901543 31.565571,36.0899859 31.7632926,35.4218791 C31.9681954,34.7278402 32.0438371,34.013527 32.1338411,33.2996853 C32.1836306,32.9055164 32.1338411,32.515591 32.1458098,32.1237796 C32.151076,31.9460264 32.028996,31.9139649 31.8834576,31.9012345 C31.2338007,31.8446553 30.5846227,31.7847755 29.9349658,31.7248958 C29.2527544,31.6617156 28.5729366,31.5895771 27.8974276,31.4641597 C27.1941513,31.3340274 26.4626291,31.3717469 25.7746727,31.1322281 C25.5453539,31.0525456 25.3088539,30.9926659 25.0790563,30.9143979 C24.9023995,30.8540467 24.7889369,30.905911 24.7664359,31.0846072 C24.6366961,32.1200077 24.2019957,33.1077873 24.2752437,34.1761923 C24.2948722,34.4562597 24.2422103,34.7367985 24.2637538,35.0215808 C24.2852973,35.3101351 24.4126435,35.5072195 24.6343023,35.6797862 C25.0330968,35.9909722 25.4864683,36.2003154 25.9704793,36.3130025 C26.2481514,36.3775971 26.5507182,36.3747682 26.8417951,36.4011718 C27.3368173,36.4450208 27.8351907,36.4502072 28.3321279,36.4723674 C28.6983678,36.4883982 28.8563536,36.6458771 28.9037493,37.0065699 C29.0971623,38.4686724 29.0741825,39.9402047 29.1330681,41.4084365 C29.2149335,43.4429325 29.2455732,45.4812004 29.495478,47.506738 C29.5299477,47.7872768 29.5136703,48.0730021 29.5332989,48.3558984 C29.5438313,48.5086624 29.5122341,48.6576545 29.6616025,48.804289 C29.7348505,48.8764276 29.6314416,49.111703 29.6410165,49.2870987 C29.7233606,50.7789053 29.9991177,52.2494946 30.1226338,53.7375292 C30.1853494,54.4961628 29.5376076,55.1241926 28.9171542,55.1454098 C28.5039973,55.1595547 28.159301,54.9261652 27.8543405,54.670144 C26.9078619,53.8766199 26.098783,52.9548494 25.3055027,52.0170481 C24.4619542,51.0193672 23.6375555,50.0075414 22.8567225,48.9622395 C22.3358481,48.2653716 21.9054564,47.5119244 21.5531002,46.7240582 C21.264417,46.0790546 21.2356923,45.3741713 21.2519696,44.6697595 C21.292663,42.8950566 21.3970293,41.1241257 21.5057044,39.3531948 C21.5688988,38.3206233 21.5329929,37.2823938 21.4410739,36.2498223 C21.4247965,36.0682972 21.4022955,35.8490525 21.2931417,35.7212777 C21.0030223,35.3803876 21.0456306,34.9984776 21.0441944,34.6066662 C21.0384494,33.398699 21.0255233,32.1912032 21.0015861,30.984179 C20.982915,30.063823 21.1327622,29.1613838 21.2577146,28.2551726 C21.4659686,26.7426203 21.6713502,25.2281821 22.1247216,23.7646651 C22.5436234,22.4105348 22.9859837,21.0653629 23.6476091,19.7951584 C24.0459249,19.0299239 24.618025,18.3948217 25.0728327,17.6795655 C25.6736575,16.7337489 26.5401858,16.0246221 27.2448983,15.1726327 C28.0008365,14.2584061 28.9037493,13.4549806 29.8349082,12.696347 C30.3955184,12.2394695 30.9460751,11.7665611 31.4683857,11.2677207 C31.8671802,10.8867536 32.2865608,10.5336047 32.7203036,10.1960151 C33.0956396,9.90321745 33.3560769,9.93669351 33.8530141,10.3082307 C34.4260717,10.7363471 35.0192366,11.1432463 35.5587821,11.6090822 C36.3994582,12.3342397 37.3033285,12.9929166 38.0674054,13.7982281 C38.6576979,14.4206 39.376294,14.9104821 39.9273293,15.5677446 C40.7215671,16.5149757 41.5928828,17.3952547 42.279403,18.4363131 C42.8960264,19.3717569 43.4465831,20.3416198 43.9526164,21.3308139 C44.3777419,22.1606431 44.7607378,23.0211193 44.9507995,23.9542057 C45.1456487,24.9136957 45.4568329,25.848668 45.7723258,26.7770394 C46.0480828,27.5903662 46.2534644,28.4343402 46.2510707,29.2717133 C46.2472407,30.5353168 46.4985818,31.7663873 46.569436,33.015846 C46.622098,33.9479893 46.6805048,34.8683453 46.4085777,35.7971882 C46.1840464,36.5619512 46.2051112,37.3705632 46.2477195,38.1787036 C46.3042114,39.2565386 46.4650696,40.3221147 46.5392751,41.3975922 C46.6283217,42.6871278 46.8202984,43.9700626 46.9787629,45.2548833 C47.0304674,45.6773418 46.9921678,46.0781116 46.8150322,46.46898 C46.2103774,47.8023646 45.653597,49.1593239 44.8545718,50.3965238 C44.0220344,51.6860595 43.080822,52.8973272 42.087905,54.0718183 C41.4736753,54.7983904 40.7320995,55.3472092 39.8871148,55.7781546 C39.6041765,55.9229032 39.3040035,55.9846689 38.9928193,55.9988137 C38.5480653,56.0190879 38.2349661,55.7786261 38.1344297,55.3439087 C38.0142647,54.8252655 38.0769803,54.2986069 38.1023538,53.7790207 C38.1612394,52.5503077 38.2612971,51.3230092 38.3350238,50.0952392 C38.4317303,48.4860307 38.5418416,46.8772937 38.6040784,45.2671422 C38.6486017,44.1133967 38.6620066,42.9572938 38.6203558,41.8016624 C38.57296,40.4946814 38.7074873,39.1867575 38.6117384,37.8797765 C38.5830137,37.4884366 38.5667363,37.0956823 38.5212556,36.7062283 C38.4910946,36.4502072 38.5696088,36.3238468 38.8381847,36.3511935 C39.9474366,36.462466 40.9398748,35.9810708 41.9639101,35.7052469 C42.3502573,35.6010468 42.6916024,35.2229087 42.9640082,34.8787182 C43.123909,34.6764473 43.0573635,34.4147682 43.0195426,34.1790213 C42.8744829,33.279411 42.844322,32.3632985 42.5824485,31.479719 C42.470901,31.1029954 42.2454121,30.7734212 42.1898777,30.3985836 Z" id="Path" fill="#FFFFFF" fill-rule="nonzero"></path>
        </g>
        <g id="Group" transform="translate(281.000000, 176.000000)" fill="#FFFFFF" fill-rule="nonzero">
            <circle id="Oval" cx="169.5" cy="158.5" r="27.5"></circle>
            <path d="M313.345946,19.7322222 C309.222973,18.8144444 221.266216,0 169.5,0 C117.733784,0 29.777027,18.8144444 25.6540541,19.7322222 L0,25.2388889 L4.12297297,51.3955556 L27.4864865,207.417778 L27.4864865,207.876667 L27.4864865,208.335556 C38.4810811,263.402222 63.677027,314.338889 99.8675676,355.638889 C128.27027,387.761111 152.55,402.445556 155.298649,404.281111 L169.5,413 L183.701351,404.74 C186.45,403.363333 210.72973,388.22 239.132432,356.097778 C275.322973,314.797778 300.518919,263.861111 311.513514,208.794444 L311.513514,208.335556 L311.513514,207.876667 L334.877027,51.8544444 L339,25.6977778 L313.345946,19.7322222 Z M251.959459,16.0611111 C255.166216,16.0611111 257.456757,18.3555556 257.456757,21.5677778 C257.456757,24.78 255.166216,27.0744444 251.959459,27.0744444 C248.752703,27.0744444 246.462162,24.78 246.462162,21.5677778 C246.462162,18.3555556 248.752703,16.0611111 251.959459,16.0611111 Z M169.5,9.17777778 C172.706757,9.17777778 174.997297,11.4722222 174.997297,14.6844444 C174.997297,17.8966667 172.706757,20.1911111 169.5,20.1911111 C166.293243,20.1911111 164.002703,18.3555556 164.002703,15.1433333 C164.002703,11.9311111 166.293243,9.17777778 169.5,9.17777778 Z M169.5,93.1544444 C172.706757,93.1544444 174.997297,95.4488889 174.997297,98.6611111 C174.997297,101.873333 172.706757,104.167778 169.5,104.167778 C166.293243,104.167778 164.002703,101.873333 164.002703,98.6611111 C164.002703,95.4488889 166.293243,93.1544444 169.5,93.1544444 Z M210.271622,159.234444 C210.271622,181.72 191.947297,200.075556 169.5,200.075556 C147.052703,200.075556 128.728378,181.72 128.728378,159.234444 C128.728378,136.748889 147.052703,118.393333 169.5,118.393333 C191.947297,118.393333 210.271622,136.748889 210.271622,159.234444 Z M88.872973,16.0611111 C92.0797297,16.0611111 94.3702703,18.3555556 94.3702703,21.5677778 C94.3702703,24.78 92.0797297,27.0744444 88.872973,27.0744444 C85.6662162,27.0744444 83.3756757,24.78 83.3756757,21.5677778 C83.3756757,18.3555556 85.6662162,16.0611111 88.872973,16.0611111 Z M16.4918919,41.7588889 C13.2851351,41.7588889 10.9945946,39.4644444 10.9945946,36.2522222 C10.9945946,33.04 13.2851351,30.7455556 16.4918919,30.7455556 C19.6986486,30.7455556 21.9891892,33.04 21.9891892,36.2522222 C22.4472973,39.4644444 19.6986486,41.7588889 16.4918919,41.7588889 Z M27.9445946,123.9 C24.7378378,123.9 22.4472973,121.605556 22.4472973,118.393333 C22.4472973,115.181111 24.7378378,112.886667 27.9445946,112.886667 C31.1513514,112.886667 33.4418919,115.181111 33.4418919,118.393333 C33.4418919,121.605556 31.1513514,123.9 27.9445946,123.9 Z M40.7716216,202.828889 C37.5648649,202.828889 35.2743243,200.534444 35.2743243,197.322222 C35.2743243,194.11 37.5648649,191.815556 40.7716216,191.815556 C43.9783784,191.815556 46.2689189,194.11 46.2689189,197.322222 C46.2689189,200.534444 43.9783784,202.828889 40.7716216,202.828889 Z M31.6094595,47.2655556 C31.6094595,47.2655556 107.655405,30.7455556 158.047297,28.4511111 L158.047297,75.2577778 L98.4932432,146.385556 L46.727027,146.385556 L31.6094595,47.2655556 Z M118.191892,156.94 C118.191892,160.152222 115.901351,162.446667 112.694595,162.446667 C109.487838,162.446667 107.197297,160.152222 107.197297,156.94 C107.197297,153.727778 109.487838,151.433333 112.694595,151.433333 C115.901351,151.433333 118.191892,153.727778 118.191892,156.94 Z M61.3864865,274.874444 C58.1797297,274.874444 55.8891892,272.58 55.8891892,269.367778 C55.8891892,266.155556 58.1797297,263.861111 61.3864865,263.861111 C64.5932432,263.861111 66.8837838,266.155556 66.8837838,269.367778 C66.8837838,272.58 64.1351351,274.874444 61.3864865,274.874444 Z M103.532432,344.625556 C100.325676,344.625556 98.0351351,342.331111 98.0351351,339.118889 C98.0351351,335.906667 100.325676,333.612222 103.532432,333.612222 C106.739189,333.612222 109.02973,335.906667 109.02973,339.118889 C109.487838,342.331111 106.739189,344.625556 103.532432,344.625556 Z M158.047297,372.617778 C148.885135,365.734444 135.6,354.262222 120.940541,337.742222 C87.4986486,299.654444 65.0513514,253.306667 55.4310811,203.746667 L50.3918919,168.871111 L99.4094595,168.871111 L158.505405,242.752222 L158.505405,372.617778 L158.047297,372.617778 Z M169.5,397.397778 C166.293243,397.397778 164.002703,395.103333 164.002703,391.891111 C164.002703,388.678889 166.293243,386.384444 169.5,386.384444 C172.706757,386.384444 174.997297,388.678889 174.997297,391.891111 C174.997297,395.103333 172.706757,397.397778 169.5,397.397778 Z M169.5,224.855556 C166.293243,224.855556 164.002703,222.561111 164.002703,219.348889 C164.002703,216.136667 166.293243,213.842222 169.5,213.842222 C172.706757,213.842222 174.997297,216.136667 174.997297,219.348889 C174.997297,222.561111 172.706757,224.855556 169.5,224.855556 Z M235.925676,343.248889 C232.718919,343.248889 230.428378,340.954444 230.428378,337.742222 C230.428378,334.53 232.718919,332.235556 235.925676,332.235556 C239.132432,332.235556 241.422973,334.53 241.422973,337.742222 C241.422973,340.495556 239.132432,343.248889 235.925676,343.248889 Z M278.52973,273.497778 C275.322973,273.497778 273.032432,271.203333 273.032432,267.991111 C273.032432,264.778889 275.322973,262.484444 278.52973,262.484444 C281.736486,262.484444 284.027027,264.778889 284.027027,267.991111 C284.027027,270.744444 281.736486,273.497778 278.52973,273.497778 Z M283.568919,203.287778 C273.490541,252.847778 251.501351,299.654444 218.059459,337.283333 C203.4,353.803333 189.656757,365.275556 180.952703,372.158889 L180.952703,243.211111 L240.506757,169.33 L288.608108,169.33 L283.568919,203.287778 Z M218.975676,156.94 C218.975676,153.727778 221.266216,151.433333 224.472973,151.433333 C227.67973,151.433333 229.97027,153.727778 229.97027,156.94 C229.97027,160.152222 227.67973,162.446667 224.472973,162.446667 C221.724324,162.446667 218.975676,160.152222 218.975676,156.94 Z M240.506757,146.385556 L180.952703,74.7988889 L180.952703,28.4511111 C231.344595,30.7455556 307.390541,47.2655556 307.390541,47.2655556 L292.272973,146.385556 L240.506757,146.385556 Z M299.144595,201.452222 C295.937838,201.452222 293.647297,199.157778 293.647297,195.945556 C293.647297,192.733333 295.937838,190.438889 299.144595,190.438889 C302.351351,190.438889 304.641892,192.733333 304.641892,195.945556 C304.641892,198.698889 301.893243,201.452222 299.144595,201.452222 Z M311.513514,122.523333 C308.306757,122.523333 306.016216,120.228889 306.016216,117.016667 C306.016216,113.804444 308.306757,111.51 311.513514,111.51 C314.72027,111.51 317.010811,113.804444 317.010811,117.016667 C317.468919,120.228889 314.72027,122.523333 311.513514,122.523333 Z M320.675676,41.7588889 C317.468919,41.7588889 315.178378,39.4644444 315.178378,36.2522222 C315.178378,33.04 317.468919,30.7455556 320.675676,30.7455556 C323.882432,30.7455556 326.172973,33.04 326.172973,36.2522222 C326.631081,39.4644444 323.882432,41.7588889 320.675676,41.7588889 Z" id="Shape"></path>
            <path d="M152,37 C111.901235,39.7466667 58.436214,50.2755556 40,53.9377778 L52.9053498,140 L95.308642,140 L152,73.1644444 L152,37 Z" id="Path"></path>
            <path d="M188,357 C195.330049,350.565657 203.576355,342.752525 212.738916,332.181818 C244.807882,295.873737 266.79803,250.373737 276.876847,201.19697 L281,175 L243.891626,175 L188,244.858586 L188,357 Z" id="Path"></path>
        </g>
    </g>
</svg>