<?xml version="1.0" encoding="UTF-8"?>
<svg width="900px" height="1200px" viewBox="0 0 900 1200" version="1.1" xmlns="http://www.w3.org/2000/svg" xmlns:xlink="http://www.w3.org/1999/xlink">
    <title>Sticky Fingers</title>
    <defs>
        <linearGradient x1="64.9391821%" y1="52.059706%" x2="38.1559011%" y2="99.3451819%" id="linearGradient-1">
            <stop stop-color="#190C03" offset="0%"></stop>
            <stop stop-color="#6E390F" offset="100%"></stop>
        </linearGradient>
    </defs>
    <g id="Sticky-Fingers" stroke="none" stroke-width="1" fill="none" fill-rule="evenodd">
        <rect id="Rectangle" fill="#000000" x="0" y="0" width="900" height="1200"></rect>
        <rect id="Rectangle" fill="url(#linearGradient-1)" x="42" y="41" width="816" height="1110"></rect>
        <rect id="Rectangle" fill="#FF8429" x="637" y="72" width="163" height="50" rx="5"></rect>
        <circle id="Oval" fill="#FFFFFF" cx="664.5" cy="97.5" r="8.5"></circle>
        <text id="POWER-UP" font-family="AvenirNextCondensed-DemiBold, Avenir Next Condensed" font-size="23" font-style="condensed" font-weight="500" letter-spacing="0.598" fill="#FFFFFF">
            <tspan x="682" y="106">POWER UP</tspan>
        </text>
        <text id="TRAP" font-family="AvenirNextCondensed-DemiBold, Avenir Next Condensed" font-size="23" font-style="condensed" font-weight="500" letter-spacing="0.598" fill="#FFFFFF">
            <tspan x="570" y="106">TRAP</tspan>
        </text>
        <g id="Group" transform="translate(297.000000, 157.000000)" fill="#FFFFFF" fill-rule="nonzero">
            <path d="M305.187537,272.668035 C301.969433,255.648213 290.049061,243.913649 280.826144,239.034568 C257.749017,226.834386 214.966582,240.144125 169.169345,273.80236 C141.8229,293.908139 120.064749,295.047417 108.808824,289.400561 C103.800681,286.89415 100.9148,283.060232 100.885049,278.874623 C100.830505,270.443966 105.377502,266.605095 115.676426,258.73417 C120.203589,255.271756 125.335696,251.348677 130.92399,246.098091 C161.989353,216.892948 154.194501,178.19217 153.103618,173.496363 C152.944944,170.994905 152.359835,146.460802 184.679713,111.78217 C206.199852,88.6845477 202.97679,71.6201449 197.681051,65.1757942 C194.398486,61.1833679 190.471308,59.0930405 186.003648,58.9543457 C177.5741,58.6620962 167.592523,65.2302814 153.663935,80.1498696 C152.087114,81.8290663 149.79626,83.5231231 148.497118,84.0382749 C148.115309,82.9832044 147.500448,80.1597763 148.095475,73.616358 C150.629298,45.8576023 147.346733,27.3220449 138.332075,18.5149308 C133.809871,14.0965136 127.805058,12.1845079 120.967207,12.9473288 C114.431828,13.6903362 109.944333,15.9243117 107.246878,19.7631832 C102.799052,26.1035128 104.792392,34.4648225 106.909696,43.3214705 C107.474972,45.6891873 108.060081,48.1312049 108.526186,50.5880827 C110.068297,58.7264901 110.350935,63.0210728 110.316225,65.2055145 C108.793948,63.2687419 105.471714,56.9928063 100.756126,36.7929123 C96.0752479,16.7317131 90.9133895,6.36428343 83.500346,2.12914137 C77.7385021,-1.16485802 71.9072384,0.00109017521 67.4693294,1.39108737 C62.049626,3.07028405 57.780308,7.18654493 55.4547445,12.9770491 C51.9986299,21.5513543 53.1192639,32.8103928 58.3753349,42.3605143 C60.715774,46.6105165 63.730577,51.2716494 66.6462089,55.7792275 C69.502338,60.1926914 73.6328164,66.5825548 75.9732556,71.1792938 C70.7618116,66.2110511 62.6396944,56.5965357 54.3291519,44.7331845 C47.9722811,35.6585877 40.9658393,26.6731518 31.4652431,25.1177897 C26.2190892,24.2608545 20.8539299,25.82117 15.4986877,29.7640625 C10.7731824,33.2462904 8.17985681,37.5904069 7.79804788,42.6775308 C7.0245129,52.9557995 15.8457868,63.0408863 22.544798,69.7378595 C25.7331505,72.9228845 30.5231171,76.2713711 35.60068,79.817993 C39.3047225,82.4036586 45.418624,86.6784278 48.5177225,89.7445715 C44.1343576,88.184256 37.1775013,84.1670628 33.7461795,82.1807564 C31.7925078,81.0513852 29.9727172,80.0012681 28.4008545,79.1542397 C21.0721064,75.2063938 10.307078,76.9004506 4.3964774,82.9237638 C1.87753016,85.4945693 -3.30416247,92.6918341 3.0179984,103.856758 C3.44939291,104.654253 13.9516178,123.442433 39.3791009,129.792669 C53.3820674,133.289757 62.2430097,153.137961 62.3322638,153.34105 C62.4215178,153.539185 62.520689,153.73732 62.6347358,153.920596 C72.3882185,170.033949 87.5911559,172.099509 99.7445805,172.099509 C109.260052,172.099509 120.456475,179.108546 120.630025,188.143515 C120.639942,188.58932 120.729196,189.089612 120.85316,189.515602 C121.120922,190.412165 127.00673,211.795917 93.238953,236.651991 C79.7268837,246.598383 72.090705,258.050603 70.5386765,270.701542 C69.1453219,282.074508 73.0576238,294.27469 81.2739536,304.176501 C93.3083728,318.684959 128.390167,337.052101 175.055153,302.75488 C219.498704,270.087323 251.605364,261.329742 263.758788,267.184641 C269.39171,269.894141 273.185006,274.84257 274.439521,281.118506 C276.43782,291.134245 271.980077,303.166011 262.20676,314.122893 C256.05319,321.018002 249.448391,327.749649 243.061769,334.258393 C229.014176,348.578622 216.831,361.090866 211.713768,372.53318 C199.590095,374.583881 188.820108,384.371764 184.327655,397.958893 C178.104665,416.791653 186.048275,436.407048 202.029706,441.677447 C204.737078,442.574009 207.498995,443 210.255953,443 C223.787856,443 237.141252,432.741545 242.317986,417.093809 C246.403837,404.730167 244.440248,391.638377 237.483392,382.667801 C241.311398,374.365932 249.993833,365.633118 260.808447,354.829791 C268.137195,347.508692 276.43782,339.216729 284.946705,329.329778 C305.93132,304.969042 307.532935,285.066351 305.187537,272.668035 Z M277.43449,322.870567 C269.163616,332.475176 261.00183,340.633397 253.797046,347.830661 C241.13289,360.4816 231.121563,370.507247 227.184468,381.58301 C227.174551,381.607777 227.164634,381.62759 227.154717,381.652357 C227.124965,381.736565 227.080338,381.820772 227.050587,381.90498 C226.966291,382.152649 226.996043,382.400318 226.951416,382.647987 C226.891913,382.989771 226.807618,383.316694 226.817535,383.663431 C226.827452,383.985401 226.916706,384.27765 226.991084,384.58476 C227.060504,384.896823 227.105131,385.208886 227.239012,385.506089 C227.38281,385.833012 227.605945,386.100495 227.819163,386.392744 C227.962962,386.585926 228.03734,386.813782 228.210889,386.992104 C234.404128,393.277946 236.243753,403.878185 232.901685,413.997945 C228.389397,427.639561 215.923584,435.842362 205.133763,432.285834 C194.338983,428.719398 189.22671,414.721139 193.734039,401.07457 C197.294283,390.315823 206.214728,382.464712 215.42277,381.984234 C215.437645,381.984234 215.447562,381.974327 215.462438,381.974327 C216.022755,381.939654 216.548362,381.776192 217.059094,381.563196 C217.148348,381.528523 217.252477,381.528523 217.336773,381.488896 C218.070639,381.132252 218.655749,380.547753 219.141688,379.864186 C219.40945,379.492683 219.677212,379.121179 219.835886,378.685281 C219.840844,378.670421 219.850761,378.660514 219.85572,378.645654 C223.321752,368.545707 236.347882,355.260735 250.137631,341.203036 C256.60359,334.610083 263.292684,327.789276 269.599969,320.715846 C281.470756,307.416013 286.776413,292.28343 284.158294,279.186686 C282.279001,269.785166 276.561784,262.350139 268.057858,258.258645 C249.428557,249.293023 212.477386,262.939592 169.174303,294.770028 C128.5538,324.629018 99.6057409,310.74964 88.9101322,297.855985 C85.8407851,294.155808 78.8690532,284.22923 80.3814133,271.905214 C81.5863427,262.07275 87.8936279,252.889179 99.1198022,244.621983 C135.813128,217.616142 131.712401,192.145849 130.522347,187.30144 C129.793439,172.46606 113.871511,162.187791 99.7396219,162.187791 C87.5217361,162.187791 77.9913885,159.943909 71.2675845,149.03656 C69.8692713,145.970417 59.5604301,124.616385 41.7790428,120.1732 C20.729966,114.917662 12.0673659,99.7355441 11.685557,99.0420706 C8.31373786,93.078198 10.6938455,90.6510405 11.4772976,89.853546 C14.2491312,87.0251645 20.2985715,86.0443948 23.6951834,87.8721929 C25.1877092,88.6795943 26.9182458,89.6801776 28.7777049,90.7501082 C40.1724701,97.3430603 48.7061476,101.845685 54.7803806,99.7404975 C57.0563586,98.9529097 58.8067294,97.2786664 59.7141454,95.0248773 C62.9818348,86.8617029 52.9258801,79.8328531 41.283187,71.6944456 C36.7808167,68.5490477 32.1247312,65.2946754 29.5561984,62.7288232 C21.33491,54.5111616 17.3383126,48.0172771 17.6854116,43.4155847 C17.7895413,42.0732181 18.2804385,40.012611 21.3844956,37.734055 C24.5480553,35.4010118 27.3248475,34.4796827 29.8586704,34.88586 C35.2882909,35.7774689 40.9212123,42.8707127 46.2020761,50.4048075 C57.3191621,66.2704917 72.5220995,85.2419468 80.7533051,84.6425875 C83.1681226,84.518753 85.2358411,83.2160134 86.4258949,81.0761521 C90.3034869,74.1017895 83.5400144,63.6402456 74.9765855,50.3949007 C72.1551663,46.0309707 69.2345759,41.5184392 67.0676862,37.5755467 C63.2644726,30.6705315 62.3173881,22.4627766 64.6578273,16.6623657 C65.5057406,14.5571781 67.1966087,11.8328177 70.4295883,10.8223277 C74.2675118,9.62360913 76.6327438,9.58893546 78.5814569,10.7034465 C83.1135785,13.2891122 87.3233938,22.8144668 91.1018147,39.0120277 C97.3991828,65.9881489 101.956097,71.971835 105.947736,74.418806 C109.279887,76.464553 112.354192,75.7066855 113.836801,75.3500419 L114.332657,75.2361141 C121.572151,73.8541204 121.259762,64.4674605 118.27471,48.7157041 C117.778854,46.1052715 117.159035,43.509699 116.559049,40.9933807 C115.046689,34.6629578 113.479785,28.1096327 115.368995,25.4248994 C116.564008,23.7209358 119.68294,23.037369 122.092799,22.764933 C126.005101,22.3141752 128.980236,23.2107374 131.400012,25.5685475 C137.984976,32.0029914 140.409711,48.7355176 138.218028,72.6851221 C137.543665,80.0805222 137.439535,90.2597233 144.312096,93.3258671 C151.273911,96.431638 158.786125,89.1749326 160.913346,86.8815164 C175.779102,70.9563916 182.859922,68.7174627 185.696217,68.8313905 C186.806934,68.8660642 188.185413,69.2028942 190.025038,71.4418231 C192.296057,74.2058105 194.859631,86.3019707 177.420384,105.010896 C139.923772,145.247223 143.127,173.719266 143.280716,174.913031 C143.305509,175.111166 143.345177,175.304348 143.389804,175.49753 C143.484017,175.86408 152.344959,212.340789 124.125808,238.861199 C118.909405,243.765048 113.990516,247.529619 109.651778,250.848385 C99.1644292,258.867911 90.8786796,265.198334 90.9728922,278.924157 C91.0274363,286.844616 96.0355794,294.066647 104.365956,298.237396 C111.094719,301.620556 136.085849,310.39795 175.050194,281.762445 C216.454149,251.33877 257.08457,237.682294 276.184934,247.772334 C282.045949,250.873152 292.69693,259.987376 295.439013,274.49088 C298.270349,289.435235 292.206033,305.707096 277.43449,322.870567 Z" id="Shape"></path>
            <path d="M218.437927,389.62154 C214.383665,388.27945 209.822005,389.136624 205.920456,391.943257 C202.442559,394.446204 199.698666,398.301038 198.206028,402.807323 C196.71339,407.313609 196.600087,412.035413 197.900604,416.105764 C199.358759,420.675726 202.516452,424.05544 206.560861,425.382835 C207.821968,425.799176 209.127411,426 210.447632,426 C213.383647,426 216.388628,424.995882 219.078333,423.061118 C222.556229,420.55817 225.295195,416.698439 226.787834,412.197051 C228.290324,407.690766 228.398701,402.968962 227.098184,398.89861 C225.644956,394.328649 222.482336,390.944037 218.437927,389.62154 Z M217.432982,409.111225 C217.432982,409.116123 217.432982,409.116123 217.432982,409.111225 C216.590602,411.643562 215.083185,413.833029 213.299901,415.116341 C212.536341,415.66983 211.023998,416.5368 209.649588,416.071477 C208.265326,415.620849 207.575658,414.038751 207.289939,413.137493 C206.624902,411.045989 206.723426,408.396097 207.56088,405.878455 C208.40326,403.346118 209.910677,401.16155 211.698887,399.878238 C212.314662,399.432507 213.403352,398.790851 214.526525,398.790851 C214.802392,398.790851 215.078259,398.830037 215.3492,398.918203 C216.733462,399.368832 217.42313,400.946032 217.708849,401.852187 C218.36896,403.943691 218.270436,406.593583 217.432982,409.111225 Z" id="Shape"></path>
        </g>
        <rect id="Rectangle" stroke="#000000" stroke-width="10" fill-opacity="0.4" fill="#000000" x="106" y="652" width="688" height="433" rx="15"></rect>
        <text id="Draw-two-cards-every" font-family="AvenirNextCondensed-Regular, Avenir Next Condensed" font-size="32" font-style="condensed" font-weight="normal" letter-spacing="0.832" fill="#FFFFFF">
            <tspan x="148" y="832">Draw two cards every build phase. Traps must be </tspan>
            <tspan x="148" y="876">activated before build phase begins.</tspan>
        </text>
        <text id="STICKY-FINGERS" font-family="AvenirNextCondensed-Regular, Avenir Next Condensed" font-size="80" font-style="condensed" font-weight="normal" letter-spacing="-4" fill="#FFFFFF">
            <tspan x="148" y="775">STICKY FINGERS</tspan>
        </text>
    </g>
</svg>