<?xml version="1.0" encoding="UTF-8"?>
<svg width="900px" height="1200px" viewBox="0 0 900 1200" version="1.1" xmlns="http://www.w3.org/2000/svg" xmlns:xlink="http://www.w3.org/1999/xlink">
    <title>Super Scope</title>
    <defs>
        <linearGradient x1="64.9391821%" y1="52.059706%" x2="38.1559011%" y2="99.3451819%" id="linearGradient-1">
            <stop stop-color="#190C03" offset="0%"></stop>
            <stop stop-color="#6E390F" offset="100%"></stop>
        </linearGradient>
    </defs>
    <g id="Super-Scope" stroke="none" stroke-width="1" fill="none" fill-rule="evenodd">
        <rect id="Rectangle" fill="#000000" x="0" y="0" width="900" height="1200"></rect>
        <rect id="Rectangle" fill="url(#linearGradient-1)" x="42" y="41" width="816" height="1110"></rect>
        <rect id="Rectangle" fill="#FF8429" x="637" y="72" width="163" height="50" rx="5"></rect>
        <circle id="Oval" fill="#FFFFFF" cx="664.5" cy="97.5" r="8.5"></circle>
        <text id="POWER-UP" font-family="AvenirNextCondensed-DemiBold, Avenir Next Condensed" font-size="23" font-style="condensed" font-weight="500" letter-spacing="0.598" fill="#FFFFFF">
            <tspan x="682" y="106">POWER UP</tspan>
        </text>
        <rect id="Rectangle" stroke="#000000" stroke-width="10" fill-opacity="0.4" fill="#000000" x="106" y="652" width="688" height="433" rx="15"></rect>
        <text id="+1-to-total-attack-r" font-family="AvenirNextCondensed-Regular, Avenir Next Condensed" font-size="32" font-style="condensed" font-weight="normal" letter-spacing="0.832" fill="#FFFFFF">
            <tspan x="148" y="832">+1 to total attack roll for all of your lizards.</tspan>
        </text>
        <text id="SUPER-SCOPE" font-family="AvenirNextCondensed-Regular, Avenir Next Condensed" font-size="80" font-style="condensed" font-weight="normal" letter-spacing="-4" fill="#FFFFFF">
            <tspan x="148" y="775">SUPER SCOPE</tspan>
        </text>
        <g id="noun_scope_2367022" transform="translate(250.000000, 167.000000)" fill="#FFFFFF" fill-rule="nonzero">
            <g id="Group">
                <path d="M387.23834,186.537713 L365.763344,186.537713 C359.02609,106.111746 295.02218,41.6867575 214.175135,34.9495038 L214.175135,13.4745075 C214.175135,5.89509702 208.280038,-2.04636308e-12 200.700628,-2.04636308e-12 C193.121217,-2.04636308e-12 187.22612,5.89509702 187.22612,13.4745075 L187.22612,34.9495038 C106.800154,41.6867575 42.3751648,106.111746 35.637911,186.537713 L14.1629147,186.537713 C6.58350427,186.537713 0.688407252,192.43281 0.688407252,200.01222 C0.688407252,207.591631 6.58350427,213.486728 14.1629147,213.486728 L35.637911,213.486728 C42.3751648,293.912694 106.379075,358.337683 187.22612,365.074937 L187.22612,386.549933 C187.22612,394.129344 193.121217,400.024441 200.700628,400.024441 C208.280038,400.024441 214.175135,394.129344 214.175135,386.549933 L214.175135,365.074937 C294.601102,358.337683 359.02609,293.912694 365.763344,213.486728 L387.23834,213.486728 C394.817751,213.486728 400.712848,207.591631 400.712848,200.01222 C400.712848,192.43281 394.817751,186.537713 387.23834,186.537713 Z M338.814329,186.537713 L307.233452,186.537713 C301.338355,138.113702 262.599146,99.795571 214.596213,93.900474 L214.596213,62.3195971 C279.863359,68.2146941 332.498154,120.849489 338.814329,186.537713 Z M253.756501,213.486728 L279.442281,213.486728 C273.547184,246.751918 247.440325,273.279855 214.175135,278.753873 L214.175135,253.068094 C214.175135,245.488683 208.280038,239.593586 200.700628,239.593586 C193.121217,239.593586 187.22612,245.488683 187.22612,253.068094 L187.22612,278.753873 C153.96093,272.858776 127.432993,246.751918 121.958975,213.486728 L147.644754,213.486728 C155.224165,213.486728 161.119262,207.591631 161.119262,200.01222 C161.119262,192.43281 155.224165,186.537713 147.644754,186.537713 L121.958975,186.537713 C127.854072,153.272523 153.96093,126.744586 187.22612,121.270567 L187.22612,146.956347 C187.22612,154.535758 193.121217,160.430855 200.700628,160.430855 C208.280038,160.430855 214.175135,154.535758 214.175135,146.956347 L214.175135,121.270567 C247.440325,127.165664 273.968262,153.272523 279.442281,186.537713 L253.756501,186.537713 C246.17709,186.537713 240.281993,192.43281 240.281993,200.01222 C240.281993,207.591631 246.17709,213.486728 253.756501,213.486728 Z M187.22612,61.8985187 L187.22612,93.4793956 C138.802109,99.795571 100.483978,138.113702 94.5888812,186.116635 L63.0080043,186.116635 C68.9031014,120.849489 121.537896,68.2146941 187.22612,61.8985187 Z M62.586926,213.486728 L94.1678029,213.486728 C100.0629,261.910739 138.802109,300.22887 186.805042,306.123967 L186.805042,337.704844 C121.537896,331.809747 68.9031014,279.174952 62.586926,213.486728 Z M214.175135,338.125922 L214.175135,306.545045 C262.599146,300.649948 300.917277,261.910739 306.812374,213.907806 L338.393251,213.907806 C332.498154,279.174952 279.863359,331.809747 214.175135,338.125922 Z" id="Shape"></path>
            </g>
        </g>
    </g>
</svg>