<?xml version="1.0" encoding="UTF-8"?>
<svg width="900px" height="1200px" viewBox="0 0 900 1200" version="1.1" xmlns="http://www.w3.org/2000/svg" xmlns:xlink="http://www.w3.org/1999/xlink">
    <title>Tree Crocodile</title>
    <defs>
        <linearGradient x1="65.0390187%" y1="51.8834459%" x2="37.7850012%" y2="100%" id="linearGradient-1">
            <stop stop-color="#00121F" offset="0%"></stop>
            <stop stop-color="#00416D" offset="100%"></stop>
        </linearGradient>
        <rect id="path-2" x="201.774871" y="80" width="172" height="172" rx="8"></rect>
        <filter x="-7.6%" y="-7.6%" width="115.1%" height="115.1%" filterUnits="objectBoundingBox" id="filter-3">
            <feMorphology radius="12" operator="erode" in="SourceAlpha" result="shadowSpreadInner1"></feMorphology>
            <feGaussianBlur stdDeviation="7" in="shadowSpreadInner1" result="shadowBlurInner1"></feGaussianBlur>
            <feOffset dx="0" dy="0" in="shadowBlurInner1" result="shadowOffsetInner1"></feOffset>
            <feComposite in="shadowOffsetInner1" in2="SourceAlpha" operator="arithmetic" k2="-1" k3="1" result="shadowInnerInner1"></feComposite>
            <feColorMatrix values="0 0 0 0 0   0 0 0 0 0   0 0 0 0 0  0 0 0 0.296383304 0" type="matrix" in="shadowInnerInner1"></feColorMatrix>
        </filter>
        <rect id="path-4" x="193" y="664" width="172" height="172" rx="8"></rect>
        <filter x="-7.6%" y="-7.6%" width="115.1%" height="115.1%" filterUnits="objectBoundingBox" id="filter-5">
            <feMorphology radius="12" operator="erode" in="SourceAlpha" result="shadowSpreadInner1"></feMorphology>
            <feGaussianBlur stdDeviation="7" in="shadowSpreadInner1" result="shadowBlurInner1"></feGaussianBlur>
            <feOffset dx="0" dy="0" in="shadowBlurInner1" result="shadowOffsetInner1"></feOffset>
            <feComposite in="shadowOffsetInner1" in2="SourceAlpha" operator="arithmetic" k2="-1" k3="1" result="shadowInnerInner1"></feComposite>
            <feColorMatrix values="0 0 0 0 0   0 0 0 0 0   0 0 0 0 0  0 0 0 0.3 0" type="matrix" in="shadowInnerInner1"></feColorMatrix>
        </filter>
        <rect id="path-6" x="279" y="846" width="172" height="172" rx="8"></rect>
        <filter x="-7.6%" y="-7.6%" width="115.1%" height="115.1%" filterUnits="objectBoundingBox" id="filter-7">
            <feMorphology radius="12" operator="erode" in="SourceAlpha" result="shadowSpreadInner1"></feMorphology>
            <feGaussianBlur stdDeviation="7" in="shadowSpreadInner1" result="shadowBlurInner1"></feGaussianBlur>
            <feOffset dx="0" dy="0" in="shadowBlurInner1" result="shadowOffsetInner1"></feOffset>
            <feComposite in="shadowOffsetInner1" in2="SourceAlpha" operator="arithmetic" k2="-1" k3="1" result="shadowInnerInner1"></feComposite>
            <feColorMatrix values="0 0 0 0 0   0 0 0 0 0   0 0 0 0 0  0 0 0 0.3 0" type="matrix" in="shadowInnerInner1"></feColorMatrix>
        </filter>
        <rect id="path-8" x="505" y="117" width="172" height="172" rx="8"></rect>
        <filter x="-7.6%" y="-7.6%" width="115.1%" height="115.1%" filterUnits="objectBoundingBox" id="filter-9">
            <feMorphology radius="12" operator="erode" in="SourceAlpha" result="shadowSpreadInner1"></feMorphology>
            <feGaussianBlur stdDeviation="7" in="shadowSpreadInner1" result="shadowBlurInner1"></feGaussianBlur>
            <feOffset dx="0" dy="0" in="shadowBlurInner1" result="shadowOffsetInner1"></feOffset>
            <feComposite in="shadowOffsetInner1" in2="SourceAlpha" operator="arithmetic" k2="-1" k3="1" result="shadowInnerInner1"></feComposite>
            <feColorMatrix values="0 0 0 0 0   0 0 0 0 0   0 0 0 0 0  0 0 0 0.296383304 0" type="matrix" in="shadowInnerInner1"></feColorMatrix>
        </filter>
        <rect id="path-10" x="609" y="423" width="172" height="172" rx="8"></rect>
        <filter x="-7.6%" y="-7.6%" width="115.1%" height="115.1%" filterUnits="objectBoundingBox" id="filter-11">
            <feMorphology radius="12" operator="erode" in="SourceAlpha" result="shadowSpreadInner1"></feMorphology>
            <feGaussianBlur stdDeviation="7" in="shadowSpreadInner1" result="shadowBlurInner1"></feGaussianBlur>
            <feOffset dx="0" dy="0" in="shadowBlurInner1" result="shadowOffsetInner1"></feOffset>
            <feComposite in="shadowOffsetInner1" in2="SourceAlpha" operator="arithmetic" k2="-1" k3="1" result="shadowInnerInner1"></feComposite>
            <feColorMatrix values="0 0 0 0 0   0 0 0 0 0   0 0 0 0 0  0 0 0 0.246913243 0" type="matrix" in="shadowInnerInner1"></feColorMatrix>
        </filter>
        <rect id="path-12" x="623" y="605" width="172" height="172" rx="8"></rect>
        <filter x="-7.6%" y="-7.6%" width="115.1%" height="115.1%" filterUnits="objectBoundingBox" id="filter-13">
            <feMorphology radius="12" operator="erode" in="SourceAlpha" result="shadowSpreadInner1"></feMorphology>
            <feGaussianBlur stdDeviation="7" in="shadowSpreadInner1" result="shadowBlurInner1"></feGaussianBlur>
            <feOffset dx="0" dy="0" in="shadowBlurInner1" result="shadowOffsetInner1"></feOffset>
            <feComposite in="shadowOffsetInner1" in2="SourceAlpha" operator="arithmetic" k2="-1" k3="1" result="shadowInnerInner1"></feComposite>
            <feColorMatrix values="0 0 0 0 0   0 0 0 0 0   0 0 0 0 0  0 0 0 0.246913243 0" type="matrix" in="shadowInnerInner1"></feColorMatrix>
        </filter>
    </defs>
    <g id="Tree-Crocodile" stroke="none" stroke-width="1" fill="none" fill-rule="evenodd">
        <rect id="Rectangle" fill="#000000" x="0" y="0" width="900" height="1200"></rect>
        <rect id="Rectangle" fill="url(#linearGradient-1)" x="42" y="41" width="816" height="1110"></rect>
        <g id="Group-2" transform="translate(455.774871, 523.000000) rotate(63.000000) translate(-455.774871, -523.000000) translate(119.774871, 360.000000)" fill="#FFFFFF" fill-rule="nonzero">
            <path d="M330.800977,257.279629 C335.479195,257.279629 342.979195,248.896487 342.979195,248.896487 C335.382004,246.616156 327.440365,245.670423 319.513848,246.102106 C312.979195,247.940514 312.979195,260.000473 312.979195,260.000473 C315.800977,252.720376 326.122759,257.279629 330.800977,257.279629 Z" id="Path"></path>
            <path d="M96.2222836,181.525561 C107.592273,174.510882 117.661107,165.565606 125.979195,155.089155 C118.539967,155.089155 97.1893832,135.000473 97.1893832,135.000473 C91.1636087,162.781103 79.9303746,162.781103 79.9303746,162.781103 C71.8482492,166.119428 63.4480632,168.621676 54.8601768,170.249015 C38.5682678,168.97947 42.362274,185.184837 42.362274,185.184837 C47.4209489,177.044814 55.6784918,181.226844 61.4810896,183.168501 C56.8687683,190.636412 64.9031344,199.000473 64.9031344,199.000473 C62.3737969,195.415876 75.0204843,189.068151 75.0204843,189.068151 C75.0204843,189.068151 78.8144905,182.795106 82.4597121,182.795106 C86.1049337,182.795106 100.01629,196.610742 100.01629,196.610742 C104.777396,189.068151 96.2222836,181.525561 96.2222836,181.525561 Z" id="Path"></path>
            <path d="M671.979195,222.087699 L660.122121,214.622701 L659.152674,212.532502 C656.993404,208.450651 654.499064,204.555452 651.695395,200.887105 L652.217405,187.151508 L632.455614,180.80626 C626.521022,175.961941 620.267651,171.52269 613.737843,167.518563 L608.965184,155.873166 L589.949121,153.857617 C583.386715,150.647667 576.675164,147.661668 569.963612,144.750319 L566.384118,136.837421 L545.205445,134.896521 L528.575712,128.401973 L524.474208,119.294675 L501.953224,117.055176 C493.155297,113.30511 484.82195,108.545426 477.120484,102.871679 L473.615562,100.18428 L467.053156,84.1345341 L451.765733,85.9261337 C448.882252,84.3336007 445.924198,82.7908345 442.891571,81.2978348 L433.346253,68.681988 L423.12978,72.713087 C419.351426,71.269854 415.423925,69.8515044 411.347279,68.4580381 L401.951107,56.0661412 L388.229713,61.5155898 L375.552338,58.3802906 L368.095058,48.5264931 L354.671955,53.8266418 L343.113172,51.3631924 L334.015291,39.4191954 L315.446666,46.8841935 L301.874417,44.943294 L292.179954,37.4782959 L284.722674,43.1516944 C275.177357,42.5544946 265.855757,42.5544946 256.832449,43.1516944 L248.182005,36.4331961 L238.412969,43.8981943 C228.56936,44.4953941 219.173188,45.3165439 210.448171,45.7644438 L205.153503,40.4642951 L194.713312,46.2869937 C179.798753,46.2869937 167.195951,43.8981943 159.216662,36.2838962 C130.879,9.03665305 110.818918,-0.14529464 69.7293084,0.00221816971 C58.7008139,0.0780718133 47.8534528,2.81832889 38.1104436,7.99155331 C30.1114153,12.4840944 21.4537291,15.6836996 12.4574024,17.4721009 C7.6976236,18.4363005 3.75051497,21.7499062 1.97294814,26.2738216 C0.19538131,30.7977369 0.829686453,35.9152306 3.65781264,39.8670953 C9.92192736,47.3320934 4.92555015,54.7970915 18.5723715,63.7550893 C32.2191929,72.713087 60.0348451,85.1049839 76.3662871,97.7208307 C92.697729,110.336678 112.757811,135.419071 124.092875,142.958719 C136.232811,150.047922 148.811344,156.356165 161.752137,161.845165 C161.752137,161.845165 179.351316,173.191962 176.666695,181.926009 L175.249812,183.866909 C176.171026,184.079659 177.069944,184.379609 177.934433,184.762709 C182.632519,192.227707 176.964987,197.005306 170.477153,197.005306 C169.02741,197.083879 167.632275,196.441452 166.748514,195.288356 C156.356702,208.724639 146.72184,222.730833 137.888842,237.241646 C137.888842,237.241646 121.5574,248.588443 112.757811,244.706644 C103.958221,240.824845 95.1586312,257.24784 95.1586312,257.24784 C99.4442309,255.138482 104.356746,254.686594 108.954598,255.978791 C116.073858,257.063168 123.341613,256.630722 130.282417,254.709741 C130.282417,254.709741 122.825138,260.98034 125.28604,264.787489 C127.746942,268.594638 124.018303,273.596186 130.282417,278.597735 C131.696144,274.85168 133.469327,271.251643 135.577086,267.848138 C135.577086,267.848138 151.908528,256.501341 160.708117,256.501341 C160.708117,256.501341 172.043182,260.30849 170.775445,266.579088 C170.775445,266.579088 178.232724,252.768842 165.779067,246.498243 C166.922602,240.732854 169.485858,235.344445 173.236347,230.821747 C172.31917,230.918792 171.39433,230.918792 170.477153,230.821747 C163.914748,230.821747 164.809621,221.41585 168.612834,218.57915 C171.555987,217.039171 175.065852,217.039171 178.009006,218.57915 C179.483793,220.569364 180.027545,223.100429 179.500462,225.521598 C192.699846,214.324101 226.630468,180.13441 214.400529,164.532564 C206.172525,153.801136 199.54123,141.932913 194.713312,129.297773 C194.713312,129.297773 229.837098,161.994464 229.837098,174.535661 C229.837098,174.535661 284.573529,170.653862 296.35603,171.997562 C296.35603,171.997562 346.618094,174.535661 367.945913,190.884007 C367.945913,190.884007 381.74188,158.187315 389.273732,153.185767 C396.805584,148.184218 443.264435,135.568371 443.264435,135.568371 C443.264435,135.568371 391.809207,155.649216 386.738257,175.804711 C386.141675,178.11886 385.395947,180.80626 384.4265,183.642959 C386.106635,183.762899 387.750071,184.193165 389.273732,184.912009 C393.971818,192.377007 388.304286,197.154606 381.816452,197.154606 C381.127263,197.164475 380.442944,197.037619 379.802987,196.781356 C371.749125,217.9073 360.488633,242.392494 360.488633,242.392494 C360.488633,242.392494 345.574074,263.742389 335.357602,264.787489 C325.141129,265.832588 308.958832,268.594638 310.22657,282.404884 C317.103873,278.767749 324.828756,277.04074 332.598408,277.403335 C343.933473,278.672385 371.525407,264.862139 376.521784,266.056538 C381.518161,267.250938 383.979063,274.865236 397.849603,274.865236 C405.636876,274.62498 413.236351,277.284889 419.177422,282.330234 C417.469462,274.027865 411.938397,267.023826 404.262864,263.443789 C391.734634,258.44224 386.663684,253.366041 391.734634,242.093894 C396.805584,230.821747 415.597928,212.233902 420.594305,195.586956 C420.594305,195.586956 469.588631,184.240159 482.116861,174.237061 C499.402721,186.162648 517.930728,196.174624 537.375301,204.097054 C559.74714,211.562052 617.764774,236.793746 622.761151,259.41269 C627.757528,282.031634 580.105512,299.64903 580.105512,326.000473 C580.105512,326.000473 603.968807,305.919628 616.497036,305.919628 C627.235518,305.919628 674.067233,282.778134 667.281109,236.495146 L671.979195,222.087699 Z M63.7634848,17.5467509 L64.6583584,17.5467509 C62.5949977,24.1559097 63.1010499,31.3012967 66.0752415,37.5529459 C59.7406659,36.4649504 53.887728,33.4703524 49.2963627,28.968198 C49.2963627,28.968198 55.4113319,18.7411506 63.7634848,17.5467509 Z M69.8038812,37.5529459 C71.7092513,31.0721795 71.552877,24.1585 69.3564444,17.7707008 C75.401707,19.0530841 80.8998936,22.1832514 85.091304,26.7286986 C81.9007709,32.4590573 76.2711749,36.4175984 69.8038812,37.4782959 L69.8038812,37.5529459 Z M134.309348,61.4409398 C128.045234,68.905938 126.852069,57.6337908 116.710169,52.6322421 C106.568269,47.6306933 101.79561,45.1672439 104.181939,41.2854449 C105.326404,39.9741504 106.925719,39.1469823 108.656307,38.9712955 C113.475543,38.1761684 118.378317,39.7935279 121.781119,43.3009944 C123.058177,44.8738543 124.858281,45.9338347 126.852069,46.2869937 C130.506136,46.3616436 140.573463,53.9012917 134.309348,61.4409398 Z M155.115158,95.6306312 C148.552752,95.6306312 149.447625,86.2247336 153.250838,83.3880343 C156.193991,81.8480555 159.703857,81.8480555 162.64701,83.3880343 C167.345096,90.9276824 161.752137,95.6306312 155.115158,95.6306312 L155.115158,95.6306312 Z M414.330191,174.535661 C407.767785,174.535661 408.662658,165.129764 412.465871,162.293064 C415.409024,160.753086 418.91889,160.753086 421.862043,162.293064 C426.560129,169.832713 420.892597,174.535661 414.330191,174.535661 Z M179.798753,150.349067 C173.236347,150.349067 174.13122,140.94317 177.934433,138.106471 C180.877586,136.566492 184.387452,136.566492 187.330605,138.106471 C191.7304,145.646119 186.062867,150.349067 179.798753,150.349067 Z M253.252955,76.9681359 C252.208936,86.7472835 244.900802,78.0132357 233.714883,79.3569353 C222.528964,80.700635 217.08515,81.2231849 217.08515,76.818836 C217.335244,75.118164 218.21336,73.5732111 219.546052,72.4891371 C223.126921,69.1520224 228.115066,67.7851392 232.894582,68.831288 C234.772018,69.5223887 236.833824,69.5223887 238.71126,68.831288 C241.545026,66.2931886 254.371547,67.1889884 252.954664,76.9681359 L253.252955,76.9681359 Z M278.980569,99.3631303 C270.180979,99.3631303 271.52329,86.8219334 276.445094,83.0147844 C280.36825,80.9572109 285.050167,80.9572109 288.973324,83.0147844 C295.01372,92.8685819 287.481868,99.1391803 278.682278,99.1391803 L278.980569,99.3631303 Z M342.51659,84.433134 C335.954184,84.433134 336.849058,75.0272364 340.65227,72.1905371 C343.595423,70.6505583 347.105289,70.6505583 350.048442,72.1905371 C354.448237,79.5808853 348.780705,84.3584841 342.218299,84.3584841 L342.51659,84.433134 Z M392.032925,113.098727 C385.470519,113.098727 386.365393,103.692829 390.168605,100.85613 C393.111759,99.3161511 396.621624,99.3161511 399.564777,100.85613 C403.964572,108.246478 398.29704,112.949427 391.734634,112.949427 L392.032925,113.098727 Z M463.026225,110.709927 C461.982206,120.489075 454.674072,111.755027 443.488153,113.098727 C432.302234,114.442426 426.783847,115.114276 426.783847,110.635277 C427.033942,108.934605 427.912058,107.389653 429.24475,106.305579 C432.825619,102.968464 437.813764,101.601581 442.59328,102.647729 C444.470716,103.33883 446.532522,103.33883 448.409958,102.647729 C451.243724,100.10963 463.771953,100.85613 462.727934,110.635277 L463.026225,110.709927 Z M526.413101,155.499916 C518.955821,161.770515 525.145363,175.580761 513.884871,177.89491 C502.624379,180.20906 510.081659,164.084664 505.085281,157.814066 C500.088904,151.543467 507.620756,150.349067 507.620756,145.272869 C507.620756,140.19667 522.535315,137.807871 522.535315,137.807871 C528.575712,135.568371 533.572089,149.453268 526.040237,155.873166 L526.413101,155.499916 Z M559.821712,169.608763 C553.259307,169.608763 554.15418,160.202865 557.957393,157.366166 C560.900546,155.826187 564.410411,155.826187 567.353565,157.366166 C571.678787,165.055114 566.011254,169.832713 559.448848,169.832713 L559.821712,169.608763 Z M600.762176,195.288356 C594.498062,204.619604 591.366004,209.247903 587.935656,206.261903 C586.793154,204.966135 586.180696,203.286798 586.220482,201.558955 C586.05186,196.676658 588.279992,192.020619 592.186305,189.092408 C593.893063,188.026762 595.162716,186.385097 595.765799,184.464109 C596.287809,180.73161 605.012826,171.698962 611.649804,178.94001 C618.286783,186.181058 606.728,186.181058 600.389313,195.512306 L600.762176,195.288356 Z M632.60476,208.576053 C626.042354,208.576053 626.937227,199.170155 630.74044,196.333456 C633.683593,194.793477 637.193459,194.793477 640.136612,196.333456 C644.536407,204.022404 638.868874,208.725353 632.306468,208.725353 L632.60476,208.576053 Z M652.664841,250.081442 C646.102435,250.081442 646.997309,240.675545 650.800521,237.838845 C653.743675,236.298867 657.25354,236.298867 660.196694,237.838845 C664.521916,245.453143 658.928956,250.230742 652.36655,250.230742 L652.664841,250.081442 Z" id="Shape"></path>
        </g>
        <circle id="Oval" fill="#000000" cx="-74.5" cy="1151.5" r="374.5"></circle>
        <text id="attack-2" font-family="AvenirNextCondensed-Regular, Avenir Next Condensed" font-size="28" font-style="condensed" font-weight="normal" letter-spacing="0.728" fill="#FFFFFF">
            <tspan x="80.49" y="1010">attack</tspan>
            <tspan x="141.754" y="1010" font-family="AvenirNextCondensed-Bold, Avenir Next Condensed" font-weight="bold"> 2</tspan>
        </text>
        <text id="SLOTS" font-family="AvenirNextCondensed-Italic, Avenir Next Condensed" font-size="36" font-style="italic" font-weight="normal" line-spacing="27" letter-spacing="0.936" fill="#FFFFFF">
            <tspan x="79" y="982">SLOTS</tspan>
        </text>
        <path d="M83.3843961,919.700449 L79.8680558,916.21739 C79.208742,915.564316 79.4285133,914.258169 80.5273696,914.040478 L99.2079277,909.033581 C100.306784,908.81589 101.185869,909.686655 100.966098,910.775111 L95.9113586,929.27886 C95.6915873,930.367316 94.3729597,930.585007 93.7136459,929.931934 L90.1973055,926.448875 L84.922795,931.673463 C84.4832525,932.108846 83.6041674,932.108846 82.9448536,931.673463 L78.3296569,927.101949 C77.8901144,926.666566 77.8901144,925.795802 78.3296569,925.142728 L83.6041674,919.91814 L83.3843961,919.700449 Z" id="Path" fill="#FFFFFF" transform="translate(89.500000, 920.500000) rotate(-45.000000) translate(-89.500000, -920.500000) "></path>
        <text id="defense-2" font-family="AvenirNextCondensed-Regular, Avenir Next Condensed" font-size="28" font-style="condensed" font-weight="normal" letter-spacing="0.728" fill="#FFFFFF">
            <tspan x="79.126" y="1048">defense</tspan>
            <tspan x="162.118" y="1048" font-family="AvenirNextCondensed-Bold, Avenir Next Condensed" font-weight="bold"> 2</tspan>
        </text>
        <text id="speed-2" font-family="AvenirNextCondensed-Regular, Avenir Next Condensed" font-size="28" font-style="condensed" font-weight="normal" letter-spacing="0.728" fill="#FFFFFF">
            <tspan x="80.15" y="1084">speed</tspan>
            <tspan x="143.094" y="1084" font-family="AvenirNextCondensed-Bold, Avenir Next Condensed" font-weight="bold"> 2</tspan>
        </text>
        <g id="Rectangle">
            <use fill="#8A1D1F" fill-rule="evenodd" xlink:href="#path-2"></use>
            <use fill="black" fill-opacity="1" filter="url(#filter-3)" xlink:href="#path-2"></use>
            <rect stroke="#FF393D" stroke-width="3" stroke-linejoin="square" x="203.274871" y="81.5" width="169" height="169" rx="8"></rect>
        </g>
        <text id="A" font-family="AvenirNextCondensed-Regular, Avenir Next Condensed" font-size="72" font-style="condensed" font-weight="normal" letter-spacing="1.872" fill="#FFFFFF">
            <tspan x="270.634871" y="189">A</tspan>
        </text>
        <g id="Rectangle">
            <use fill="#2D7C30" fill-rule="evenodd" xlink:href="#path-4"></use>
            <use fill="black" fill-opacity="1" filter="url(#filter-5)" xlink:href="#path-4"></use>
            <rect stroke="#38BB3D" stroke-width="3" stroke-linejoin="square" x="194.5" y="665.5" width="169" height="169" rx="8"></rect>
        </g>
        <path d="M325.184763,797.49187 L320.751116,793.100187 C319.919807,792.276747 320.19691,790.629866 321.582425,790.355386 L345.136172,784.042342 C346.521686,783.767861 347.630098,784.865782 347.352995,786.238183 L340.979628,809.568998 C340.702525,810.941399 339.039908,811.215879 338.208599,810.392438 L333.774953,806.000756 L327.124483,812.58828 C326.570277,813.13724 325.461865,813.13724 324.630557,812.58828 L318.811396,806.824196 C318.25719,806.275236 318.25719,805.177315 318.811396,804.353875 L325.461865,797.76635 L325.184763,797.49187 Z" id="Path" fill="#FFFFFF" transform="translate(332.895741, 798.500000) rotate(-45.000000) translate(-332.895741, -798.500000) "></path>
        <text id="S" font-family="AvenirNextCondensed-Regular, Avenir Next Condensed" font-size="72" font-style="condensed" font-weight="normal" letter-spacing="1.872" fill="#FFFFFF">
            <tspan x="262.94" y="773">S</tspan>
        </text>
        <path d="M332.959634,214.49187 L328.525987,210.100187 C327.694679,209.276747 327.971782,207.629866 329.357296,207.355386 L352.911043,201.042342 C354.296558,200.767861 355.404969,201.865782 355.127866,203.238183 L348.7545,226.568998 C348.477397,227.941399 346.814779,228.215879 345.983471,227.392438 L341.549824,223.000756 L334.899354,229.58828 C334.345148,230.13724 333.236737,230.13724 332.405428,229.58828 L326.586267,223.824196 C326.032061,223.275236 326.032061,222.177315 326.586267,221.353875 L333.236737,214.76635 L332.959634,214.49187 Z" id="Path" fill="#FFFFFF" transform="translate(340.670613, 215.500000) rotate(-45.000000) translate(-340.670613, -215.500000) "></path>
        <g id="Rectangle">
            <use fill="#2D7C30" fill-rule="evenodd" xlink:href="#path-6"></use>
            <use fill="black" fill-opacity="1" filter="url(#filter-7)" xlink:href="#path-6"></use>
            <rect stroke="#38BB3D" stroke-width="3" stroke-linejoin="square" x="280.5" y="847.5" width="169" height="169" rx="8"></rect>
        </g>
        <path d="M412.184763,980.49187 L407.751116,976.100187 C406.919807,975.276747 407.19691,973.629866 408.582425,973.355386 L432.136172,967.042342 C433.521686,966.767861 434.630098,967.865782 434.352995,969.238183 L427.979628,992.568998 C427.702525,993.941399 426.039908,994.215879 425.208599,993.392438 L420.774953,989.000756 L414.124483,995.58828 C413.570277,996.13724 412.461865,996.13724 411.630557,995.58828 L405.811396,989.824196 C405.25719,989.275236 405.25719,988.177315 405.811396,987.353875 L412.461865,980.76635 L412.184763,980.49187 Z" id="Path" fill="#FFFFFF" transform="translate(419.895741, 981.500000) rotate(-45.000000) translate(-419.895741, -981.500000) "></path>
        <text id="S" font-family="AvenirNextCondensed-Regular, Avenir Next Condensed" font-size="72" font-style="condensed" font-weight="normal" letter-spacing="1.872" fill="#FFFFFF">
            <tspan x="348.94" y="955">S</tspan>
        </text>
        <text id="TREE-CROCODILE" font-family="AvenirNextCondensed-Regular, Avenir Next Condensed" font-size="80" font-style="condensed" font-weight="normal" line-spacing="76" letter-spacing="2.08" fill="#FFFFFF">
            <tspan x="675.88" y="1051">TREE</tspan>
            <tspan x="469" y="1127">CROCODILE</tspan>
        </text>
        <g id="Rectangle">
            <use fill="#8A1D1F" fill-rule="evenodd" xlink:href="#path-8"></use>
            <use fill="black" fill-opacity="1" filter="url(#filter-9)" xlink:href="#path-8"></use>
            <rect stroke="#FF393D" stroke-width="3" stroke-linejoin="square" x="506.5" y="118.5" width="169" height="169" rx="8"></rect>
        </g>
        <path d="M635.184763,251.49187 L630.751116,247.100187 C629.919807,246.276747 630.19691,244.629866 631.582425,244.355386 L655.136172,238.042342 C656.521686,237.767861 657.630098,238.865782 657.352995,240.238183 L650.979628,263.568998 C650.702525,264.941399 649.039908,265.215879 648.208599,264.392438 L643.774953,260.000756 L637.124483,266.58828 C636.570277,267.13724 635.461865,267.13724 634.630557,266.58828 L628.811396,260.824196 C628.25719,260.275236 628.25719,259.177315 628.811396,258.353875 L635.461865,251.76635 L635.184763,251.49187 Z" id="Path" fill="#FFFFFF" transform="translate(642.895741, 252.500000) rotate(-45.000000) translate(-642.895741, -252.500000) "></path>
        <g id="Rectangle">
            <use fill="#B89E27" fill-rule="evenodd" xlink:href="#path-10"></use>
            <use fill="black" fill-opacity="1" filter="url(#filter-11)" xlink:href="#path-10"></use>
            <rect stroke="#FFDA2F" stroke-width="3" stroke-linejoin="square" x="610.5" y="424.5" width="169" height="169" rx="8"></rect>
        </g>
        <path d="M739.184763,557.49187 L734.751116,553.100187 C733.919807,552.276747 734.19691,550.629866 735.582425,550.355386 L759.136172,544.042342 C760.521686,543.767861 761.630098,544.865782 761.352995,546.238183 L754.979628,569.568998 C754.702525,570.941399 753.039908,571.215879 752.208599,570.392438 L747.774953,566.000756 L741.124483,572.58828 C740.570277,573.13724 739.461865,573.13724 738.630557,572.58828 L732.811396,566.824196 C732.25719,566.275236 732.25719,565.177315 732.811396,564.353875 L739.461865,557.76635 L739.184763,557.49187 Z" id="Path" fill="#FFFFFF" transform="translate(746.895741, 558.500000) rotate(-45.000000) translate(-746.895741, -558.500000) "></path>
        <text id="D" font-family="AvenirNextCondensed-Regular, Avenir Next Condensed" font-size="72" font-style="condensed" font-weight="normal" letter-spacing="1.872" fill="#FFFFFF">
            <tspan x="675.088" y="532">D</tspan>
        </text>
        <g id="Rectangle">
            <use fill="#B89E27" fill-rule="evenodd" xlink:href="#path-12"></use>
            <use fill="black" fill-opacity="1" filter="url(#filter-13)" xlink:href="#path-12"></use>
            <rect stroke="#FFDA2F" stroke-width="3" stroke-linejoin="square" x="624.5" y="606.5" width="169" height="169" rx="8"></rect>
        </g>
        <path d="M754.184763,739.49187 L749.751116,735.100187 C748.919807,734.276747 749.19691,732.629866 750.582425,732.355386 L774.136172,726.042342 C775.521686,725.767861 776.630098,726.865782 776.352995,728.238183 L769.979628,751.568998 C769.702525,752.941399 768.039908,753.215879 767.208599,752.392438 L762.774953,748.000756 L756.124483,754.58828 C755.570277,755.13724 754.461865,755.13724 753.630557,754.58828 L747.811396,748.824196 C747.25719,748.275236 747.25719,747.177315 747.811396,746.353875 L754.461865,739.76635 L754.184763,739.49187 Z" id="Path" fill="#FFFFFF" transform="translate(761.895741, 740.500000) rotate(-45.000000) translate(-761.895741, -740.500000) "></path>
        <text id="D" font-family="AvenirNextCondensed-Regular, Avenir Next Condensed" font-size="72" font-style="condensed" font-weight="normal" letter-spacing="1.872" fill="#FFFFFF">
            <tspan x="689.088" y="714">D</tspan>
        </text>
        <text id="A" font-family="AvenirNextCondensed-Regular, Avenir Next Condensed" font-size="72" font-style="condensed" font-weight="normal" letter-spacing="1.872" fill="#FFFFFF">
            <tspan x="573.255741" y="226">A</tspan>
        </text>
    </g>
</svg>