<?xml version="1.0" encoding="UTF-8"?>
<svg width="900px" height="1200px" viewBox="0 0 900 1200" version="1.1" xmlns="http://www.w3.org/2000/svg" xmlns:xlink="http://www.w3.org/1999/xlink">
    <title>Upgrade Slot</title>
    <defs>
        <linearGradient x1="64.9391821%" y1="52.059706%" x2="38.1559011%" y2="99.3451819%" id="linearGradient-1">
            <stop stop-color="#190C03" offset="0%"></stop>
            <stop stop-color="#6E390F" offset="100%"></stop>
        </linearGradient>
        <rect id="path-2" x="498" y="313" width="206" height="206" rx="8"></rect>
        <filter x="-6.3%" y="-6.3%" width="112.6%" height="112.6%" filterUnits="objectBoundingBox" id="filter-3">
            <feMorphology radius="12" operator="erode" in="SourceAlpha" result="shadowSpreadInner1"></feMorphology>
            <feGaussianBlur stdDeviation="7" in="shadowSpreadInner1" result="shadowBlurInner1"></feGaussianBlur>
            <feOffset dx="0" dy="0" in="shadowBlurInner1" result="shadowOffsetInner1"></feOffset>
            <feComposite in="shadowOffsetInner1" in2="SourceAlpha" operator="arithmetic" k2="-1" k3="1" result="shadowInnerInner1"></feComposite>
            <feColorMatrix values="0 0 0 0 0   0 0 0 0 0   0 0 0 0 0  0 0 0 0.3 0" type="matrix" in="shadowInnerInner1"></feColorMatrix>
        </filter>
        <rect id="path-4" x="349" y="268" width="207" height="207" rx="8"></rect>
        <filter x="-6.3%" y="-6.3%" width="112.6%" height="112.6%" filterUnits="objectBoundingBox" id="filter-5">
            <feMorphology radius="12" operator="erode" in="SourceAlpha" result="shadowSpreadInner1"></feMorphology>
            <feGaussianBlur stdDeviation="7" in="shadowSpreadInner1" result="shadowBlurInner1"></feGaussianBlur>
            <feOffset dx="0" dy="0" in="shadowBlurInner1" result="shadowOffsetInner1"></feOffset>
            <feComposite in="shadowOffsetInner1" in2="SourceAlpha" operator="arithmetic" k2="-1" k3="1" result="shadowInnerInner1"></feComposite>
            <feColorMatrix values="0 0 0 0 0   0 0 0 0 0   0 0 0 0 0  0 0 0 0.223175262 0" type="matrix" in="shadowInnerInner1"></feColorMatrix>
        </filter>
        <rect id="path-6" x="196" y="224" width="206" height="206" rx="8"></rect>
        <filter x="-6.3%" y="-6.3%" width="112.6%" height="112.6%" filterUnits="objectBoundingBox" id="filter-7">
            <feMorphology radius="12" operator="erode" in="SourceAlpha" result="shadowSpreadInner1"></feMorphology>
            <feGaussianBlur stdDeviation="7" in="shadowSpreadInner1" result="shadowBlurInner1"></feGaussianBlur>
            <feOffset dx="0" dy="0" in="shadowBlurInner1" result="shadowOffsetInner1"></feOffset>
            <feComposite in="shadowOffsetInner1" in2="SourceAlpha" operator="arithmetic" k2="-1" k3="1" result="shadowInnerInner1"></feComposite>
            <feColorMatrix values="0 0 0 0 0   0 0 0 0 0   0 0 0 0 0  0 0 0 0.3 0" type="matrix" in="shadowInnerInner1"></feColorMatrix>
        </filter>
    </defs>
    <g id="Upgrade-Slot" stroke="none" stroke-width="1" fill="none" fill-rule="evenodd">
        <rect id="Rectangle" fill="#000000" x="0" y="0" width="900" height="1200"></rect>
        <rect id="Rectangle" fill="url(#linearGradient-1)" x="42" y="41" width="816" height="1110"></rect>
        <g id="Rectangle">
            <use fill="#2D7C30" fill-rule="evenodd" xlink:href="#path-2"></use>
            <use fill="black" fill-opacity="1" filter="url(#filter-3)" xlink:href="#path-2"></use>
            <rect stroke="#38BB3D" stroke-width="3" stroke-linejoin="square" x="499.5" y="314.5" width="203" height="203" rx="8"></rect>
        </g>
        <path d="M658.613384,479.589171 L650.998345,479.625003 C649.570525,479.631722 648.388596,477.988866 649.347265,476.571426 L664.223608,451.068703 C665.182277,449.651263 667.086037,449.642305 668.031127,451.050787 L682.66306,476.414661 C683.608151,477.823143 682.41038,479.477196 680.98256,479.483915 L673.367522,479.519747 L673.313208,490.823435 C673.308682,491.765409 672.352276,492.711862 671.161295,492.952954 L661.166556,493 C660.214677,493.004463 659.267323,492.066968 659.03501,490.89062 L659.089324,479.586932 L658.613384,479.589171 Z" id="Path" fill="#FFFFFF"></path>
        <text id="S" font-family="AvenirNextCondensed-Regular, Avenir Next Condensed" font-size="85" font-style="condensed" font-weight="normal" letter-spacing="2.21" fill="#FFFFFF">
            <tspan x="583.45" y="438">S</tspan>
        </text>
        <path d="M113.789021,100.49187 L109.355375,96.1001874 C108.524066,95.2767469 108.801169,93.6298658 110.186683,93.3553856 L133.740431,87.0423416 C135.125945,86.7678615 136.234357,87.8657822 135.957254,89.238183 L129.583887,112.568998 C129.306784,113.941399 127.644167,114.215879 126.812858,113.392438 L122.379211,109.000756 L115.728742,115.58828 C115.174536,116.13724 114.066124,116.13724 113.234815,115.58828 L107.415654,109.824196 C106.861449,109.275236 106.861449,108.177315 107.415654,107.353875 L114.066124,100.76635 L113.789021,100.49187 Z" id="Path" fill="#FFFFFF" transform="translate(121.500000, 101.500000) rotate(-45.000000) translate(-121.500000, -101.500000) "></path>
        <rect id="Rectangle" fill="#FF8429" x="637" y="72" width="163" height="50" rx="5"></rect>
        <circle id="Oval" fill="#FFFFFF" cx="664.5" cy="97.5" r="8.5"></circle>
        <text id="POWER-UP" font-family="AvenirNextCondensed-DemiBold, Avenir Next Condensed" font-size="23" font-style="condensed" font-weight="500" letter-spacing="0.598" fill="#FFFFFF">
            <tspan x="682" y="106">POWER UP</tspan>
        </text>
        <rect id="Rectangle" stroke="#000000" stroke-width="10" fill-opacity="0.4" fill="#000000" x="106" y="652" width="688" height="433" rx="15"></rect>
        <text id="Permanently-attach-t" font-family="AvenirNextCondensed-Regular, Avenir Next Condensed" font-size="32" font-style="condensed" font-weight="normal" letter-spacing="0.832" fill="#FFFFFF">
            <tspan x="148" y="832">Permanently attach to a lizard to add one extra </tspan>
            <tspan x="148" y="876">upgrade slot to attack, defense, or speed. No limit </tspan>
            <tspan x="148" y="920">to the number of upgrade slots that can be </tspan>
            <tspan x="148" y="964">attached to any part of any lizard. Cannot be </tspan>
            <tspan x="148" y="1008">moved once attached.</tspan>
        </text>
        <text id="UPGRADE-SLOT" font-family="AvenirNextCondensed-Regular, Avenir Next Condensed" font-size="80" font-style="condensed" font-weight="normal" letter-spacing="-4" fill="#FFFFFF">
            <tspan x="148" y="775">UPGRADE SLOT</tspan>
        </text>
        <g id="Rectangle">
            <use fill="#B89E27" fill-rule="evenodd" xlink:href="#path-4"></use>
            <use fill="black" fill-opacity="1" filter="url(#filter-5)" xlink:href="#path-4"></use>
            <rect stroke="#FFDA2F" stroke-width="3" stroke-linejoin="square" x="350.5" y="269.5" width="204" height="204" rx="8"></rect>
        </g>
        <path d="M507.330637,436.589171 L499.93957,436.625003 C498.553745,436.631722 497.406579,434.988866 498.337051,433.571426 L512.775855,408.068703 C513.706328,406.651263 515.554094,406.642305 516.471388,408.050787 L530.67297,433.414661 C531.590264,434.823143 530.427722,436.477196 529.041897,436.483915 L521.65083,436.519747 L521.598114,447.823435 C521.593721,448.765409 520.665445,449.711862 519.509492,449.952954 L509.808716,450 C508.884833,450.004463 507.965343,449.066968 507.739863,447.89062 L507.792579,436.586932 L507.330637,436.589171 Z" id="Path" fill="#FFFFFF"></path>
        <text id="D" font-family="AvenirNextCondensed-Regular, Avenir Next Condensed" font-size="85" font-style="condensed" font-weight="normal" letter-spacing="2.21" fill="#FFFFFF">
            <tspan x="428.4025" y="394">D</tspan>
        </text>
        <g id="Rectangle">
            <use fill="#8A1D1F" fill-rule="evenodd" xlink:href="#path-6"></use>
            <use fill="black" fill-opacity="1" filter="url(#filter-7)" xlink:href="#path-6"></use>
            <rect stroke="#FF393D" stroke-width="3" stroke-linejoin="square" x="197.5" y="225.5" width="203" height="203" rx="8"></rect>
        </g>
        <text id="A" font-family="AvenirNextCondensed-Regular, Avenir Next Condensed" font-size="85" font-style="condensed" font-weight="normal" letter-spacing="2.21" fill="#FFFFFF">
            <tspan x="277.675" y="348">A</tspan>
        </text>
        <path d="M355.330637,391.901051 L347.93957,391.93605 C346.553745,391.942612 345.406579,390.337962 346.337051,388.953486 L360.775855,364.043849 C361.706328,362.659373 363.554094,362.650623 364.471388,364.02635 L378.67297,388.800366 C379.590264,390.176093 378.427722,391.79168 377.041897,391.798242 L369.65083,391.833241 L369.598114,402.874053 C369.593721,403.794121 368.665445,404.718563 367.509492,404.954048 L357.808716,405 C356.884833,405.004359 355.965343,404.088666 355.739863,402.939676 L355.792579,391.898864 L355.330637,391.901051 Z" id="Path" fill="#FFFFFF"></path>
    </g>
</svg>